<?xml version="1.0" encoding="UTF-8"?><svg id="Layer_2" xmlns="http://www.w3.org/2000/svg" xmlns:xlink="http://www.w3.org/1999/xlink" viewBox="0 0 1679.95 2105.89"><defs><style>.cls-1{stroke:url(#linear-gradient-5);}.cls-1,.cls-2,.cls-3,.cls-4,.cls-5{fill:none;stroke-linecap:round;stroke-linejoin:round;stroke-width:8px;}.cls-2{stroke:url(#linear-gradient);}.cls-3{stroke:url(#linear-gradient-4);}.cls-4{stroke:url(#linear-gradient-2);}.cls-5{stroke:url(#linear-gradient-3);}</style><linearGradient id="linear-gradient" x1="6.43" y1="1052.95" x2="1679.95" y2="1052.95" gradientUnits="userSpaceOnUse"><stop offset="0" stop-color="#fff"/><stop offset="1" stop-color="#ed2024"/></linearGradient><linearGradient id="linear-gradient-2" x1="472.45" y1="222.46" x2="522.37" y2="222.46" xlink:href="#linear-gradient"/><linearGradient id="linear-gradient-3" x1="0" y1="369.04" x2="776.5" y2="369.04" xlink:href="#linear-gradient"/><linearGradient id="linear-gradient-4" x1="126.63" y1="1196.54" x2="1256.09" y2="1196.54" xlink:href="#linear-gradient"/><linearGradient id="linear-gradient-5" x1="540.29" y1="586.27" x2="770.16" y2="586.27" xlink:href="#linear-gradient"/></defs><g id="graphics"><path class="cls-2" d="M155.31,216.46c17.97,9.9,34.67,22.1,49.56,36.21,20.34,19.28,37.14,41.91,55.61,62.98,39.44,44.97,86.81,82.95,139.28,111.66-52.44-12.24-95.89-49.06-130.64-90.19-34.75-41.13-62.92-87.53-98.23-128.18l31.81,10.65c-9.67,5.62-20.56,9.14-31.69,10.24,19.85,9.52,42.35,13.43,64.25,11.16l-49.83,27.84c26.64,5.82,55.04,3.35,80.28-7-9.47,16.71-23.2,30.98-39.54,41.08,15.19,4.33,31.08,6.21,46.86,5.53-7.2,6.44-15.06,12.15-23.4,17.01,29.02,8.63,55.18,26.64,73.58,50.69,5.09,6.64,9.65,13.8,15.9,19.36,8.21,7.32,18.74,11.41,27.88,17.51,12.94,8.64,22.81,21.09,34.63,31.21,19.22,16.45,36.83,16.11,60.12,11.93,10.14-1.82,10.65,15.39,19.65,10.22,5.25-3.01-9.32,7.93-4.93,7.15-72.92,13.05-117.09-72.28-149.79-138.75-22.78-46.3-23.68-100.12-38.87-149.44-21.13-68.59-71.31-127.7-135.55-159.69l15.68,180.6c-40-19.94-73.05-53.5-92.37-93.79,52.47,16.6,96.6,57.76,116.81,108.96-2.39-47.88-13.72-95.31-33.25-139.1,36.58-4.26,64.83,47.14,41.62,75.73l75.31,14.92c-14.35,14.78-31.06,27.26-49.31,36.82,18.37,10.58,39.15,16.96,60.3,18.49l-52.88,14.1c23.9,13.04,51.52,19.19,78.7,17.52l-39.36,36.9c14.33,2.94,41.93,6.79,56.26,9.72-9.72,10.48-32.72,20.05-42.44,30.53,71.42,13.24,109.42,156,178.78,134.41,3.86-50.87-66.15-76.49-85.79-123.57C344.62,262.43,265.06,71.2,152.59,4c140.74,17.41,275.48,80.38,379.12,177.18-22.84-26.37-73.84-13.95-83.27,19.63-9.43,33.58,25.49,70.38,59.8,64.07,34.31-6.31,54.23-51.1,37.19-81.54-17.04-30.44-63.84-37.66-90.27-14.9-27.01,23.26-26.4,71.31,1.2,93.87,27.6,22.56,74.81,13.62,92.24-17.47,17.43-31.09.44-76.04-33.21-87.81,173.01,34.9,309.96,162.07,462.08,251.57,83.74,49.27,138.12,150.45,217.83,206.02,184.14,128.38,277.92,276.49,281.36,500.94,3.44,224.45-47.81,456.9-227.93,590.87,69.65-58.59,140.29-118.76,188.22-196.13,107.81-174.03,81.38-398.44,146.09-592.66,6.44-19.34,14.32-39.16,29.55-52.7,24.19-21.51,68.92-34.38,62.8-66.16-160.44-53.94-303.88-38.65-397.09-119.4,72.37,77.95,216.29,132.71,309.75,183.49-47.01,10.09-99.22-19.87-114.23-65.55-.56,39.81,19.61,79.35,52.17,102.26,10.98,7.72,23.67,14.09,30.7,25.52,7.03,11.43,4.28,30.16-8.73,33.46-30.14-2.44-116.19-3.33-113.69-33.46,88.5,230.74,85.98,483.05-92.98,653.48-28.1,26.76-58.95,51.25-81.34,82.93-22.39,31.69-35.4,73.11-22.52,109.7,11.8,33.52,44.27,63.03,36.52,97.7-57.77-72.26-115.54-144.51-173.31-216.77-64.14-80.22-130.24-164.52-150.97-265.12,58.07,22.83,77.59,92.86,100.45,150.92,22.64,57.5,55.49,110.96,96.56,157.14-19-77.21-54.04-150.44-102.26-213.67,54.46,15.08,85.7,71.51,104.97,124.63,19.27,53.12,34.79,111.56,77.78,148.23-12.76-55.04-34.81-107.91-64.93-155.7,47.93,15.41,72.34,69.1,80.05,118.85,7.72,49.75,4.8,102.01,23.84,148.62-61.78-2.79-90.96-83.89-149.84-102.78-41.38-13.28-86.96,8.62-116.81,40.2-29.85,31.58-48.47,71.82-72,108.35-49.32,76.56-122.12,137.68-205.82,173.5-15.27,6.53-32.55-3.42-34.76-19.89l-5.73-42.81c46.94,11.29,92.1-25.64,118.55-66.02,26.46-40.38,44.47-87.92,81.74-118.6-54.28,71.41-107.49,168.97-201.26,175.82l-3.37-70.65c59.05,3.85,117.61-39.96,130.58-97.7-32.69,45.24-80.61,79.27-134.1,95.22-3.55-25.44,68-111.08,80.74-133.38,90.15-25.3,113.87,8.45,204.02-16.85-156.38,24.55-266.85-38.6-403.17,41.87-68.57,40.48-179.69,183.17-252.14,216.18-90.69,41.32-192.84,47.67-292.34,53.39l195.21-94.69-175.65,66.74c.57-49.94,20.55-99.4,54.84-135.72,41.22-43.66,99.28-66.47,155.34-87.96,59.31-22.74,118.61-45.48,177.92-68.22-57.14-4.06-111.53,26.76-153.59,65.65-42.05,38.89-75.42,86.27-116.23,126.46-7.59,7.48-16.4,15.12-27.04,15.62-28.89,1.33-31.81-43.56-17.01-68.42,69.56-116.85,252.33-115.08,332.92-224.62-62.39-23.42-128.17,22.78-175.18,70.01-47.01,47.23-98.67,102.57-165.3,101.79,21.24-48.33,74.1-76.44,97.36-123.84,26.88-54.79,7.99-119.96-11.25-177.88,92.92,44.13,206.59,41.71,297.55-6.35-40.23-22.5-88.49,5.99-128.36,29.13-39.87,23.14-99.26,37.59-125.17-.54-9.64-14.19-11.34-32.14-12.74-49.24-5.58-67.99-11.15-135.97-16.73-203.96,49.02,21.64,32.59,105.74,77.35,135.19,13.26,8.72,29.71,10.82,45.55,11.77,55.78,3.34,112.22-4.82,164.77-23.84-66.22-18.62-137.33-8.24-204.87-21.3-67.54-13.06-138.32-64.97-132.56-133.52,29.41.72,58.59,9.34,83.67,24.73l-62.61-12.19c23.75,57.55,77.42,101.76,138.45,114.05-37.85-31.17-76.24-62.93-103.71-103.55-27.47-40.61-42.98-92.05-30.06-139.35,92.17-1.47,173.31,58.47,240.66,121.4,67.35,62.93,132.5,134.01,219.48,164.55,86.97,30.54,203.87,1.07,232.3-86.62-69.45,98.43-147.21,191-232.18,276.39,36.65,38,105.11,22.34,139.45-17.76,34.35-40.09,43.7-95.22,51.75-147.4,26.55,50.72,10.09,119.84-36.47,153.15-22.21,15.89-53.15,29.09-55.09,56.33,24.93,1.46,49.86,2.92,74.78,4.38,12.17.71,26.03.8,34.42-8.04,6.77-7.13,7.71-17.84,8.27-27.66,3.02-52.46,6.04-104.91,9.06-157.37,25.07,47.96,24.44,108.44-1.61,155.87l-20.3,12.24c6.13,18.72,35.21,19.21,48.9,5.04,13.69-14.16,16.05-35.48,17.67-55.11,4.1-49.43,8.2-98.87,12.3-148.3-22.02,3.63-43.27-13.28-52.19-33.74-8.92-20.46-8.4-43.62-7.73-65.92,20.04,12.98,46.91,14.61,68.38,4.17-44.04,9.52-83.34-27-113.88-60.12-117.45-127.33-239.13-250.76-364.78-370.02-29.5,40.06-86.44,57.34-133.23,40.43,22.78,2.01,35.02-25.25,42.84-46.74,7.82-21.48,28.97-46.11,48.79-34.71,19.29,31.11-20.38,65.05-54.03,79.46-48.43,20.75-97.77,39.36-147.83,55.78,82.12-37.61,144.39-115.86,162.59-204.33-59.87,30.32-110.32,78.94-142.84,137.64-5.27,9.51-10.72,19.92-20.51,24.64-7.53,3.63-16.39,3.19-24.58,1.53-29.45-5.97-55.26-27.54-66.36-55.46,93.71-38.62,153.25-129.68,206.95-215.64,15.2,106.25,77.46,204.89,166.84,264.31-117.2-110.44-126.92-308.7-257.67-402.7"/><path class="cls-4" d="M499.7,202.86c-4.28-1-8.83-2-13-.62-5.15,1.7-8.62,6.79-9.73,12.09-1.11,5.3-.24,10.81.97,16.09,1.42,6.2,3.9,13.03,9.73,15.59,3.57,1.57,7.79,1.14,11.34-.44s6.55-4.23,9.21-7.07c4.5-4.79,8.34-10.46,9.68-16.89,1.35-6.43-.17-13.72-4.99-18.18-1.77-1.64-3.9-2.84-6.13-3.76-2.97-1.23-6.21-1.99-9.41-1.67-3.41.34-6.57,1.87-9.65,3.38-2.92,1.43-6.28,3.53-6.25,6.78"/><path class="cls-5" d="M649.2,401.16c-14.97-1.72-28.54,10.8-33.52,25.03-4.97,14.22-3.51,29.77-2.5,44.8,2.27,33.95-.45,73.1-27.29,94.02-27.25,21.24-66.4,13.76-99.47,3.76-36.78-11.12-74.44-24.98-101.07-52.68-24.12-25.08-41.58-62.55-75.94-68.05,25.47,30.82,56.05,56.94,86.46,82.9,22,18.78,44.01,37.56,66.01,56.34,26.32,22.47,53.89,45.6,87.39,54.28,21.17,5.49,43.39,4.81,65.24,3.85,20.46-.9,41.52-2.17,60.02-10.95,18.11-8.6,32.31-23.78,43.97-40.08,24.61-34.39,39.96-76.25,38.46-118.52-1.5-42.27-21.06-84.54-55.27-109.4,43.06,33.29,69.85,86.71,70.78,141.13.2,11.84-.79,23.88-5,34.95-6.07,15.99-18.4,28.84-31.86,39.39-33.74,26.44-75.29,40.64-116.39,52.82-36.59,10.85-73.55,20.49-110.78,28.9-8.88,2-18.23,3.93-26.96,1.33-8.2-2.44-14.72-8.55-20.85-14.53-25.03-24.42-49.02-49.9-71.89-76.34,9.99,17.72,19.97,35.44,29.96,53.15-39.74,4.1-84.95,6.48-114.14-20.8-8.33-7.78-14.63-17.48-20.12-27.47-13.94-25.4-23.05-53.17-36.18-79-13.13-25.83-31.35-50.54-57.42-63.18,18.49,37.76,36.89,75.57,55.2,113.42,1.87,3.86,3.73,8.51,1.59,12.24-1.62,2.82-5.01,4.05-8.17,4.82-12.99,3.15-26.97,2.1-39.34-2.98,12.59,27.45,28.36,53.43,46.9,77.27-26.11.22-48.34-18.48-65.82-37.87-36.2-40.15-63.65-88.15-79.93-139.7-8.67-27.46-14.21-55.93-24.59-82.79-8.2-21.21-19.49-41.78-21.59-64.43-2.01-21.63,4.59-43.03,11.12-63.76,35.73,2.3,63.53,30.87,86.67,58.2,23.13,27.33,48.38,57.22,83.55,63.94-28.73,1.8-54.69-16.48-75.71-36.15-21.01-19.67-40.8-42.25-67.6-52.76-9.36,33.16-11.42,68.35-6,102.37-14.45,1.6-30.97,2.55-41.48-7.49-8.17-7.81-10.08-19.94-11.53-31.15C24.41,275.2,14.7,200.41,4.98,125.62c-.85-6.57-1.7-13.33-.02-19.74,1.48-5.67,4.85-10.67,8.72-15.07,9.02-10.25,21.57-17.92,35.19-18.88,13.62-.96,28.07,5.72,34.3,17.87,7.08,13.8,2.66,30.32,1.28,45.76-1.38,15.44,3.29,34.62,18.28,38.58,2.9-1.1,5.65-2.37,8.25-3.81"/><path class="cls-3" d="M313.3,755.09c7.2-9.18,14.4-18.35,21.6-27.53,24.04,9.8,25.67,42.52,24.84,68.47-2.58,79.96,9.25,160.37,34.76,236.2-89.61,18.33-185.96,1.31-263.87-46.62,2.31-49.13,37.38-90.35,74.64-122.45,37.26-32.11,79.49-60.45,105.42-102.25,14.03,4.64,21.85,19.32,27.19,33.09,14.61,37.66,21.38,78.46,40.68,113.94,19.3,35.48,56.69,65.92,96.62,59.88,29.93-4.52,53.01-27.73,79.46-42.44,19.34-10.75,40.92-17.11,59.97-28.38,42.7-25.27,68.01-72.73,79.9-120.89,1.97-7.98,4.55-17.19,12.13-20.37,6.22-2.61,13.29.03,19.43,2.81,112.41,50.78,194.71,149.81,295.71,220.62,47.72,33.45,100.06,60.9,142.8,100.52,18.96,17.58,36.48,38.7,41.2,64.12.66,3.53,1,7.39-.75,10.52-3.5,6.25-12.49,5.83-19.54,4.56-55.19-9.95-110.39-19.9-165.58-29.85-14.45-2.61-29.37-5.4-41.55-13.6-8.97-6.04-15.85-14.64-22.58-23.09-28.64-35.97-57.29-71.93-85.93-107.9,26.14-7.3,53.23,6.35,76.1,20.97,51.84,33.14,98.94,73.69,139.41,120.03-72.06,18.88-147.61-5.51-218.09-29.64-12.71-4.35-25.69-8.85-36.27-17.14-13.06-10.25-21.24-25.32-29.07-39.96-21.71-40.6-43.42-81.2-65.13-121.8,75.99,17.03,127.97,85.07,173.2,148.47,6.15,8.62,11.57,22.29,2.75,28.15-3.27,2.18-7.48,2.22-11.41,2.08-86.81-3-169.54-59.57-203.83-139.38-10.84-25.23-20.05-55.58-45.54-65.79-7.61-3.05-17.88-5.98-18.22-14.17-.17-4.02,2.43-7.57,4.91-10.74,18.13-23.19,36.37-46.3,54.74-69.3,4.72-5.92,9.88-12.13,17.1-14.4,7.68-2.42,15.95.17,23.54,2.83,141.04,49.57,268.85,136.27,367.04,249,30.94,35.52,59.33,74.19,75.89,118.29,2.98,7.94,5.61,16.41,4.27,24.79-1.35,8.45-6.53,15.7-9.98,23.53-15.35,34.78,4.6,74.03,22.48,107.58,27.11,50.85,50.91,104.76,56.97,162.07,6.06,57.31-7.74,118.93-47.57,160.58,5.89,11.67,11.77,23.34,17.66,35.01"/><path class="cls-1" d="M734.4,414.53c28.62,44.57,38.6,100.72,27.08,152.42-11.52,51.7-44.39,98.3-89.23,126.5-7.11,4.47-14.65,8.62-20.14,14.98-5.49,6.36-8.54,15.68-5.02,23.31,2.64,5.72,8.32,9.36,13.88,12.31,12.19,6.46,25.31,11.18,38.82,13.98-10.57-10.53-17.68-24.49-19.96-39.24,8.4-1.76,16.9-2.58,24-7.07-.71-3.89-3.18-5.4-6.69-6.86-28.84-12-58.64-24.19-89.88-24.13-11.3.02-23.65,1.39-32.89-5.11-5.1-3.59-8.47-9.12-13.06-13.33-4.6-4.21-11.67-7.02-17-3.78"/></g></svg>