<?xml version="1.0" encoding="UTF-8"?><svg id="Layer_2" xmlns="http://www.w3.org/2000/svg" xmlns:xlink="http://www.w3.org/1999/xlink" viewBox="0 0 2657.05 2254.89"><defs><style>.cls-1{stroke:url(#linear-gradient);}.cls-1,.cls-2,.cls-3,.cls-4{fill:none;stroke-linecap:round;stroke-linejoin:round;stroke-width:8px;}.cls-2{stroke:url(#linear-gradient-2);}.cls-3{stroke:#ee3236;}.cls-4{stroke:#fff;}</style><linearGradient id="linear-gradient" x1="736.71" y1="1338.66" x2="2490.52" y2="1338.66" gradientUnits="userSpaceOnUse"><stop offset="0" stop-color="#fff"/><stop offset="1" stop-color="#ed2024"/></linearGradient><linearGradient id="linear-gradient-2" x1="1096.55" y1="1248.33" x2="1971.96" y2="1248.33" xlink:href="#linear-gradient"/></defs><g id="graphics"><path class="cls-4" d="M488.64,407.61c5.57,3.41,11.14,6.82,16.72,10.23-23.6,35.62-47.2,71.24-70.8,106.86,10.83,13.52,32.99,7.01,46.43-3.94,13.43-10.94,25.87-25.92,43.15-27.19-11.93-7.37-21.34-18.74-26.35-31.83,18.19,5.15,35.48,13.49,50.83,24.53,10.76,7.74,21.57,20.63,16.42,32.85-2.49,5.9-8.13,9.75-13.48,13.26-10.47,6.87-20.94,13.74-31.42,20.61-2.06,1.35-4.27,2.75-6.73,2.83-8.34.25-9.29-12.1-7.14-20.16,2.67-10.03,8.25-22.32,18.61-21.75,8.26.45,13.55,10.01,12.57,18.23-.98,8.22-6.27,15.19-11.36,21.71-7.2,4.76-18.44.98-21.29-7.17.84-14.24,20.32-23.29,31.74-14.74,8.33,48.41,16.64,98.27,6.21,146.27-10.65,49.02-40.39,93.48-43.43,143.55-8.99,1.88-17.71-5.21-21.73-13.47-4.02-8.26-4.82-17.67-7.38-26.49-8.1-27.86-32.64-47.23-49.28-70.99-39.14-55.86-28.2-140.84,23.81-184.98,9.56,10.4,27.21,2.68,36.81-7.69,9.6-10.37,18.53-23.98,32.6-25.39,16.14-1.62,29.1,15.14,30.45,31.3,1.35,16.17-5.21,31.77-9.91,47.3-15.15,50.11-11.33,103.64-13.09,155.96-1.76,52.32-10.77,107.86-45.73,146.84-3.9,4.35-8.33,8.59-13.91,10.31-17.41,5.36-31.03-14.95-37.94-31.8-3.41-8.3-6.81-16.59-10.22-24.89-1.29-3.13-2.6-6.45-2.11-9.8.42-2.92,2.15-5.47,3.84-7.89,8.71-12.54,17.43-25.07,26.14-37.61,15.01,2.55,14.15,26.71,2.07,35.98-12.08,9.27-28.57,9.69-42.84,15-9.12,3.39-17.61,8.9-27.26,10.2-23.62,3.18-42.22-18.83-55.76-38.45-5.61,10.63-6.76,23.52-3.12,34.97,13.88,1.25,27.53,4.99,40.1,11-1.81,19.14-19.23,35.55-38.44,36.22s-37.73-14.5-40.86-33.47c-4.36-26.44,17.71-50.04,20.98-76.64,4.75-6.96,15.12,1.61,17.82,9.6,2.7,7.99,8.82,18.61,16.38,14.87,4.3-2.12,5.16-7.71,7.02-12.13,7.17-16.99,31.29-17.95,48.66-11.74,17.37,6.21,34.72,16.89,52.84,13.46,14.24,23.85-27.13,51.43-17.79,77.59,3.44,9.65,13.64,18.66,9.56,28.06-2.17,5-7.7,7.53-12.85,9.32-37.1,12.86-79.48,9.56-114.14-8.89,44.1,27.62,106.38,21.87,144.67-13.36,1.25,17.11-.22,34.41-4.34,51.06-7.16-15.51-12.08-32.06-14.56-48.96,9.73,12.81-5.06,34.7-20.57,30.44-2.5,5.37-5.06,11.3-3.58,17.04"/><path class="cls-4" d="M252.68,386.35c-12.96,16.85-22.56,20.63-43.65,17.99-13.52-1.69-24.41-11.35-35.57-19.15-46.44-32.46-111.71-35.46-160.93-7.41-2.93,1.67-5.95,3.59-7.48,6.6-3.53,6.96,2.53,14.72,7.84,20.44,22.22,23.9,39.01,52.63,62.72,75.04,23.72,22.41,58.02,38.13,88.9,27.6,21.23-7.24,43.03-26.13,62.87-15.68-22.42-5.82-33.3-30.88-39.14-53.3-5.84-22.41-11.38-47.68-30.71-60.44,23.58,5.87,43.59,24.47,51.14,47.57,7.52,22.99,9.11,55.77,32.97,59.72-9.45-14.9-6.05-35.16,3.6-49.93,9.65-14.76,24.47-25.23,38.92-35.34,6.95,18.97-5.61,39.26-19.05,54.33-13.44,15.08-29.34,30.73-30.51,50.9-.2,3.36.15,7.01,2.37,9.54,3.56,4.06,9.89,3.37,15.28,3.18,20.54-.72,40.91,12.12,49.11,30.97-7.25,4.98-17.99,4.04-24.25-2.14-6.74,15.76-35.62,9.85-36.69-7.26-1.07-17.1,24.54-27.59,36.62-15.43,12.08,12.16,3.47,36.57-13.37,39.73,3.06,59.98,6.12,119.96,9.18,179.94.86,16.95,6.82,39.15,23.79,39.3,20.2-45.16,35.85-92.36,46.65-140.64,9.48-42.37,15.03-87.68.03-128.43-8.63-23.44-23.64-44.1-32.48-67.47-3.14-8.3-9.86-35.19-11.22-43.99"/><path class="cls-4" d="M404.37,915.12c-7,16.63.1,36.23,11.59,50.14,11.49,13.91,26.9,23.95,40.13,36.2,54.62,50.57,66.31,131.27,73.85,205.32,7.54,74.06,16.98,154.47,69.11,207.62,43.81,44.67,142.76,50.98,205.19,55.19,19.86,1.34,94.17-27.72,111.49-37.53,28.94-16.39-8.57-17.66-5.52-50.78,3.37-36.59-36.99-71-39.3-107.67-74.39-1.82-148.08-25.99-209.09-68.59-9.97-6.96-19.98-14.85-25.04-25.91-5.8-12.68-4.25-27.67-9.46-40.6-5.21-12.93-23.89-22.35-32.62-11.49,9.5,9.81.31,26.98-11.96,32.97-12.27,5.99-26.88,6.3-38.63,13.26-27.68,16.4-24.27,57.44-13.38,87.71,33.39,92.74,104.77,171.16,193.98,213.09,15.65,7.35,32.37,14.04,43.8,27,12.01,13.63,16.39,32.19,19.97,50,16.34,81.35,24.53,164.82,51.69,243.23,18.06,52.14,44.78,106.24,31.59,159.81,19.6-118.77,23.08-240.18,10.33-359.88,34.15,6.53,59.15,37.99,68.49,71.48,9.34,33.49,6.02,69.04,2.63,103.64-.91,9.22-2.24,19.33-9.08,25.58-9.43,8.6-25.48,5.23-34.37-3.92s-12.29-22.21-14.74-34.73c-30.24-154.82,32.72-324-30.06-468.71-9.01-20.76-19.94-46.61-5.39-63.95,5.01-5.97,12.31-9.59,17.7-15.21,23.48-24.47,2.23-73.81,29.32-94.21,19.58,4.37,39.84,9.06,55.78,21.23,15.94,12.17,26.32,34.09,18.91,52.73-12.27-5.37-28.25.32-34.36,12.23-8.28,16.13,1.6,35.69,13.69,49.2,12.09,13.51,27.25,25.8,31.85,43.34,4.6,17.54-10.32,40.67-27.51,34.88-12.94,26.1,14.57,61.54,43.07,55.47l5.77-26.03c8.98-6.28,20.02,6.41,20.44,17.36.41,10.95-3.3,23.02,2.68,32.2,3.42,5.24,9.31,8.23,13.93,12.45,24.56,22.45,4.09,63.37,10.42,96.04-6.55-79.08,14.96-160.2,59.84-225.65,11.38-16.59,24.91-35.16,20.52-54.8-2.71-12.16-11.84-21.64-19.01-31.83-20.44-29.04-25.73-68.16-13.73-101.58,6.27-17.46,16.99-33.76,18.33-52.26,1.34-18.5-12.81-40.1-31.08-36.87-9.96,30.57-19.91,61.15-29.87,91.72-5.68,17.44-23.28,38.97-37.42,27.28-6.14,29.5,16.79,61.74,46.67,65.63l-5.42-31.41c13-9.68,32.15,10.38,25.27,25.05-6.88,14.68-28.03,17.55-42.25,9.78-14.22-7.77-22.86-22.7-29.98-37.26-5.69-11.63-10.98-23.96-10.98-36.91,0-14.08,6.22-27.29,11.03-40.53,17.19-47.28,16.86-100.7-.89-147.76-4.91-13.03-11.67-26.22-23.42-33.68-25.61-16.28-70.98-4.67-80.14-33.59-3.35-10.59.86-22.26-1.43-33.13-7.31-34.8-66.05-29.78-82.43-61.34-7.03-13.54-3.92-29.81-2.08-44.95,5.05-41.46-40.7-69.6-62.22-42.56l-82.24,57.4c-32.1-48.16-38.63-28.15-49.67-44.71-2.85-4.28,1.34-61.84-3.31-64.02-44.71-20.97,2.21-54.09,15.45-71.75,11.15-14.87,75.43.73,71.33-17.39-4.1-18.12-4.48-37.49-13.1-53.95,38.7-19.58,64.78-61.88,64.9-105.25-65.88-11.68-133.61-12.9-199.86-3.6l49.08,9.85-100.2,53.62c28.96-3.68,55.65-22.19,69.23-48.03,6.88,33.51,3.49,69.05-9.6,100.65,33.12,12.95,71.77,4.38,101.63-14.92,29.87-19.3,52.28-48.1,71.94-77.73,4.21-6.34,8.43-13.03,9.41-20.58,2.58-19.8-19.06-35.82-39.03-35.51-19.96.31-37.86,11.55-54.96,21.87-21.28,12.84-43.87,25.05-68.59,27.58-24.72,2.53-46.99-2.37-59.26-23.98"/><path class="cls-1" d="M1052.38,1454.56c6.94-19.87,13.88-39.75,20.81-59.62,233.2,87.35,495.82,93.84,733.05,18.13,51.43-16.41,104.06-38.25,137.89-80.33,7.93-9.86,14.84-21.13,16.4-33.69,2.3-18.47-7.19-36.4-8.13-54.99-2.3-45.39,50.36-78.95,95.08-70.89,44.72,8.06,78.93,44.99,101.14,84.64,22.2,39.65,35.88,83.74,59.48,122.58,6.93,11.41,15,23.38,14.27,36.71-1.34,24.14-29.5,36.73-53.49,39.71-92.13,11.42-180.96-37.9-273.6-43.95-12.69-.83-30.17,3.87-28.97,16.53,47.52,12.66,93.47,31.22,136.47,55.1-12.55-18.56,16.47-40.48,38.26-35.28,21.79,5.19,38.85,23.01,60.56,28.53,32.54,8.27,67.15-12.8,99.76-4.8,34.9,8.56,53.37,45.96,65.83,79.66,80.65,218.11,98.45,474.59-21.12,674.04,36.98,8.92,75.04,17.9,112.69,12.51,37.65-5.39,75.31-28.6,86.26-65.02,2.53-8.4,3.56-17.39,1.79-25.98-2.02-9.79-7.5-18.47-11.01-27.83-10.1-26.97-3.16-56.85.33-85.43,10.93-89.54-13.51-179.03-27.9-268.07-14.39-89.05-17.11-186.59,31.47-262.59-18.68-25.21-28.12-81.71-30.46-113,48.44,36.19,49.04,134.48,33.2,192.84-15.85,58.35-37.57,116.49-37.61,176.95.21-273.55,34.31-540.96,57.21-813.55,2.57-30.56-26.52-73.62-47.88-95.62-9.56-9.85-23.17-16.41-28.8-28.93-5.59-12.45-1.52-26.94,3.22-39.74,13.7-37.05,32.53-72.2,55.77-104.14,25.21,13.47,31.09,46.49,32.81,75.02,9.07,149.72,1.95,302.72-56.89,440.69,41.46-138.35,40.91-283.62,59.33-426.87,9.36-72.74,16.43-154.37-29.07-211.89-22.25-28.12-54.48-46.47-87.09-61.39-168.08-76.89-369.37-77.39-537.83-1.33-9.71,4.38-19.78,9.4-25.71,18.25-3.87,5.77-5.85,13-11.21,17.42-10.6,8.73-26.13,1.49-38.78-3.85-57.22-24.16-122.33-1.14-180.04,21.82-8.33,3.32-17.29,7.15-21.73,14.95-8.6,15.1,5.54,33.86,21.44,40.86,15.9,7,34.42,8.19,48.61,18.22,34.67,24.51,21.41,81.23,45.87,115.93,12.67,17.96,33.98,27.76,48.97,43.83,28.41,30.46,29.21,76.58,42.42,116.09,13.21,39.51,57.26,78.03,92.74,56.19,14.37-61.46,28.75-122.93,43.12-184.39,1.54-6.57,3.24-13.45,7.82-18.4,8.86-9.58,24-8.03,37.05-7.87,55.42.66,108.12-42.7,118.15-97.21,1.41-7.66,1.8-16.38-3.19-22.36-6.69-8.03-19.25-7.05-28.56-11.8-23.12-11.8-14.09-46.24-19.26-71.68-6.45-31.75-40.63-52.34-73.03-51.89s-62.38,17.54-87.24,38.3c16.31,8.34,32.61,16.69,48.92,25.03-29.85,37.67-81.63,48.3-129,56.42-20.83,3.57-45.28,6.08-60.21-8.88-18-18.05-8.69-50.92,11.33-66.71,20.02-15.79,46.54-19.73,71.41-25.35,24.87-5.62,51.35-14.98,64.74-36.68-109.29,37.45-227.12,39.2-342.64,40.58-29.65.35-59.31.71-88.96,1.06-47.97.57-102.89-1.93-133.18-39.13,192.59-10.42,386.24-1.27,576.99,27.27-129.12,26.89-263.92,56.45-365.23,140.89,43.47.59,84.6,32.77,95.62,74.83,11.02,42.06-9.04,90.28-46.63,112.11-28.44-9.21-57.56-18.77-80.99-37.33-23.44-18.56-40.38-48.32-35.33-77.79,5.04-29.47,38.04-53.52,65.77-42.36,11.38-11.23,12.33-31.35,2.06-43.6-10.27-12.25-30.25-14.83-43.29-5.58-34.34,29.13-68.69,58.26-103.03,87.39-5.1,4.33-10.46,9.05-12.21,15.51-5.38,19.9,22.99,28.9,41.24,38.48,31.08,16.31,41.41,62.32,20.28,90.34-21.13,28.03-68.2,30.76-92.44,5.37-37.21-38.99-10.51-107.73-38.01-154.08-22.54-38-79.31-57.9-78.7-102.09.21-15.01,7.71-28.83,11.62-43.32,4.55-16.87,4.41-35.3,12.9-50.58,8.48-15.28,31.27-24.76,43.37-12.15,18.58,25.5-4.27,73.7,24.39,86.92,7.72,3.56,16.67,2.57,25.11,1.5,36.82-4.66,73.63-9.32,110.45-13.99,7.2,18.32,14.52,37.42,13.01,57.05-1.52,19.62-14.7,39.84-34.2,42.57-16.22,2.27-31.38-7.6-44.78-17.01-37.67-26.46-79.9-73.15-54.31-111.41,13.35-19.96,39.61-25.75,63.27-29.9,51.52-9.05,103.04-18.1,154.56-27.15-78.7-12.38-157.47,17.06-236.92,23.08-181.4,13.73-366.27-94.32-539.31-38.17,194.52-7.67,390.45-15.27,582.91,13.97,63.94,9.72,127.68,23.51,192.35,23.72,109.26.35,219.5-38,326.05-13.79"/><path class="cls-3" d="M1992.56,1435.38c24.35,13.97,41.71,37.52,55.47,61.98,36.47,64.84,52.23,140.11,51.97,214.51-.26,74.4-16.02,148.1-39.37,218.74-18.9,57.19-43.2,113.4-80.15,160.97-10.99,14.15-23.11,27.56-31.94,43.14-8.83,15.58-14.21,34.02-10.28,51.5,34.86,8.69,71.25,11.2,106.97,7.38,5.4-.58,10.96-1.36,15.62-4.14,6.85-4.1,10.58-11.72,15-18.36,9.68-14.52,24.32-25.66,40.89-31.11,4.21-1.39,8.72-2.51,12-5.5,3.12-2.84,4.69-6.97,6.09-10.95,25.87-73.86,28.79-153.42,40.01-230.87,16.57-114.32,51.61-225.42,96.59-331.81-3.46-1.94-6.92-3.87-10.39-5.81"/><path class="cls-4" d="M862.88,1951.16c-3,47.96-18.78,95.06-45.28,135.15-27.4,41.46-66.51,76.58-81.4,123.99-4.24,13.5-4.58,31.58,7.95,38.17,5.74,3.02,12.6,2.57,19.07,2.05,37.36-3.03,74.73-6.07,112.09-9.1,11-.89,22.43-1.92,31.94-7.51,7.19-4.23,12.69-10.73,18.33-16.87,19.08-20.75,41.34-38.56,65.76-52.63-10.52-79.23-3.57-159.62,3.39-239.24,2.4-27.44,4.8-54.88,7.2-82.32,5.24-59.95,10.55-120.27,26.2-178.38,3.52-13.06,7.56-25.99,10.16-39.26,3.11-15.85,4.13-32.03,6.21-48.05,3.32-25.61,9.3-50.8,15.28-75.93,4.94,27.09,5.81,54.92,2.57,82.26-2.21,18.61-6.3,36.93-10.39,55.22-10.44,46.75-21.04,93.96-41.63,137.22-8.98,18.87-19.91,37.16-24.32,57.58-1.83,8.47-2.55,17.32-6.27,25.13-10.25,21.51-37.86,26.86-61.53,29.55,3.29,12.8,19.36,22.44,15.64,35.12-2.44,8.3-12.11,11.72-20.47,13.93-15.86,4.19-31.72,8.39-47.58,12.58-.45-24.4,2.61-48.86,9.05-72.39,16.24-.27,32.53,3.64,46.88,11.25"/><path class="cls-4" d="M999.54,1880.14c1.93,60.8,12.22,121.34,30.48,179.37,1.67,5.3,3.36,11.25.82,16.19-1.48,2.89-4.2,4.92-6.76,6.92-18.47,14.36-25.05,22.62-36.56,42.98"/><path class="cls-3" d="M2477.76,669.3c1.78,156.52-13.36,313.06-6.79,469.45,6.57,156.39,36.61,316.13,120.61,448.21-30.55-20.49-49.56-53.96-65.62-87.06-57.9-119.31-91.79-250.22-99.05-382.65"/><path class="cls-3" d="M2611.56,1767.15c-3.1-51.26-6.21-102.51-9.31-153.77-.29-4.78-.59-9.6-1.82-14.23-4.05-15.22-17.29-25.93-29.78-35.54,26.81,9.89,55.77,21.54,69.86,46.4,17.02,30.04,6.01,67.85-8.13,99.35-2.99,6.67-6.14,13.32-10.35,19.3-5.17,7.33-11.88,13.55-16.46,21.26-5.65,9.53-7.67,20.71-9.6,31.62-1.11,6.27-2.14,13.06.78,18.72,1.88,3.65,5.2,6.33,8.6,8.64,13.92,9.43,30.91,14.24,47.71,13.5-12.25-.16-22.6-10.22-26.99-21.66-4.39-11.44-4.07-24.06-3.7-36.31.41-13.29.83-26.7,4.04-39.61,5.31-21.32,18.21-42.09,13.94-63.65-5.96-30.07-40.6-46.42-61.7-64.8,17.52,57.43,41.71,108.31,32.9,170.79Z"/><path class="cls-3" d="M2383.3,804.74c-6.78,37.43-16.72,79.55-49.7,98.51-15.38,8.84-33.7,11.13-49.7,18.81-37.78,18.13-54.94,61.15-76.69,96.97-12.61,20.78-27.7,40.05-44.83,57.29-16.46,16.56-40.65,32.13-61.68,21.99-14.92-7.19-21.54-24.46-26.83-40.15-13.17-39.11-26.35-78.22-39.52-117.34-4.73-14.06-9.5-28.28-10.74-43.06-2.45-29.4,9.2-57.97,21.22-84.91,14.89-33.39,30.68-66.38,47.37-98.91,8.49-16.55,17.41-33.27,30.7-46.29s31.79-21.99,50.22-19.51c15.84,2.13,29.29,12.11,43.15,20.06,40.54,23.23,88.05,30.18,134.1,38.09,21.59,3.71,46.64,10.5,54.45,30.96,6.06,15.87-1.15,33.56-9.66,48.26-8.5,14.7-18.75,29.59-19.12,46.57"/><path class="cls-2" d="M1100.55,1323.81c26.09-14.11,52.18-28.23,78.27-42.34,24.29-13.14,49.61-26.58,77.18-28.04,27.57-1.47,58.06,12.76,66.1,39.17,3,9.86,2.83,20.89,8.34,29.6,10.67,16.89,35.46,15.86,54.82,10.91,43.55-11.15,84.72-31.89,129.31-37.55,62.75-7.96,126.28,14.68,189.12,7.47,86.37-9.91,155.47-73.12,221.14-130.09,8.26-7.16,18.51-14.77,29.07-11.94,16.12,4.33,16.7,27.47,10.11,42.8-6.59,15.33-16.98,31.85-10.84,47.37"/><path class="cls-4" d="M562.13,188.9c.7,10.75,1.41,21.51,2.11,32.26,3.21,49.02,6.41,98.05,9.62,147.07.31,4.71.59,9.61-1.16,13.99-3.52,8.84-13.76,12.6-22.93,15.15-110.3,30.63-229.76,27.37-338.22-9.23,9.4-44.05,14.42-89.04,14.96-134.08.11-9.12-3.53-21.62-12.57-20.38-23.21,39.83-73.95,61.4-118.74,50.47-1.51-14.53-11.67-27.82-25.3-33.09,45.64,8.29,94.3-1.41,133.27-26.56-16.18,25.79-41.61,45.64-70.56,55.09,19.98,4.38,37.09-13.85,49.31-30.26,12.22-16.4,28.92-34.84,49.01-31.03-16.57,9.89-38.52,10.01-55.2.31-18.25-10.62-30.52-31.82-51.17-36.23,11.99-2.17,22.51,7.94,29.59,17.85,7.08,9.91,14.32,21.44,26.17,24.27-35.32,16-79.69,9.55-108.99-15.85,4.88,14.56,1.49,31.59-8.6,43.18,3.81.86,7.61,1.71,11.42,2.57-2.4-15.08-3.06-30.44-1.98-45.68.3-4.24.76-8.56,2.43-12.47,3.23-7.59,10.44-12.55,16.72-17.91,36.9-31.47,50.06-87.07,92.38-110.77,4.16-2.33,10.05-4.02,13.17-.41,1.55,1.79,1.8,4.32,2.03,6.67,5.92,60.09,42.9,111.96,78.62,160.64-2.59-5.69-5.18-11.38-7.77-17.08,12.03,4.92,22.08-12.94,35.06-13.57,7.48-.36,14.14,5.45,17.18,12.3,3.03,6.84,3.21,14.56,3.34,22.05-34.5-5.5-68.99-10.99-103.49-16.49,113.2,17.47,232.92,31.96,339.08-11.05-2.36-2.87-8.06-.66-7.88,3.05-3.15-8.28-.13-17.86,5.31-24.86,5.43-7,12.98-11.98,20.2-17.1,37.69-26.69,70.4-60.4,95.93-98.89,15.07,24.85,9.47,60.23-12.54,79.2-14.56,12.55-33.93,17.63-52.57,22.33,17.75-17.09,35.51-34.18,53.26-51.26,7.59-7.31,15.81-18.02,10.72-27.25-14.41-1.68-26.68,10.88-32.86,24.01-6.18,13.12-8.99,27.99-17.62,39.64-18.2,24.57-54.82,26.3-78.37,45.81,3.29,2.81,6.57,5.63,9.86,8.44-5.39,4.39-12.55,6.54-19.47,5.85-4.57-31.1,21.54-57.87,47.48-75.63,25.94-17.75,56.04-34.64,66.7-64.21,1.84-5.12,1.21-13.1-4.23-13.25-18.7,31.51-39.2,61.95-61.36,91.13-11.2,14.75-23.67,29.81-40.97,36.43,5.45-17.38,20.05-30.02,33.56-42.25,33.2-30.05,63.57-63.23,90.57-98.96-30.07-23.59-65.54-48.58-103.01-41.06,8.27,7.64,6.82,20.91,4.21,31.86-5.53,23.15-13.36,45.75-23.33,67.36-6.9-30.69-3.66-63.57,9.09-92.33,1.14-2.56,2.42-5.19,4.64-6.9,2.19-1.68,5.02-2.27,7.77-2.52,14.83-1.32,29.63,6.33,38.95,17.95,9.31,11.61,13.56,26.71,14.02,41.59.74,23.55-7.78,47.27-23.33,64.97-12.34,14.04-28.62,24.15-41.12,38.05-13.21,14.68-21.82,33.43-24.34,53.02-13.6-.15-27.23,1.49-40.4,4.88,8.65-9.03,4.45-23.8,7.02-36.04,1.47-7.02,5.27-13.3,9.26-19.26,13.75-20.53,31-40.18,35.16-64.54,1.79-10.49,1-21.22,1.07-31.87.16-24.37,4.95-48.71,14.04-71.32-19.81-3.57-40.59-1.62-59.39,5.57-3.12,1.2-6.33,2.63-8.4,5.26-3.73,4.75-2.56,11.52-1.64,17.49,10.56,68.9-38.57,133.25-43.29,202.8-3.42,2.13-7.52,3.13-11.53,2.82,9.1-8.02,12.33-22.02,7.65-33.21-15.47,4.29-30.94,8.58-46.4,12.87,11.73,8.45,25.69-10.52,40.13-10.04,3.44.12,7.11,1.34,10.17-.24,2.46-1.27,3.74-4.01,4.82-6.57,18.77-44.75,26.48-93.23,34.03-141.17,1.29-8.17,2.48-16.97-1.28-24.34s-14.68-11.47-20.51-5.61c-1.8,1.81-2.87,4.29-4.81,5.95-7.18,6.13-16.93-2.82-24.32-8.69-9.48-7.53-25.93-8.93-31.85,1.63-4.43-4.75-1.82-13.09,3.49-16.82s12.2-4.12,18.69-4.38c23.8-.97,47.6-1.94,71.4-2.92,9.11,19.18,38.18,24.82,53.8,10.43,1.28-1.18,2.55-2.67,2.44-4.41-.14-2.12-2.24-3.52-4.19-4.35-10.22-4.37-21.89-2.6-32.9-1.09-45.97,6.32-92.73,6.88-138.84,1.67.52,9.14,3.6,17.91,6.3,26.65,20.57,66.68,19.91,139.74-1.88,206.03-8.27-10.45-.69-25.57,6.9-36.52.38,6.01-7.06,9.66-13.03,8.89-5.97-.77-11.35-4.15-17.3-5.02-8.82-1.29-18.19,3.72-22.03,11.76,5.67-14.42,22.1-23.73,37.38-21.18,3.46.58,6.97,1.69,10.39.92,8.48-1.91,10.35-12.98,10.42-21.66.25-29.8.33-60.52-11.04-88.07-6.35-15.4-16.39-30.8-13.74-47.25-17.94-.27-35.92,3.84-51.96,11.88,8.48-19.75,44.78-20.18,45.68-41.65,4.71-3.38,9.41-6.77,14.12-10.15-34.7,10.93-70.47,18.47-106.63,22.49,4.19,1.88,8.39,3.77,12.58,5.65-1.13,4.66-7.06,7.42-11.36,5.3,15.74,54.77,31.49,109.54,47.23,164.32,2.38,8.26,5.48,17.44,13.19,21.25-13.68-16.25-15.27-39.03-19.14-59.91-6.39-34.54-20.45-67.12-34.4-99.36-5.09-11.77-10.19-23.53-15.28-35.3-.73-1.68-1.57-3.49-3.2-4.32-2.38-1.21-5.21.19-7.5,1.57-19.7,11.93-38.7,25.01-56.87,39.16,9.93,8.94,9.87,24.15,10.7,37.48,2.51,40.41,20.62,79.64,49.76,107.75-17.52,1.23-35.44-5.37-47.97-17.68,16.74,12.38,35.3,22.31,54.89,29.37-2.62-2.11-4.65-4.96-5.78-8.13,5.13,1.69,10.25,3.39,15.38,5.08-13.96,1.46-27.92,2.92-41.88,4.38-2.28.24-4.69.52-6.53,1.89-5.08,3.76-2.9,13.03-8.08,16.65,2.46-4.72,9.42-6.32,13.7-3.16,4.28,3.16,4.81,10.27,1.03,14.02"/><path class="cls-4" d="M570.93,237.1c-16.53-10.45-37.93-6.63-57.09-2.72-89.36,18.2-182.08,30.24-271.43,12-9.1-1.86-20.81-2.96-25.49,5.07-2.07,3.56-1.97,7.95-1.55,12.05,1.58,15.48,6.78,30.72,5.49,46.23-1.48,17.79-11.41,34.22-11.81,52.06-.04,1.82.04,3.73.94,5.32,1.09,1.94,3.18,3.05,5.17,4.03,38.63,18.91,83.07,23.36,125.94,19.76,42.86-3.6,84.67-14.85,126.2-26.06,18.84-5.08,37.75-10.19,55.69-17.85,11.39-4.86,22.6-10.93,30.8-20.21,8.2-9.28,12.99-22.29,9.92-34.28-1.79-7-6.02-13.07-9.17-19.58-3.88-8.02-6.13-16.83-6.59-25.73-11.56,26.99-8.03,57.94-1.76,86.62,2.3,10.51,4.94,21.38,2.6,31.88-2.23,10.02-8.76,18.5-15.59,26.18-4.6,5.18-9.57,10.27-15.83,13.23-11.18,5.28-24.25,2.9-36.57,1.82-42.37-3.69-84.76,9.59-127.2,6.81-38.68-2.53-75.12-18.19-110.67-33.63-5.29-2.3-10.85-4.8-14.21-9.5-3.72-5.2-4-12.03-4.14-18.42-.48-21.29-.95-42.58-1.43-63.87-.41-18.22.42-39.23,14.72-50.53,12.31-9.73,29.84-8.23,45.27-5.39"/></g></svg>