<?xml version="1.0" encoding="UTF-8"?><svg id="Layer_2" xmlns="http://www.w3.org/2000/svg" xmlns:xlink="http://www.w3.org/1999/xlink" viewBox="0 0 1593.32 1336.23"><defs><style>.cls-1{stroke:url(#linear-gradient-5);}.cls-1,.cls-2,.cls-3,.cls-4,.cls-5,.cls-6,.cls-7,.cls-8,.cls-9,.cls-10,.cls-11{fill:none;stroke-linecap:round;stroke-linejoin:round;stroke-width:8px;}.cls-2{stroke:url(#linear-gradient);}.cls-3{stroke:url(#linear-gradient-4);}.cls-4{stroke:url(#linear-gradient-2);}.cls-5{stroke:url(#linear-gradient-3);}.cls-6{stroke:url(#linear-gradient-7);}.cls-7{stroke:url(#linear-gradient-10);}.cls-8{stroke:url(#linear-gradient-9);}.cls-9{stroke:url(#linear-gradient-11);}.cls-10{stroke:url(#linear-gradient-6);}.cls-11{stroke:url(#linear-gradient-8);}</style><linearGradient id="linear-gradient" x1="883.55" y1="1081.03" x2="753.42" y2="1306.41" gradientUnits="userSpaceOnUse"><stop offset="0" stop-color="#fff"/><stop offset="1" stop-color="#ed2024"/></linearGradient><linearGradient id="linear-gradient-2" x1="1471.46" y1="265.11" x2="1070.43" y2="959.72" xlink:href="#linear-gradient"/><linearGradient id="linear-gradient-3" x1="628.59" y1="951.39" x2="576.94" y2="1040.86" xlink:href="#linear-gradient"/><linearGradient id="linear-gradient-4" x1="761.91" y1="567.38" x2="690.31" y2="691.4" xlink:href="#linear-gradient"/><linearGradient id="linear-gradient-5" x1="839.07" y1="655.79" x2="710.8" y2="877.95" xlink:href="#linear-gradient"/><linearGradient id="linear-gradient-6" x1="939.68" y1="752.98" x2="534" y2="1455.63" xlink:href="#linear-gradient"/><linearGradient id="linear-gradient-7" x1="665.65" y1="499.36" x2="450.74" y2="871.58" xlink:href="#linear-gradient"/><linearGradient id="linear-gradient-8" x1="431.73" y1="59.27" x2="242.8" y2="386.51" xlink:href="#linear-gradient"/><linearGradient id="linear-gradient-9" x1="399.12" y1="452.56" x2="182.74" y2="827.34" xlink:href="#linear-gradient"/><linearGradient id="linear-gradient-10" x1="565.07" y1="775.21" x2="471.48" y2="937.3" xlink:href="#linear-gradient"/><linearGradient id="linear-gradient-11" x1="464.09" y1="386.93" x2="310.72" y2="652.58" xlink:href="#linear-gradient"/></defs><g id="graphics"><path class="cls-2" d="M1008.51,1157.79c-23.01,12.07-51.55,7.02-75.04-4.05-23.5-11.08-44.03-27.62-67.14-39.48-23.11-11.86-50.88-18.81-74.98-9.11-15.95,6.42-28.29,19.27-40.1,31.76-5.76,6.09-11.65,12.37-14.86,20.11-6.99,16.83.05,36.66-5.44,54.04-.97,3.06-2.46,6.17-5.17,7.88-2.96,1.87-6.73,1.7-10.22,1.35-15.16-1.54-30.1-5.32-45.33-5.56-15.23-.25-31.48,3.67-41.74,14.92"/><path class="cls-4" d="M921.45,783.49c-17.29,9.86-42.53-.04-48.52-19.02,24.93,6.07,51.26,6.34,76.31.77-11.23-8.81-20.26-20.4-26.06-33.44,92.1-12.9,185.37-17.35,278.28-13.3-54.77-6.88-109.53-13.75-164.3-20.63,7.92-15.1,25.83-24.28,42.71-21.9-10.6-1.54-19.51-11.02-20.39-21.7,63.98-15.82,133.34-8.92,192.95,19.2-39.75-10.06-79.5-20.13-119.25-30.19-7.77-1.97-16.17-4.33-20.97-10.76-8.54-11.42.35-29.05,13.5-34.57,13.15-5.52,28.13-2.67,42.09.27,14.86-20.7,44.28-26.46,69.06-20.5,24.78,5.97,46.07,21.34,66.64,36.38-54.66-14.7-106.2-40.88-150.3-76.36-5.58-25.01,26.37-45.35,51.03-38.39,24.66,6.96,40.84,30.2,52.76,52.88,11.92,22.68,22.53,47.46,43,62.87-31.49-24.96-47.51-68.01-39.98-107.48,7.53-39.47,38.26-73.61,76.73-85.23-2.62,60.68,15.99,122.06,51.85,171.08-18.53-37.72-37.42-76.75-39.63-118.71-2.22-41.96,16.6-88.01,55.11-104.85,5.98,65.73,9.3,131.7,9.95,197.7,22.06-43.24,16.04-94.63,17.51-143.15,1.47-48.52,16.19-103.81,60.19-124.32.49,90.58.98,181.17,1.47,271.75,7.24-87.06,19.14-183.63,85.76-240.14,8.88,50.87-2.31,104.96-30.63,148.13,8.32-22.64,22.03-43.28,39.67-59.73,2.46,51.11,1.61,102.37-2.53,153.37-1.6,19.62-3.95,40-14.53,56.59-10.59,16.59-31.87,28.03-50.3,21.13,1.74-12.26,3.48-24.53,5.22-36.79-18.98-.32-37.87,9.04-49.12,24.32,2.58-14.32,5.17-28.65,7.75-42.97-25.58,6.74-51.15,13.49-76.73,20.23-11.63-4.53-23.26-9.07-34.88-13.6-3.88,6.54-7.75,13.09-11.63,19.63-10.87-2.57-21.74-5.13-32.61-7.7-5.84,8.41-9.27,18.47-9.79,28.7-18.4-15.28-51.81,5.89-45.83,29.05-18.47,6.34-34.43,19.73-43.87,36.83,26.31-15.16,61.08-14.26,86.57,2.24-4.15-8.29-7.02-18.78-1.75-26.42,5.27-7.63,20.99-4.87,19.77,4.33-5.33-13.73,18.18-23.35,29.12-13.5,10.94,9.86,10.98,26.7,10.18,41.41-11.83-20.28,7.2-51.54,30.28-47.2,23.07,4.34,25.46,45.54,2.41,49.97.27-25.76,9.89-51.33,26.67-70.88,10.02,4.3,18.07,13,21.56,23.33.72-8.16,4.54-16.01,10.53-21.61,16.31,7.06,18.59,31.06,8.9,45.97-9.68,14.91-26.85,22.84-43.12,30.01,33.71-21.83,64.95-47.47,92.92-76.29,8.19,13.78-7.46,30.27-22.89,34.65s-33.37,4.14-44.94,15.25c-10.15,9.75-12.27,25.66-22.18,35.65-19.13,19.31-58.05,8.63-73.17,31.21-5.55,8.29-6.11,19.18-11.7,27.45-7.33,10.85-21.21,14.6-33.61,18.8-57.33,19.4-104.93,65.66-125.94,122.43-23.52-6.37-45.34-18.91-62.7-36.02,9.19-2.5,18.37-5,27.56-7.49-14.14-12.69,5.27-40.98,22.2-32.34-5.82-23.97,20.01-49.37,43.88-43.15.92-17.22,18.33-31.69,35.42-29.47,19.35-7.88,38.7-15.76,58.05-23.64-7.76,7.7-17.4-11.79-8.1-17.56,9.29-5.76,21.18.2,30.4,6.08-3.68-7.25-3.5-16.32.45-23.43-39.43-20.15-90.24-15.62-125.48,11.19-12.94,2.03-9.75,26.56,3.27,25.21-14.36-4.3-30.2-3.46-44.03,2.33.51,9.31,7.3,17.96,16.23,20.67-10.65-9.96-26.59,15.33-13.01,20.64-35.15,7.65-70.3,15.3-105.45,22.95-19.88,4.33-44.59,14.5-43.71,34.82-15.46,3.72-30.91,7.44-46.37,11.15-10.49.18-20.03-9.71-19.49-20.18,11.54-.16,23.09-.32,34.63-.48-16.65-.07-32.92-9.85-40.78-24.53,26.82-7.14,53.64-14.27,80.46-21.41-2.66-16.35,26.51-24.33,32.54-8.9-12.76,0-3.52-20.63,8.04-26.04,27.36-12.8,54.72-25.6,82.08-38.41,29.53-13.82,60.4-27.93,93-27.24,11.85.25,23.57,2.48,35.21,4.69,32.8,6.24,65.59,12.49,98.39,18.73,7.41-12.97,31.75-7.25,32.62,7.66-4.71,10.66-16.76,15.59-27.56,19.95-80.77,32.61-151.8,88.93-201.95,160.15-4.81,6.83-10.1,14.29-18.16,16.49-12.51,3.41-23.88-7.21-34.85-14.11-42.85-26.96-102.06-.04-148.53-20.14-51.45-22.26-68.38-93.29-120.37-114.26"/><path class="cls-5" d="M687.27,989.88c-23.9,8.8-43.23,29.17-50.77,53.5-9.35-21.73-41.06-14.62-64.57-17.25-19.61-2.2-36.8-13.62-53.12-24.71"/><path class="cls-3" d="M578.62,466.18c2.19,19.39,21.25,31.46,37.11,42.82,40.49,29,70.53,69.94,100.48,109.73,47.14,62.63,96.32,124.73,157.38,173.88"/><path class="cls-1" d="M677.74,567.26c-15.73-5.04-31.74-9.2-47.93-12.46-10.11-2.04-22.07-3.19-29.33,4.13-8.06,8.13-4.99,22.8,3.43,30.56,8.42,7.76,20.3,10.3,31.6,12.11-8.52,2.64-17.04,5.28-25.56,7.92,10.89,8.06,23.9,13.23,37.35,14.85-3.27,6.17-7.41,11.87-12.28,16.88,5.14.69,10.27,1.38,15.41,2.07,1.48.2,3.1.47,4.08,1.59,1.6,1.83.63,4.61.29,7.01-.84,5.91,3.42,12.09,9.23,13.42-9.25,6.8-13.19,20-9.19,30.76,4,10.76,15.61,18.17,27.06,17.27-8.53,2.57-16.68,6.38-24.12,11.26,15.17,6.06,30.79,11,46.69,14.77,1.43,6.42-.55,13.49-5.09,18.25,9.43,7.24,20.07,12.91,31.35,16.69.93,6.77-8.69,11.3-8.29,18.12.16,2.76,2,5.12,3.88,7.15,6.7,7.19,15.16,12.73,24.44,15.99-10.33,5.44-19.46,13.17-26.53,22.47-1.57,2.07-3.12,4.55-2.58,7.1.52,2.43,2.77,4.05,4.89,5.34,11.63,7.07,24.72,11.71,38.21,13.52-5.22,1.79-6.17,9.47-2.94,13.94,3.24,4.47,8.95,6.33,14.36,7.42,5.41,1.08,11.12,1.73,15.76,4.72-4.97,5.05-1.01,15.36,6.06,15.78,3.13.19,7.46-.54,8.37,2.46.4,1.32-.23,2.71-.85,3.94-2.03,4.07-4.06,8.14-6.09,12.21,29.07,10.02,60.7-10.65,91.08-5.89-8.78,4.67-18.18,8.18-27.88,10.4,21.77,2.68,45.46,4.98,64.15-6.48,4.48-2.75,8.53-6.22,13.3-8.41,14.24-6.54,31.05-.32,46.53-2.76"/><path class="cls-10" d="M956.81,882.29c82.88,25.52,167.63,44.94,253.35,58.07,32.73,5.01,66.94,9.6,94.35,28.19,27.41,18.59,45.21,56.17,30.24,85.7-24.89-28.19-66.81-39.98-102.74-28.89,32.05-6.58,67.3,6.26,87.63,31.9-89.92,4.36-179.1,23.52-262.88,56.47-.8-7.58,3.01-15.47,9.44-19.57-9.88-3.28-19.77-6.56-29.65-9.83,5.48,4.94,13.82-5.16,10.32-11.66-3.5-6.5-11.85-8.25-19.16-9.3,2.3-12.65,9.81-24.28,20.41-31.57-3.84-6.03-7.68-12.07-11.52-18.1,8.54-7.99,20.67-11.98,32.29-10.62-10.45-5.9-16.87-18.25-15.7-30.19,3.92,4.57,12.4,3.69,15.3-1.59,2.89-5.28-.93-12.91-6.89-13.75,14.9.43,29.91-4.35,41.81-13.32-3.98-16.86-22.55-28.81-39.55-25.44,3.93,9.61,7.87,19.23,11.8,28.84-15.52,3.61-31.05,7.22-46.57,10.83,12.31,13.82,15.19,35.26,6.97,51.83,59.63-3.62,119.87,2.97,177.31,19.4,9.79-22.41,28.86-40.59,51.7-49.3-22.33,1.63-44.99-1.44-66.08-8.96,16.33-8.07,36.02-9.01,53.04-2.53-15.97,10.41-31.93,20.83-47.9,31.24-6.35-8.85-2.36-23.15,7.64-27.44,10.01-4.29,23.11,2.68,25.15,13.37-7.95,6.39-18.85,8.94-28.81,6.76,15.91-20.34,55.05-10.9,59.94,14.46,15.39-6.09,30.78-12.18,46.17-18.27-6.3,9.2-17.92,14.48-29,13.16,3.14-17.99,31.94-19.16,43.02-4.64,11.08,14.52,8.91,34.95,4.77,52.74-25.98-31.13-74.61-40.52-110.31-21.31-12.57,6.77-23.5,16.55-36.73,21.91-19.83,8.04-42.64,5.3-62.76,12.59-38.63,14-56.28,59.75-91.54,80.86-18.48,11.06-40.37,14.5-61.57,18.32-85.58,15.43-169.39,40.68-249.25,75.08-43.62,18.79-90.35,45.23-103.33,90.92-33.06,6.45-67.8,4.1-99.7-6.73,29.24.77,57.38-21.7,63.09-50.39,25.23-1.81,49.92-10.5,70.72-24.89-7.89,1.83-15.79,3.66-23.68,5.48,8.88-11.12,20.4-20.12,33.34-26.05-7.97,2.3-15.93,4.6-23.9,6.9.46-8.19,5.57-15.95,12.9-19.61-24.77-.3-49.23,13.45-61.85,34.77-8.89,15.02-12.32,33.38-24.16,46.2-21.37,23.14-60.19,18.72-85.64,37.28-8.35-30.2,15.92-64.96,47.15-67.53-9.64,6.14-19.28,12.27-28.93,18.41,13.63-2.49,27.26-4.99,40.89-7.48-18.02-2.62-19.45-31.43-5.18-42.76,14.26-11.33,34.46-9.99,52.58-8.1-9.76,2.04-19.52,4.08-29.28,6.12,15.06,3.68,30.98,3.74,46.07.17-14.13-15.46-35.62-23.87-56.48-22.12,7.97-7.99,15.93-15.97,23.9-23.96-19.72-.64-39.44-1.28-59.16-1.93,47.77-30.31,90.18-69.05,124.69-113.88-144.33,17.04-289.79,24.46-435.11,22.21,8.45,23.76,38.68,30.02,63.86,31.42,57.55,3.2,115.43.51,172.44-8.03-94.81-1.36-189.72,4.3-283.7,16.91,89.91,22.32,185.65,20.68,274.75-4.72-92.68,5.58-184.75,21.14-274.12,46.31,104.85,19.36,216.16,1.63,309.8-49.35-99.49,23.64-198.99,47.29-298.48,70.93,111.67,21.59,231.79-4.72,324.21-71.01-50.32,24.78-107.34,31.16-161.9,44.14-54.57,12.98-110.84,35.36-142.97,81.34,111.82,3.77,213.4-59.95,306.96-121.31-96.01,41.13-192.01,82.26-288.02,123.39,20.27,23.4,57.95,13.53,86.6,1.8,71.03-29.09,142.06-58.19,213.09-87.28-89.56,25.26-177.25,57.13-262.12,95.26,20.65,32.2,70.24,15.79,103.04-3.9,93.79-56.3,187.58-112.61,281.37-168.91-73.12,42.99-146.24,85.98-219.37,128.97,102.65-3.63,199.19-77.06,230.1-175.01-34.15,13.5-71.36,19.19-107.99,16.54-4.24-19.28,20.36-32.06,40.1-32.57,19.74-.51,42.7,2.65,56.25-11.71-21.31,7.22-43.27,14.54-65.73,13.25"/><path class="cls-6" d="M580.85,469.3c-4.92-9.6-11.57-18.3-19.54-25.57-12.25,3.77-14.96,23.47-4.19,30.41-34.35-27.87-69.25-55.08-104.66-81.6-3.88,30.89,18.64,62.85,49.03,69.6-24.6-10.36-50.3-18.1-76.53-23.03-8.13-1.53-16.72-2.76-24.53-.01-7.81,2.75-14.37,10.78-12.65,18.87,1.5,7.03,8.31,11.51,14.79,14.63,15.77,7.58,33.18,11.75,50.67,12.15-13.86-.82-27.88,1.36-40.84,6.33,7.51,6.96,17.71,10.93,27.94,10.87-8.74,6.51-18.83,11.21-29.44,13.72,11.7,5.91,24.89,8.86,38,8.48-6.5,6.67-14.75,11.63-23.69,14.24,12.22,9.93,28.65,14.51,44.24,12.32-8.66,4.62-7.03,18.98,1.1,24.5,8.12,5.51,19.14,4.15,28.29.59-2.57,6.31-5.14,12.62-7.71,18.94,23.4,3.49,47.89-.85,68.67-12.14-1.39,2.93,2.15,6.24,5.38,5.95,3.23-.29,5.79-2.73,8.07-5.04-13.63,8.39-28.13,17.78-33.98,32.68-8.55,21.76,9.04,49.35,32.37,50.78,3.39.21,7.56.39,9.04,3.45,1.16,2.39-.1,5.19-1.33,7.54-3.16,6.01-6.32,12.02-9.48,18.03,6.35,4.83,13.31,8.85,20.67,11.93-.37,3.31-.75,6.63-1.12,9.94,3.47,1.34,7.67.52,10.39-2.02-8.36,6.91-16.02,14.65-22.84,23.09,5.2.05,10.4.1,15.6.15-6.38,14.22,8.29,32.76,23.59,29.82-5.17,11.44.6,26.57,12.07,31.66-1.81,7.34,3.44,15.64,10.84,17.16-10.9-2.61-18.65,13.04-13.72,23.1,4.93,10.07,16.33,14.89,26.75,19.02,10.42,4.13,21.76,9.31,26.19,19.61-5.94,3.63-9.19,11.19-7.74,18.01,1.45,6.81,7.5,12.39,14.41,13.28-4.9,2.63-9.96,5.39-13.34,9.81-3.38,4.42-4.62,10.99-1.38,15.51,1.64,2.28,4.16,3.75,6.67,5.01,10.8,5.38,22.95,8.02,35.01,7.6-14.43,4.86-24.96,19.53-24.94,34.75,0,6.85-2.04,17.33-8.5,15.06"/><path class="cls-11" d="M561.94,453.65c-29.81-22.36-49.37-55.69-65.07-89.48-37.29-80.28-56.96-167.41-76.38-253.77-4.21-1.56-8.43-3.11-12.64-4.67-13.16,17.52-18.3,40.15-17.45,62.05.85,21.89,7.3,43.22,15.47,63.55,14.62,36.4,34.77,70.27,54.84,103.98-18.48-10.67-32.14-27.96-44.08-45.64-44.25-65.52-71.29-142.55-77.7-221.35-1.77-21.78-2.13-44.29-10.91-64.3-18.66,7.89-30.27,27.59-33.55,47.58-3.27,19.99.52,40.42,5.1,60.15,15.41,66.32,40.94,132.08,86.78,182.43-67.63-51.41-111.96-127.58-146.47-205.21-12.37-27.82-23.71-56.09-35.05-84.35-7.24,26.61-3.96,55.28,5.06,81.34,9.02,26.06,23.52,49.86,38.95,72.71,26.3,38.93,55.66,75.8,87.72,110.15-11.49-16.65-27.67-29.37-43.25-42.28C219.65,165.47,154.34,94.36,99.75,15.79c-3.4,50.42,25.4,96.74,53.07,139.02,34.49,52.71,70.86,107.25,125.11,139.28-25.19-3.83-45.75-21.47-64.8-38.39-56-49.71-112.05-99.47-164.33-153.08-4.78,34.05,21.19,63.54,40.69,91.87,14.66,21.3,26.42,44.54,42.01,65.17,15.59,20.63,35.98,39.03,61.02,45.46-24.61-19.07-51.26-35.52-79.34-48.96-37.04-17.74-77.13-30.62-109.17-56.3,3.77,25.13,24.45,43.8,43.86,60.19,18.94,15.99,38.09,32.05,59.92,43.78,24.21,13.01,50.99,20.3,77.51,27.5"/><path class="cls-8" d="M185.23,333.69c-49.14-7.4-97.11-22.55-141.59-44.73-1.27,15.57-2.47,31.71,2.83,46.41,5.3,14.7,19.01,27.59,34.61,26.69-12.41,5.9-15.32,23.37-9.73,35.92,5.59,12.55,17.1,21.28,28.15,29.45-11.74,2.33-17.15,17.82-12.29,28.75,4.86,10.94,16.66,17.29,28.38,19.72-3.27,7.8-9.08,14.52-16.34,18.86,7.48,4.9,14.96,9.8,22.44,14.7-3.51,10.5-17.99,18.77-13.24,28.77,1.82,3.83,5.96,5.84,9.65,7.93,10.7,6.05,19.75,14.96,25.96,25.57,1.3,2.23,2.52,4.74,2.09,7.28-.4,2.33-2.09,4.18-3.71,5.9-5.07,5.37-10.13,10.73-15.2,16.1,9.59,6.43,20.58,10.75,31.98,12.58-.05,10.96,5.35,21.22,11.78,30.1,13.28,18.33,34.82,33.85,57.05,29.6-5.37,2.65-10.73,5.3-16.1,7.95-2.02,8.77,4.23,17.54,11.82,22.38,7.59,4.84,16.54,7.06,24.52,11.22,8.89,4.64,16.48,11.74,21.72,20.3-11.38,1.55-26.13,7.16-24.68,18.55.94,7.45,8.76,11.77,15.78,14.46,16.29,6.25,33.42,10.3,50.79,12-5.9,5.16-11.98,10.54-15.22,17.67-3.25,7.13-2.86,16.55,3.03,21.73,3.15,2.77,7.34,3.95,11.39,5.05,12.14,3.3,24.28,6.61,36.42,9.91-2.92,17.81,12.87,36.28,30.92,36.16-10.03,6.53-5.93,23.64,4.43,29.64,10.36,5.99,23.26,4.32,35.09,2.47,2.15,10.21,4.3,20.42,6.45,30.63,1.04,4.91,2.14,10,5.13,14.04,11.29,15.26,35.65,4.08,54.14,8.37-2.53,7.97-7.31,15.21-13.64,20.67,13.5,6.11,28.6,8.64,43.35,7.27,5.11,10.95,8.12,22.88,8.79,34.94"/><path class="cls-7" d="M341.76,830.53c79.56,5.35,160.45-10.57,232.06-45.65-70.66,18.13-147.53,11.19-214.38,40.41-7.16,12.96,1.12,30.15,13.93,37.58,12.81,7.43,28.46,7.54,43.25,6.8,37.49-1.88,74.76-7.97,110.9-18.11-27.99,5.76-55.99,11.52-83.98,17.28,4.49,8.68,15.92,10.59,25.69,10.81,38.76.89,77.7-8.34,111.94-26.53,5.04,7.59,2.23,18.34-3.96,25.02s-14.95,10.25-23.41,13.63c-22.24,8.87-44.48,17.73-66.72,26.6-4.18,1.67-8.79,3.76-10.39,7.96-1.91,5.01,1.72,10.76,6.54,13.11s10.44,2.18,15.8,1.96c29.84-1.21,59.69-2.42,89.53-3.63-11.05,3.42-21.44,8.96-30.44,16.21,13.63-1.73,27.26-3.45,40.9-5.18-4.63,4.75-9.26,9.5-13.88,14.25,19.89-2.43,40.26-4.99,58.11-14.11,17.85-9.11,32.98-26.25,33.92-46.27"/><path class="cls-9" d="M177.49,300.12c76.38,55.1,172.21,76.21,252.95,124.7-30.28-16.95-64.02-27.51-93-46.59s-53.74-50.28-51.49-84.91c69.77,24.03,120.33,85.59,187.33,116.52-9.59-2.41-18.2-7.66-27.53-10.95-9.32-3.29-20.37-4.36-28.53,1.21-8.17,5.57-10.32,19.61-2.03,25-44.81-7.93-88.44-22.56-128.98-43.24-20.68-10.55-42.17-23.04-65.32-21.2-3.33.26-7.16,1.21-8.51,4.27-1.96,4.43,2.77,8.79,6.94,11.25,51.56,30.34,111.66,42.03,170.43,53.23-14.55,1.02-29.09,2.04-43.64,3.06-51.66,3.62-103.9,7.35-153.24,23.08,1.58,8.5,8.79,15.08,16.82,18.31,8.02,3.23,16.85,3.69,25.49,4.1,36.73,1.77,73.45,3.54,110.18,5.32-24.08,6.59-48.16,13.18-72.23,19.77,9.25,9.09,23.08,11.38,35.99,12.58,31.49,2.92,63.32,2.03,94.6-2.66-19.57,4.33-38.9,9.74-57.87,16.2-2.19.75-4.63,1.75-5.42,3.93-1.43,3.94,3.55,7.03,7.6,8.13,15.83,4.31,32.43,5.78,48.78,4.33,1.45,22.96,26.71,41.21,48.96,35.37-12.57,8.87-27.81,13.35-40.36,22.26-12.54,8.9-22.35,25.16-16.49,39.38,5.57,13.51,22.16,18.46,36.74,19.24,14.59.78,30.12-.72,42.92,6.31-18.63,6.16-37.25,12.32-55.88,18.49,22.57.79,45.19.47,67.73-.95-.71,7.13-3.82,14-8.71,19.24,12.87,5.33,26.32,9.25,40.03,11.67-5.1,6.14-10.51,14.24-7.1,21.46,3.23,6.84,12.23,8.15,19.78,8.55,20.8,1.1,41.6,2.21,62.4,3.31-5.5,11.22-13.55,21.17-23.36,28.91,7.04,1.22,7,13.89-.05,15.06"/></g></svg>