<?xml version="1.0" encoding="UTF-8"?><svg id="Layer_2" xmlns="http://www.w3.org/2000/svg" viewBox="0 0 1220.31 677.07"><defs><style>.cls-1{fill:#fff;stroke-width:0px;}</style></defs><g id="graphics"><g id="NewGroupe1"><g id="NewGroup25-0"><path class="cls-1" d="M970.13,129.74c4.89-1.06,9.66-.91,13.91.4,2.01.62,3.9,1.49,5.63,2.61,5.13,3.33,8.58,8.57,9.96,15.15,1.36,6.49.09,13.13-3.58,18.68-3.64,5.51-9.18,9.23-15.59,10.49-12.1,2.38-26.03-6.85-28.65-19h0c-2.63-12.18,6.1-25.69,18.32-28.33h0ZM917.15,165.56c4.68,21.67,21.56,38.5,41.89,44.74,8.99,2.76,18.66,3.44,28.25,1.56,15.79-3.11,29.39-12.24,38.31-25.71,8.95-13.52,12.04-29.7,8.71-45.54-3.32-15.79-12.33-29.14-25.37-37.6-13.38-8.67-29.82-11.48-46.32-7.91-31.44,6.81-52.26,39.08-45.48,70.47h0Z"/><path class="cls-1" d="M63.88,188.57c18.44-1.41,49.3-3.78,56.22-2.17,39.62,9.84,68.34,31.95,85.39,65.72,9.4,18.63,17.03,38.11,23.26,54.71,1.3,3.46,2.5,6.74,3.63,9.86,12.48,34.19,22.32,61.2,76.46,52.23,7.78-1.29,13.77-7.56,14.7-15.39,4.77-39.91,20.16-63.53,35.28-74.45l-6.79,64.36c-.59,5.6,1.52,11.15,5.68,14.95,4.16,3.8,9.88,5.39,15.4,4.3l50.18-9.97c8.28-1.64,14.25-8.91,14.27-17.35.01-5.44-.03-10.75-.07-15.97-.08-10.95-.16-21.28.25-31.49.85-21.02,3.4-39.48,7.82-55.98-1.49,34.69,1.49,67.51,8.97,100.49,2.13,9.36,11.32,15.33,20.74,13.46,3.5-.69,6.66-1.41,9.72-2.1,5.57-1.26,10.38-2.34,14.71-2.7,4.69-.38,18.96-1.56,27.64-13.11,8.72-11.62,5.83-25.82,4.87-30.49-2.55-12.51-3.66-24.85-3.29-36.68,1.84-59.22,13.6-101.68,37.94-136.15-16.16,63.4-19.62,123.48-10.58,182.82.73,4.78,3.38,9.06,7.34,11.84,3.96,2.78,8.89,3.82,13.63,2.87l52.89-10.51c8.99-1.79,15.14-10.13,14.17-19.25-.18-1.66-.28-3.13-.38-4.47-.24-3.28-.5-6.68-1.42-10.38-10.71-42.63-9.28-88.27,4.39-139.52,8.71-32.67,21.65-56.45,40.73-74.86,2.81-2.71,5.44-5,7.93-6.9-.9,2.94-1.81,5.88-2.72,8.81-8.51,27.52-17.3,55.98-21.28,85.08-3.96,28.98-3.18,57.59-2.35,87.88.35,12.91.72,26.25.69,39.62-.01,5.49,2.52,10.68,6.86,14.05,4.34,3.37,10,4.53,15.32,3.15,6.04-1.57,11.64-2.95,16.92-4.25,13.51-3.33,25.18-6.21,36.78-10.34,12.02-4.28,21.52-20.68,19.56-33.73-7.24-48.21-3.46-98.03,11.24-148.09,5.12-17.42,15.6-34.73,25.89-51.5-5.54,23.34-11.1,47.44-12.84,72.09-2.01,28.53-1.4,57.42-.81,85.37.25,11.9.51,24.21.56,36.31.02,5.05,2.19,9.85,5.97,13.19,3.78,3.35,8.8,4.93,13.81,4.34,2.74-.32,4.67-.51,6.09-.65,2.73-.27,4.7-.47,7.09-1.1,27.67-7.31,42.92-11.34,51.96-24.52,9.13-13.31,7.15-28.74,3.55-56.74l-.08-.61c-6.56-51.05-1.35-94.91,15.92-134.1.68-1.53,1.23-2.62,1.65-3.37.31.08.66.19,1.05.31,14.58,4.72,29.43,9.03,43.8,13.2,24.63,7.14,50.1,14.53,73.83,23.96,75.67,30.06,128.15,67.48,165.15,117.75,6.93,9.42,6.56,12.75,4.06,18.1-3.72,7.98-6.8,16.07-9.77,23.89-3.65,9.61-7.11,18.69-11.49,26.99-22.36,42.35-45.15,73.36-71.72,97.59-.2.19-.4.37-.59.57l-38.39,38.43c-12.22,9.74-25.1,18.51-38.71,27.78-6.38,4.35-12.98,8.84-19.45,13.41-1.77,1.25-2.87,1.72-3.38,1.89-.77-.44-2.91-1.98-6.95-7.1-31.77-40.21-57.06-83.16-75.16-127.67-3.24-7.97-13.24-22.94-27.86-22.55-13.74.37-26.96,1.85-40.95,3.42-4.81.54-9.69,1.09-14.67,1.59-5.35.54-10.16,3.48-13.08,8-2.92,4.51-3.64,10.1-1.95,15.21.89,2.69,1.63,4.99,2.28,7.04,1.3,4.06,2.33,7.27,3.62,10.63,17.58,45.78,42.87,90.86,77.28,137.73-1.48-.21-2.86-.45-4.15-.72-1.06-.23-4.17-2.07-6.54-4.88-5.04-5.96-10.14-11.88-15.25-17.81-16.71-19.39-34-39.44-48.19-60.42-10.28-15.2-18.27-32.17-26.73-50.14-3.78-8.04-7.7-16.35-11.85-24.51-3.6-7.08-11.47-10.91-19.26-9.36l-59.18,11.76c-5.11,1.01-9.52,4.23-12.05,8.79-2.53,4.56-2.92,10-1.08,14.87,1.4,3.71,2.62,7.47,3.91,11.44,2.99,9.21,6.08,18.73,11.6,27.64,16.94,27.3,34.6,54.7,51.67,81.21,7.29,11.31,14.74,22.88,22.15,34.46-8.8-5.26-16.29-12.25-24.55-21.17-41.53-44.81-70.17-84.9-90.16-126.2-4-8.27-16.18-19.64-29.61-17.8-13.15,1.8-26.23,4.51-38.89,7.14-4.48.93-8.99,1.86-13.56,2.77-4.86.96-9.09,3.92-11.67,8.14-2.58,4.23-3.28,9.34-1.92,14.1,15.85,55.58,45.37,100.32,76.59,140.06-44.2-29.04-74.87-70.23-93.68-125.74-2.71-8.01-13.26-24.25-28.55-23.31-9.85.61-19.18,2.64-29.98,4.98-4.36.95-8.87,1.93-13.89,2.93-5.39,1.07-9.98,4.58-12.43,9.51-2.44,4.93-2.46,10.71-.05,15.65l54.82,112.36c-3.24-2.35-6.1-4.74-8.61-7.2-28.72-28.19-49.61-63.34-63.85-107.45-2.76-8.56-11.5-13.7-20.32-11.94l-53.24,10.58c-5.26,1.05-9.77,4.42-12.25,9.17-2.49,4.75-2.69,10.38-.55,15.3l19.05,43.71c-21.5-7.25-48.88-28.81-57.95-42.18-.15-.23-.27-.41-.37-.56-1.64-4.66-5.17-8.57-9.92-10.54-6.33-2.63-13.51-1.34-18.52,3.09-17.14,3.41-29.09,7.86-35.55,18.55-7.16,11.86-3.51,23.88.73,37.8,1.78,5.84,3.79,12.46,5.57,20.41,6.96,31.09,2.52,60.85-13.55,90.96-11.83,22.17-59.24,48.24-101.77,65.98,17.04-49.84,23.86-101.76,20.3-154.87-3.55-53.06-17.44-107.3-41.26-161.2-24.11-54.56-53.27-97.34-73.32-123.47,2.97-.22,6.12-.46,9.44-.72h0ZM322.01,403.41c.34,1.02.6,2.32.7,3.81-.09-1.3-.33-2.58-.7-3.81h0ZM4.81,184.96c.53.56,53.16,57.1,90.97,143.14,49.96,113.69,51.84,222.66,5.59,323.87-2.92,6.39-1.79,13.89,2.87,19.14,2.21,2.48,5.01,4.24,8.05,5.18,3.39,1.04,7.09,1.06,10.62-.07,1.29-.42,129.75-42.16,158.85-96.68,19.96-37.4,25.64-76.22,16.87-115.4-2.07-9.25-4.39-16.87-6.25-22.99-.87-2.86-1.87-6.15-2.53-8.71,1.8-.58,4.49-1.32,8.48-2.17,17.8,20.86,54.3,47.53,84.89,52.2,1.84,1.11,4.52,2.51,8.04,3.28,9.6,2.12,19.44-1.28,25.69-8.87,6.26-7.6,7.7-17.93,3.77-26.95l-18.44-42.33,16.51-3.28c15.84,42.82,38.04,77.91,67.58,106.91,9.4,9.23,21.58,17.44,37.22,25.1,1.02.5,2.09.95,3.16,1.33,10.75,3.84,22.66.76,30.35-7.83,7.89-8.82,9.65-21.34,4.5-31.91l-54.78-112.29c3.57-.74,6.86-1.36,9.99-1.82,22.2,64.64,58.95,112.33,112.3,145.77,7.88,4.94,14.81,8.13,21.82,10.04,13.08,3.56,26.85-1.71,34.26-13.12,7.48-11.51,6.69-26.36-1.97-36.97-29.5-36.14-58.79-76.07-76.26-124.32,8.56-1.76,16.84-3.41,25.08-4.71,21.48,43.57,51.65,85.63,94.73,132.12,13.64,14.72,30.67,31.09,59.98,39.2l.25.08c1.44.46,4.45,1.39,8.34,1.31,9.24-.19,17.83-4.94,23-12.71,5.26-7.92,6.31-17.9,2.82-26.69-.93-2.34-1.99-4.43-3.23-6.38-10.91-17.2-22.11-34.58-32.94-51.39-16.99-26.38-34.56-53.65-51.35-80.7-2.29-3.7-4.06-8.15-5.8-13.21l26.03-5.17c1.85,3.86,3.68,7.74,5.47,11.55,8.66,18.4,17.62,37.42,29.44,54.9,15.35,22.7,33.32,43.55,50.7,63.71,5.03,5.84,10.06,11.67,15.02,17.54,7.18,8.49,17.01,14.73,26.32,16.69,4.15.87,8.66,1.5,13.78,1.93,11.85.98,23.37-4.53,30.06-14.39,6.66-9.81,7.53-22.48,2.28-33.07-1.19-2.4-2.56-4.65-4.06-6.67-32.36-43.67-56.26-85.44-72.97-127.53,8.48-.93,16.68-1.74,24.74-2.17.04.08.08.16.11.23,19.37,47.6,46.35,93.45,80.18,136.28,5.32,6.73,12.76,14.94,23.15,18.66,7.96,2.84,20.57,4.03,35.44-6.46,6.23-4.39,12.7-8.8,18.96-13.07,13.85-9.43,28.17-19.18,41.69-30.03.51-.41.99-.84,1.45-1.3l38.8-38.84c29.55-27.03,54.62-61.03,78.87-106.95,5.4-10.22,9.4-20.75,13.27-30.94,2.87-7.56,5.59-14.7,8.76-21.49,11.2-23.99,1.01-42.37-7.63-54.11-41.11-55.86-98.5-97.06-180.62-129.69-25.31-10.06-51.61-17.69-77.04-25.06-14.11-4.09-28.7-8.33-42.75-12.88-20.96-6.81-36.49.76-46.07,22.49-19.95,45.26-26.05,95.28-18.65,152.92l.08.61c1.8,13.97,3.65,28.41,2.34,32.17-2.23,1.98-10.6,4.57-20.45,7.27-.09-5.23-.2-10.42-.31-15.54-.6-28.4-1.16-55.23.73-82.14,1.6-22.71,6.94-45.22,12.6-69.06,1.33-5.62,2.67-11.22,3.94-16.83,3.73-16.37-1.9-25.32-7.28-29.94-4.36-3.75-13.99-9.1-29.59-2.96-8.2,3.23-23.18,10.63-31.3,23.85l-.27.44c-11.77,19.17-23.95,38.99-30.53,61.43-15.81,53.83-20.11,107.58-12.8,159.82-7.49,2.45-15.39,4.48-24.66,6.78-.13-6.08-.29-12.08-.46-17.99-.79-28.8-1.53-56,2.04-82.1,3.58-26.21,11.57-52.05,20.03-79.41,1.56-5.06,3.13-10.13,4.68-15.23,3.97-13.11-.4-27.11-11.15-35.67-10.61-8.45-25.04-9.57-36.77-2.86-6.64,3.81-13.34,9-20.46,15.86-23.6,22.76-40.07,52.61-50.37,91.24-14.63,54.86-16.58,104.42-5.96,151.26l-17.72,3.52c-5.97-57.29.7-115.88,20.25-178.49,3.66-11.7-.57-24.44-10.52-31.69-10.07-7.34-23.12-7.46-33.25-.31-8.51,6-14.33,13.55-19.46,20.21-.61.8-1.22,1.58-1.83,2.36-32.82,42.03-48.44,92.58-50.66,163.91-.45,14.57.89,29.67,3.99,44.86.08.4.15.77.21,1.11-.27.03-.57.06-.88.08-3.85.32-7.51.9-11.15,1.62-7.05-40.5-6.63-81.58,1.2-127.8,1.62-9.57-2.59-19.18-10.73-24.48-8.09-5.27-18.53-5.24-26.58.09-5.23,3.46-11.81,8.37-16.3,15.73-19.18,31.42-29.01,68.15-30.93,115.58-.45,11.05-.36,21.81-.28,33.19,0,.37,0,.75,0,1.12l-12.25,2.43,5.78-54.76c.98-9.29-2.75-18.38-9.97-24.33-7.11-5.86-16.58-7.74-25.34-5.05-27.37,8.42-58.95,38.07-69.79,96.18-8.44.19-10.66-1.77-11.55-2.57-4.39-3.88-8.3-14.6-13.25-28.17-1.17-3.21-2.41-6.6-3.74-10.16-6.56-17.49-14.64-38.09-24.8-58.24-21.91-43.4-58.41-71.72-108.49-84.15-11.31-2.81-33.04-1.41-67.48,1.23-15.17,1.16-35.93,2.76-40.77,2.07h.01c-7.47-1.14-14.85,2.58-18.37,9.28-3.52,6.69-2.4,14.89,2.78,20.4h0Z"/></g></g></g></svg>