<?xml version="1.0" encoding="UTF-8"?><svg id="Layer_2" xmlns="http://www.w3.org/2000/svg" viewBox="0 0 20.73 34.23"><defs><style>.cls-1{fill:none;stroke:#b62025;stroke-miterlimit:10;stroke-width:.75px;}</style></defs><g id="graphics"><g id="plastic_jelly"><path class="cls-1" d="M4.48,11.5c-.19-.47.06-1.13-.33-1.46-.11-.1-.26-.14-.4-.18-.73-.21-1.47-.43-2.2-.64-.29-.08-.59-.18-.8-.4-.21-.22-.28-.54-.32-.84-.18-1.32.09-2.79,1.05-3.72.53-.52,1.23-.83,1.92-1.12,1.04-.44,2.09-.86,3.15-1.25,2.2-.8,4.49-1.46,6.83-1.52,1.03-.03,2.22.15,2.77,1.03.44.71.28,1.67-.17,2.37s-1.14,1.21-1.81,1.71c-1.52,1.14-3.04,2.34-4.08,3.94-1.48,2.28-1.8,5.1-1.99,7.81-.11,1.5-.18,3.02.19,4.48.56,2.18,2.08,4,3.83,5.4,1.96,1.58,4.46,2.76,6.94,2.33.45-.08.94-.24,1.17-.64.26-.45.09-1.04-.26-1.42s-.82-.61-1.28-.85c-2.62-1.33-4.95-3.21-6.82-5.48-1.25-1.51-2.33-3.43-1.92-5.35.38-1.78,1.98-3.13,2.31-4.93.11-.64.06-1.3.21-1.93.16-.64.52-1.21.89-1.77.05-.08.11-.16.19-.19.23-.08.39.24.42.49.1,1.11-.09,2.22-.23,3.32-.41,3.24-.34,6.53-.27,9.8.02,1.01.05,2.03.24,3.02.12.59.31,1.2.75,1.61.41.38.97.54,1.47.77,1.1.5,2.01,1.41,2.51,2.52-1.32.63-2.89,0-4.1-.84-2.4-1.66-4.23-4.12-5.12-6.9,1.21.22,2.12,1.23,2.83,2.23s1.38,2.11,2.46,2.72c-.84-.75-.65-2.11-1.13-3.13-.32-.68-.92-1.17-1.43-1.71-.5-.53-.93-1.13-1.35-1.73-.77-1.09-1.55-2.18-2.32-3.27-.31-.44-.63-.89-.87-1.37-.24-.48-.4-1-.63-1.49-.43-.92-1.11-1.73-1.95-2.32-.82-.58-1.85-1.01-2.26-1.93.87-.7,2.06-.85,3.18-.84s2.25.15,3.34-.07,2.19-.91,2.49-1.98c.17-.6.07-1.24.08-1.86s.16-1.31.66-1.67c.18-.13.43-.21.63-.1.17.1.24.31.28.5.34,1.75-.79,3.54-2.32,4.46s-3.38,1.14-5.16,1.2c-.5.02-1.01.02-1.48-.16s-.87-.6-.89-1.1c-.02-.6.47-1.06.9-1.48s.86-.99.67-1.56c-.6-.26-1.35-.13-1.82.33s-.63,1.2-.39,1.81"/><path class="cls-1" d="M8.59,21.64c.39,1.38.33,2.84.24,4.27-.04.72-.09,1.45-.02,2.17.14,1.36.73,2.62,1.31,3.85.39.84.93,1.79,1.85,1.91.2.03.42,0,.57-.13.1-.09.16-.22.22-.34.29-.63.58-1.27.65-1.95.11-.99-.24-1.97-.73-2.84s-1.11-1.65-1.61-2.5c-.21-.36-.42-.75-.77-.99-.8,2.8-.45,6.1,1.56,8.21.89-1.23.79-2.93.36-4.39-.29-.99-.72-1.95-1.35-2.78"/></g></g></svg>