<?xml version="1.0" encoding="UTF-8"?><svg id="Layer_2" xmlns="http://www.w3.org/2000/svg" xmlns:xlink="http://www.w3.org/1999/xlink" viewBox="0 0 109.98 71.45"><defs><style>.cls-1{fill:#000;stroke-width:0px;}.cls-2{fill:none;stroke:url(#linear-gradient);stroke-miterlimit:10;}</style><linearGradient id="linear-gradient" x1="0" y1="35.73" x2="109.98" y2="35.73" gradientUnits="userSpaceOnUse"><stop offset=".23" stop-color="#ed2024"/><stop offset=".25" stop-color="#ed2b2e"/><stop offset=".45" stop-color="#f58487"/><stop offset=".61" stop-color="#fac6c7"/><stop offset=".72" stop-color="#fdefef"/><stop offset=".78" stop-color="#fff"/></linearGradient></defs><g id="graphics"><path class="cls-1" d="M107.16,20.97s4.66,2.55-3.32,7.98-52.12-4.04-50.28-6.81,4.37-3.27,6.8-2.12c6.36,3.01,8.16,3.05,19.89-.24,10.53-2.95,25.82.67,26.91,1.19Z"/><path class="cls-1" d="M30.66,8.07s.58,1.37-.41,4.28-6.51-2.17-6.28-3.65.66-2.17.99-2.17,5.45,1.03,5.7,1.54Z"/><g id="whale_small"><path class="cls-2" d="M107.56,15.24c-4.16-1-7.86-.44-11.99.69-2.08.57-4.08,1.4-6.18,1.88-1.67.38-3.38.54-5.07.77-7.47,1.02-14.74,3.43-21.33,7.08-4.18,2.31-8.21,5.16-12.89,6.12-5.23,1.07-10.73-.4-15.4-2.98-5.24-2.89-9.62-7.11-14.04-11.12-1.1-1-1.84-2.41-1.78-3.89.14-3.06,0-2.25,2.27-3.67,2.26-1.41,6.64-7.03,7.99-9.35.2-.35.68-.35.9,0,1.09,1.75,1.78,5.8,1.26,7.82-.59,2.3-2.02,4.31-3.72,5.97-2.13,2.08-5.64,3.67-7.92,1.77-.64-.53-1.08-1.28-1.76-1.76-2.47-1.74-4.33.75-7.3.2-1.92-.35-6.65-1.83-8.36-2.76-.56-.3-1.27-.05-1.51.53-1.26,3.07,2.89,7.2,6.13,8.5,3.59,1.43,7.66.5,11.35-.67.46-1.74.55-3.57.24-5.35,1.45.12,2.94.76,3.68,2.02s.39,3.15-.92,3.76c-1.32.61-3.16-.79-2.64-2.15,1.8.13,2.49,2.36,2.83,4.14,1.65,8.77,5.59,17.19,11.71,23.69,6.12,6.5,14.48,10.99,23.36,11.93.7.07,1.44.12,2.09-.14,1.52-.61,1.92-2.51,2.58-4.01.72-1.66,1.95-3.04,3.14-4.4,4.8-5.52,9.32-11.28,13.83-17.03.69-.88,1.4-1.79,1.74-2.86.35-1.07.26-2.35-.49-3.18s-2.28-.93-2.95-.04.2,2.51,1.29,2.24c1.09-.28,1.15-2.02.26-2.7-1.48-1.12-3.91.91-3.17,2.62.74,1.71,3.69,1.55,4.38-.18.23-.57.24-1.2.46-1.78.92-2.4,4.29-2.12,6.86-2.12,8.12,0,14.41-6.88,21.96-9.91.47-.19,1.01.16,1.03.67.26,6.66-2.92,13.12-6.17,18.84-2.48,4.37-5.27,8.56-8.35,12.54-1.4,1.82-2.9,3.61-4.78,4.93-2.39,1.68-5.28,2.52-8.15,3.07-3.18.61-6.42.91-9.66.89-.07,0-.1-.1-.04-.14,7.91-5.32,17.3-8.9,23.31-16.3,4.62-5.68,5.92-14.26,7.87-21.32-1.05.34-3.24,1.38-4.51,2.9-1.27,1.52-1.84,3.48-2.47,5.36-3.97,11.8-11.92,22.45-22.8,28.5,4.02-4.73,8.04-9.45,12.06-14.18,1.97-2.31,3.99-4.73,4.8-7.66.73-2.66.14-5.88-1.95-7.59-.3-.24-.74-.11-.82.27-1.1,5.62-2.61,11.2-5.19,16.31-2.46,4.89-4.63,9.97-9.14,13.05-.48.33-1.11-.09-1-.66.96-5.04,1.23-10.56,3.41-15.2.49-1.05,1.47-2.27,2.54-1.83.31,3.79-1.71,7.42-3.12,10.81-2.04,4.89-4.4,9.63-7.32,14.05-1.44,2.17-3.09,4.32-5.37,5.57-3.13,1.72-6.93,1.52-10.48,1.11,3-4.75,6-9.51,9-14.26,2.9-4.6,5.96-9.36,10.56-12.27,1.65,1.55,2.5,3.92,2.21,6.17-.17,1.32-.7,2.58-.9,3.9-.2,1.32.03,2.83,1.07,3.67,1.08.86,2.7.69,3.91.04s2.16-1.71,3.19-2.63c2.22-1.98,4.96-3.39,7.86-4.06.33-.08.69-.14,1,0,.59.26.68,1.04.63,1.68-.22,2.37-1.38,4.55-2.68,6.53-3.41,5.19-7.99,9.62-13.3,12.85.25-2.8,2.12-5.14,3.69-7.47s2.97-5.17,2.14-7.86"/></g></g></svg>