<?xml version="1.0" encoding="UTF-8"?><svg id="Layer_2" xmlns="http://www.w3.org/2000/svg" viewBox="0 0 90.17 92.29"><defs><style>.cls-1{fill:none;stroke:#b62025;stroke-miterlimit:10;stroke-width:.75px;}</style></defs><g id="graphics"><path class="cls-1" d="M77.07,8.38l3.53-3.01c-1.82,5.93-3.63,11.86-5.45,17.79-.23.75-.47,1.52-1.01,2.09-.49.52-1.16.81-1.82,1.08-1.64.68-3.28,1.33-4.94,1.96-2,.76-4.03,1.48-5.89,2.53-1.43.8-2.74,1.78-4.06,2.75-6.26,4.65-12.51,9.3-18.77,13.94,6.94-5.22,11.97-12.92,13.97-21.37.71-3.02,1.17-6.35,3.41-8.5,1.15-1.1,2.64-1.76,4.11-2.39,2.42-1.05,4.84-2.09,7.26-3.14,3.18-1.38,6.71-3.12,7.75-6.43-2.85.45-5.02,2.69-7.37,4.36-2.87,2.05-6.27,3.36-9.78,3.78-2.1.25-4.45.27-5.94,1.77-1.03,1.04-1.38,2.56-1.62,4.01-.81,4.87-.99,10.11-3.77,14.19-1.34,1.98-3.21,3.53-5.06,5.05-4.54,3.72-8.69,10.4-15.05,8.85-3.35-.82-7.26.95-9.51,3.57-1.88,2.2-2,5.6-4.13,7.56-2.38,2.2-6.63,1.97-8.28,4.75-.29.49-.48,1.06-.46,1.64.03,1.03.69,1.97,1.54,2.55,2.42,1.66,5.9.62,7.95-1.47s3.04-4.97,4.11-7.7,2.39-5.54,4.81-7.2c1.49-1.02,3.28-1.5,5-2.05,5.36-1.7,10.48-4.18,15.14-7.34,3.08-2.09,6.14-4.74,7.05-8.35-3.61.5-6.88,3.56-7.96,7.04-1.91,6.16-4.88,10.89-15.19,13.46-6.58,1.64-10.06,9.9-10.82,16.64-.07.66.03,1.52.67,1.68.29.07.59-.03.86-.16,1.81-.82,3.18-2.34,4.5-3.82,2.42-2.71,4.84-5.42,7.26-8.14,1.5-1.68,3.57-3.52,5.69-2.77,1.35.48,2.15,1.9,2.46,3.29,1.2,5.34-2.82,10.24-5.83,14.81-2.14,3.25-3.88,6.77-5.16,10.44-.22.63-.43,1.31-.25,1.95.23.87,1.09,1.42,1.89,1.83,4.14,2.11,9.36,2.91,13.35.52,3.46-2.07,5.27-6.03,6.61-9.83,2.21-6.26,3.71-12.77,4.47-19.37.37-3.25.81-6.96,3.49-8.83,1.09-.76,2.41-1.09,3.7-1.35,4.67-.94,9.47-1.14,14.17-1.96,2.85-.5,5.76-1.27,8.04-3.06,3.01-2.38,4.48-6.18,5.61-9.85,1.6-5.19,2.8-10.62,2.27-16.03s-3.03-10.83-7.54-13.86c-.22-.15-.45-.29-.71-.35-1.38-.3-1.92,1.7-1.92,3.11,0,7.93-3.35,15.81-9.06,21.32-3.16,3.05-9.41,3.53-12.71,6.41-4.44,3.89-5.45,10.57-8.88,15.38,3.26.74,6.14-2.23,7.81-5.12s3.25-6.3,6.4-7.41c1.8-.63,3.77-.36,5.67-.26,5.78.3,12.34-1.62,14.91-6.81,2.09-4.21.96-9.23-.21-13.79-.13-.51-.3-1.06-.74-1.34-.86-.54-1.9.36-2.47,1.2-4.87,7.14-6.08,16.8-12.68,22.39-4.54,3.84-10.03,6.57-15.71,8.29-8.6,2.6-7.97,8.3-9.98,13.67-2,5.37-2.9,11.08-3.86,16.73-.37,2.18-.78,4.41-1.92,6.3s-3.19,3.4-5.39,3.24c-.61-3.07-1.08-6.25-.39-9.3.68-3.01,2.44-5.64,4.17-8.19,3.83-5.66,7.65-11.32,11.48-16.98,1.07,1.37.72,3.33.31,5.02-1.37,5.73-2.75,11.46-4.12,17.19-.6,2.48-1.21,5.02-2.6,7.17s-3.7,3.87-6.26,3.84c-.43,0-.89-.07-1.19-.37-.33-.32-.38-.83-.39-1.29-.02-1.81.43-3.59.88-5.35,1.22-4.77,2.45-9.57,4.44-14.08,1.19-2.71,2.66-5.31,3.51-8.15.64-2.13.93-4.35,1.5-6.49,1.49-5.56,4.88-10.42,8.59-14.84-2.09-.83-4.08,1.35-5.2,3.3-1.78,3.1-3.33,6.34-5.29,9.34-3.72,5.7-8.82,10.34-13.85,14.92-1.96,1.78-3.92,3.56-6.1,5.06-.55.38-1.21.75-1.86.57-.47-.14-.82-.55-1.06-.98-.94-1.66-.82-3.77-.09-5.53s2-3.25,3.33-4.62c3.94-4.06,8.83-7.96,9.73-13.55-3.49,1.99-5.78,5.55-7.51,9.18s-3.02,7.48-5.21,10.84c-1.41,2.17-3.65,4.29-6.21,3.89-1.71-.27-3.08-1.66-3.79-3.24s-.89-3.34-1.05-5.06c-.06-.62-.11-1.29.22-1.81.3-.48.85-.73,1.37-.95,6.96-3.02,13.92-6.04,20.88-9.06,6.63-2.87,13.7-6.14,17.25-12.43"/><path class="cls-1" d="M18.71,71.38c-.45,1.62-2,2.76-3.65,3.09s-3.36-.04-4.92-.65c-4.15-1.62-7.57-4.99-9.26-9.11-.34-.83-.62-1.74-.46-2.63.26-1.51,1.71-2.55,3.17-2.99s3.03-.44,4.52-.79c1.97-.46,3.8-1.53,5.16-3.02,2.84-3.12,3.69-7.95,7.24-10.23,1.72-1.1,3.8-1.41,5.79-1.86,5.73-1.3,11.22-4.08,15.2-8.41s6.32-10.28,5.73-16.13c-1.77.12-3.21,1.56-3.95,3.17s-.93,3.41-1.29,5.14c-.82,4-2.54,7.8-5.01,11.05-1.09,1.44-3.01,2.88-4.52,1.89,1.03-2.62,3.06-4.69,4.64-7.03,3.64-5.4,4.78-12.05,6.98-18.18,2.21-6.13,6.22-12.38,12.54-13.94,5.03-1.24,10.28.79,15.46.55,1.62-.07,3.23-.37,4.84-.26s3.3.72,4.22,2.05c.61.89.83,2.02,1.49,2.88.79,1.03,2.1,1.51,3.17,2.25s1.99,2.11,1.43,3.29"/></g></svg>