<?xml version="1.0" encoding="UTF-8"?><svg id="Layer_2" xmlns="http://www.w3.org/2000/svg" xmlns:xlink="http://www.w3.org/1999/xlink" viewBox="0 0 308.82 172.43"><defs><style>.cls-1{stroke:url(#linear-gradient-2);}.cls-1,.cls-2,.cls-3,.cls-4{fill:none;stroke-miterlimit:10;}.cls-2{stroke:url(#linear-gradient-3);}.cls-3{stroke:url(#linear-gradient-4);}.cls-4{stroke:url(#linear-gradient);}</style><linearGradient id="linear-gradient" x1="178.22" y1="82.84" x2="308.82" y2="82.84" gradientUnits="userSpaceOnUse"><stop offset=".23" stop-color="#ed2024"/><stop offset=".25" stop-color="#ed2b2e"/><stop offset=".45" stop-color="#f58487"/><stop offset=".61" stop-color="#fac6c7"/><stop offset=".72" stop-color="#fdefef"/><stop offset=".78" stop-color="#fff"/></linearGradient><linearGradient id="linear-gradient-2" x1="229.88" y1="131.57" x2="253.93" y2="131.57" xlink:href="#linear-gradient"/><linearGradient id="linear-gradient-3" x1="177.05" y1="140.39" x2="238.96" y2="140.39" xlink:href="#linear-gradient"/><linearGradient id="linear-gradient-4" x1="0" y1="62.05" x2="293.95" y2="62.05" xlink:href="#linear-gradient"/></defs><g id="graphics"><g id="whale_big"><path class="cls-4" d="M249.4,41.46c-1.77-.02-1.85,3.24-.11,3.58s3.13-2.05,2.26-3.59c-2.66-1.92-7.07,1.07-6.27,4.25,1.35,1.05,3.3.33,4.81-.49,2.15-1.16,4.45-2.8,4.68-5.23.23-2.43-3.42-4.56-4.69-2.47.86,1.69,3.54,1.41,4.89.07,1.35-1.33,1.9-3.26,2.9-4.88,1.33-2.15,3.43-3.7,5.56-5.07,5.23-3.36,10.96-5.95,16.94-7.66-6.7,7.39-19.21,9.36-22.68,18.71-1.14,3.08-1.04,6.48-1.99,9.63-1.76,5.86-6.91,10.07-12.26,13.03-5.36,2.96-11.21,5.09-16.12,8.74-11.3,8.4-15.59,23.12-18.62,36.87,2.49-.65,3.41-3.62,4.03-6.12,2.29-9.25,6.14-18.12,11.33-26.12,1.55-2.39,3.44-4.86,6.19-5.6,2.75-.73,6.3,1.41,5.81,4.22,11.1-12.26,22.21-24.51,33.31-36.77-.8,5.41-3.19,10.58-6.78,14.71,2.83.52,5.64-1.37,7.2-3.79,1.56-2.42,2.18-5.3,3.02-8.06,2.6-8.52,7.57-16.3,14.22-22.23-.38,9.82-4.22,19.46-10.68,26.86-4.84,5.53-10.98,9.74-16.4,14.7-8.7,7.97-15.45,17.81-21.82,27.74,5.42,2.45,11.96,1.05,17-2.13,5.03-3.17,8.87-7.88,12.61-12.51,2.23-2.76,4.48-5.55,5.95-8.78,1.14-2.5,1.78-5.2,2.87-7.72,4.46-10.25,15.51-15.86,22.42-24.64,5.43-6.9,8.18-15.85,7.56-24.6-1.31-.96-3.27.2-3.81,1.73s-.18,3.2-.04,4.82c.54,6.4-2.67,12.57-6.7,17.56-4.04,5-8.97,9.23-12.86,14.34-6.54,8.59-9.9,19.37-17.01,27.49-6.82,7.78-16.46,12.4-25.86,16.73,4.6-9.51,15.43-14.09,22.59-21.86,5.58-6.07,8.77-13.92,13.42-20.72,4.56-6.66,10.48-12.26,15.5-18.58,5.02-6.32,9.25-13.76,9.46-21.82-3.47,3.87-3.71,9.59-5.84,14.34-2.2,4.91-6.34,8.61-10.04,12.51-14.4,15.17-23.43,35.13-39.35,48.7,2.48-5,6.81-8.76,10.73-12.72,11.61-11.72,20.22-26.02,28.71-40.17,1.6-2.67,3.23-5.42,3.69-8.49.29-1.96.13-4.11,1.22-5.77.19,2.03.38,4.06.57,6.09,2.06-.15,2.19-3.05,2.38-5.1.4-4.36,4.3-8.12,8.66-8.36,1.3-1.28,2.22-2.94,2.62-4.72-4.43-2.49-9.65,1.37-13.25,4.95,1.36-3.22,4.28-5.86,7.73-6.42,3.45-.56,7.28,1.24,8.65,4.46.77,1.79.76,3.83.5,5.76-.6,4.48-2.46,8.69-4.32,12.82-7.47,16.64-15.14,33.31-25.46,48.34-10.33,15.03-23.54,28.48-39.85,36.65-2.17-3.75-1.51-8.45-.51-12.66s2.28-8.62,1.15-12.8-5.87-7.72-9.77-5.83c-4.56,2.21-3.89,8.7-4.68,13.71-1.27,8.02-7.4,13.66-12.21,19.72-2.93,3.7-5.22,7.21-6.57,11.76-.87,2.93-1.54,5.94-2.84,8.72-1.37,2.92-3.27,5.66-5.06,8.34-2.32,3.48-4.63,6.95-6.95,10.43-2.13,3.2-4.84,6.12-7.4,9.02-1.8,2.05-3.37,4.23-5.11,6.33"/><path class="cls-1" d="M253.34,99.48c-.36,2.01-.71,4.02-1.07,6.04-.19,1.08-.38,2.17-.22,3.26.13.92.52,1.79.8,2.68.76,2.39.77,5,.05,7.4-.29.95-.69,1.87-.91,2.85-.51,2.25-.03,4.62-.37,6.9-.43,2.86-2.12,5.37-3.92,7.64-.89,1.12-1.85,2.26-2.16,3.65-.18.82-.13,1.67-.23,2.5-.22,1.68-1.07,3.19-1.78,4.73-1.59,3.45-2.5,7.19-4.24,10.56-.77,1.5-1.73,2.94-3.04,4.01-1.31,1.07-3.01,1.73-4.69,1.54-.31-.04-.63-.11-.84-.33-.24-.24-.29-.61-.31-.95-.17-2.85,1.04-5.58,2.15-8.22,2.34-5.59,4.33-11.63,3.36-17.61-.27-1.64-.75-3.24-1.24-4.84-.62-2.05-1.25-4.1-1.87-6.15"/><path class="cls-2" d="M179.03,164.85c-1.71,2.44-1.91,4.07-.75,6.4.1.2.22.41.41.53.42.29.98.11,1.45-.1,4.49-1.99,8.13-5.37,12.09-8.19,4.45-3.17,8.99-6.24,13.48-9.37,5.69-3.96,12.13-8.13,14.49-15.02.31-.91.55-1.87,1.13-2.65,1.7-2.27,5.87-2.38,6.46-5.15.29-1.37-.47-2.99.39-4.09,1.23-1.57,4.53-.37,5.26-2.23.3-.76-.08-1.6-.27-2.4-.59-2.56.92-5.09,2.37-7.28,1.63-2.46,1.38-4.21,3-6.68"/><path class="cls-3" d="M293.71,3.42c-37.23,20.36-71.68,48.45-113.37,56.33-13.48,2.55-29.05-1.68-42.63-3.63-.88-.13-1.33.63-1.4,1.52-.38,4.98,3.64,5.99,5.55,8.27.68.81.45,2.04-.47,2.56-2.14,1.21-4.54.88-7.35,1.35-12.8,2.14-25.97,2.11-38.76-.09-9.77-1.68-20.06-4.58-29.31-1.02-3.47,1.33-6.59,3.53-10.17,4.53-5.36,1.49-11.03.15-16.57-.36-7.61-.7-15.37.21-22.61,2.66-7.19,2.44-14.53,7.27-15.96,14.73,11.62-5.21,26.3,4.22,37.54-1.79,3.75-2.01,7.67-5.72,11.55-3.98,1.63.73,2.68,6.24,3.89,7.54,3.44,3.72,8.29,1.77,12.64,4.36,3.99,2.37,8.56,7.39,10.11,12.08.16.48,3.01.81,3,.31-.06-3.52-3.48-12.72-3.96-14.16-.61-1.83-2.32-3.02-3.85-4.19-5.04-3.85-3.02-3.44-6.75-6.67-10.04-8.68,5.25-12.97,11.53-12.06,3.68.53,19.54,5.74,23.16,6.59,6.18,1.45,16.58,4.84,31.5.53,14.92-4.31,30.45-10.01,45.55-6.4,10.95,2.62,21.94,10.05,32.53,6.22,2.45-.89,4.87-2.38,7.7-.03,1.79,1.49,2.64,3.8,2.67,6.12.14,11.46-3.62,22.91-10.49,32.07-.93,1.24-1.96,2.47-3.35,3.13-1.46.69-3.14.69-4.75.66-14.49-.21-28.99-.73-43.42-2.15-6.9-.68-2.2.11-9.04-1.02-6.06-1-25.53-7.64-30.55-11.46-5.91-4.5-8.79-6.61-14.05-11.81-5.51-5.45-11.47-10.5-18.26-14.3-3.74-2.09-7.35-2.92-11.57-3.28-1.67-.14-11.08-2.01-12.05.08"/></g></g></svg>