<?xml version="1.0" encoding="UTF-8"?><svg id="Layer_2" xmlns="http://www.w3.org/2000/svg" viewBox="0 0 120.09 127.06"><defs><style>.cls-1{fill:#fff;stroke-width:0px;}</style></defs><g id="graphics"><path class="cls-1" d="M118.92,23.29c3.42-8.78-.93-18.7-9.71-22.12-8.78-3.42-18.7.93-22.12,9.71s.93,18.7,9.71,22.12,18.7-.93,22.12-9.71ZM107.66,18.9c-1,2.57-3.9,3.84-6.47,2.84s-3.84-3.9-2.84-6.47,3.9-3.84,6.47-2.84,3.84,3.9,2.84,6.47Z"/><path class="cls-1" d="M25.2,124.35c-20.33-7.93-30.42-30.91-22.5-51.25l11.27,4.39c-5.5,14.12,1.5,30.08,15.62,35.59s30.08-1.5,35.59-15.62l28.18-72.29,11.27,4.39-28.18,72.29c-7.93,20.33-30.91,30.42-51.25,22.5Z"/><path class="cls-1" d="M2.7,73.11l15.91-40.81s-1.16,29.76,9.58,50.75l-12.09-11.98-2.13,6.44-11.27-4.39Z"/></g></svg>