<?xml version="1.0" encoding="UTF-8"?><svg id="Layer_2" xmlns="http://www.w3.org/2000/svg" viewBox="0 0 54.54 94.98"><defs><style>.cls-1{fill:none;stroke:#b62025;stroke-miterlimit:10;stroke-width:.75px;}</style></defs><g id="graphics"><path class="cls-1" d="M22.88,38.72l-1.75-.82c.61-1.19,2.11-1.84,3.39-1.47-.15-.69-.12-1.41.08-2.09,1.9.15,3.77.68,5.46,1.56.39,1.57.33,3.87-1.28,4.07-.56.07-1.11-.19-1.63-.41-1.45-.6-3.03-.89-4.6-.83-.52.74.62,1.52,1.5,1.73,1.45.34,2.89.68,4.34,1.01.28.07.6.12.84-.04.25-.18.29-.53.3-.83.05-.98.1-1.96.15-2.93-2.03-.21-3.99-1.11-5.47-2.51-.26-.25-.53-.57-.46-.93.06-.35.42-.56.7-.78,1.23-.95,1.46-2.75,1.14-4.27s-1.08-2.92-1.45-4.43c-1.03-4.15,1.3-8.87,5.21-10.58-.3,6.31-1.78,12.55-4.34,18.32-.1.23-.21.46-.4.63-.88.76-2-.67-2.26-1.8-1.47-6.42-1.65-13.14-.51-19.63.22-1.28.54-2.62,1.47-3.53.57-.56,1.32-.89,2.05-1.21,2.05-.9,4.1-1.8,6.15-2.69.64-.28,1.37-.56,2-.27,1.11.5.9,2.12.52,3.27-2.7,8.08-5.41,16.17-8.11,24.25.78,1.06,2.5.94,3.53.12s1.52-2.12,1.98-3.36c1.26-3.42,2.53-6.83,3.79-10.25.55-1.49,1.12-3.02,2.15-4.23s2.63-2.07,4.19-1.79c-1.32,5.9-4.19,11.33-7.02,16.67-.94,1.77-2.05,3.69-3.95,4.31-.75.24-1.57.26-2.28.59s-1.31,1.17-.99,1.88c1.41.93,2.99-.79,4.19-1.98,1.95-1.94,4.78-2.81,6.71-4.78,1.54-1.58,2.35-3.7,3.12-5.77,2.01-5.39,4.01-10.77,6.02-16.16.27-.72.54-1.51.29-2.23-.43-1.24-2.21-1.5-3.32-.8s-1.67,1.99-2.1,3.23c-1.25-2.08-3.7-3.39-6.13-3.27-.7-.84-.17-2.23.77-2.78s2.11-.53,3.21-.48c1.86.08,3.78.18,5.45.99s3.05,2.54,2.86,4.39c-.08.79-.43,1.52-.78,2.23-3,6.05-6.46,11.87-10.35,17.39-.5-2.93,1.01-5.77,2.3-8.45,2-4.17,3.56-8.54,4.64-13.04.09-.37.17-.77,0-1.11-.13-.28-.4-.46-.67-.62-3.58-2.08-8.65-1.02-11.1,2.32.65-.29,1.42.26,1.62.94s0,1.41-.23,2.08c-1.01,2.96-2.52,5.76-4.45,8.22.9-3.44,2.22-6.78,3.91-9.91-1.97,1.36-2.19,4.33-4.03,5.87-1.04.87-2.45,1.15-3.56,1.93-2.01,1.42-2.59,4.1-3,6.53-.32,1.87-.64,3.78-.37,5.66.45,3.12,2.48,5.92,2.47,9.07,0,2.13-1.03,4.24-2.71,5.56-2.04-2.01-5.41-1.24-8.12-.34-1.2.4-2.46.84-3.3,1.79-.5.57-.81,1.29-1.11,1.99-1.49,3.52-2.98,7.03-4.48,10.55,4.68-2.97,9.61-6.24,11.79-11.33.56,3.1-.45,6.45-2.65,8.72s-5.51,3.39-8.63,2.93c-.04,3.34-.08,6.67-.13,10.01-.84-1.52-1.94-2.89-3.25-4.04-.48-.43-1.03-.88-1.12-1.52-.06-.42.1-.84.26-1.24.84-2.12,1.69-4.24,2.53-6.36.82-2.07,1.65-4.15,2.85-6.02,1.79-2.8,4.34-5.04,6.93-7.12.47-.38.99-.77,1.6-.82.68-.05,1.3.33,1.95.51,1.37.37,3.04-.08,4.07.89.42.4.64.98,1.05,1.4,1.47,1.51,4.07.12,6.1.69.28-1.55.71-3.31,2.11-4.04,2.21-1.15,4.64,1.16,7.11,1.43-.25,1.46-.51,2.91-.76,4.37-.91.24-1.78-.43-2.64-.83s-2.21-.29-2.34.65c1.04.38,2.09.75,3.13,1.13.26-.5.53-1,.79-1.5,3.77-.06,6.56,3.32,8.75,6.39-.87,1.79-1.75,3.8-1.17,5.71.49,1.6,1.88,3.54.61,4.64-4.2-4.73-8.23-9.6-12.09-14.6,3.25,3.21,6.85,6.07,10.71,8.53-4.29-3.5-8.57-7.01-12.86-10.51,1.99,5.23,4.15,10.7,8.44,14.29,3.5,2.93,8.19,4.4,11.12,7.91,2.35,2.8,3.23,6.52,4.04,10.08,1.19-2.09.97-4.75.02-6.95s-2.57-4.05-4.16-5.85c-.86-.98-1.74-1.97-2.9-2.56s-2.67-.68-3.69.12c4.81,1.89,4.51,9.2,8.41,12.59.61.53,1.34.97,1.78,1.66s.47,1.74-.22,2.19c-.53.35-1.24.18-1.87.09-1.27-.18-2.58.02-3.74.56-.49.23-1.01.81-.67,1.22.65.78,1.8-1.37,2.62-.76.32,2.11-.44,4.37-1.98,5.85s-3.82,2.17-5.92,1.77c-2.33-.44-4.96-2.02-6.79-.53-1.61,1.31-1.08,3.88-1.8,5.83,2.56-1.7,4.86-3.76,6.83-6.12,1.21,1.77-.45,4.09-2.14,5.41-2.14,1.68-4.53,3.05-7.06,4.06.28-5.21,3.05-10.23,7.3-13.25,1.9-1.35,4.31-2.68,4.52-5-.06,2.39.16,4.8.65,7.14,1.34-.09,2.07-1.73,1.87-3.06s-.97-2.5-1.39-3.78c-.89-2.75.15-6.01,2.46-7.75.43-.14.86-.27,1.29-.41-2.42-.92-4.99-1.43-7.57-1.5.01-.47.02-.94.03-1.41,1.33.38,2.65.75,3.98,1.13-2.48-1.31-4.67-3.17-6.37-5.4,2.8,3.54,5.03,7.52,6.61,11.75.79-2.03,2.19-3.82,3.98-5.06-2.91-1.77-5.82-3.54-8.73-5.31-.79-.48-1.62-1-2.09-1.8-.37-.64-.48-1.4-.78-2.07-.99-2.18-3.74-2.89-5.35-4.66-1.84-2.03-1.99-5.23-3.95-7.15,2.15,7.61,6.02,14.73,11.25,20.67.96,1.09,1.99,2.17,2.62,3.48.99,2.05.93,4.45.67,6.71-3.54-.89-7.16-1.46-10.79-1.71,1.38,1.81,2.48,3.83,3.23,5.98.19.55.37,1.16.19,1.72s-.85.99-1.36.71c-.81-2.71-1.62-5.42-2.43-8.12-.2-.68-.43-1.39-.93-1.89-1.56-1.56-4.62-.15-6.25-1.64,2.83,6.45,4.95,13.2,6.31,20.11-.62.03-1.23.07-1.85.1-.37,1.05.27,2.34,1.33,2.68s2.33-.34,2.64-1.41c-3.83.27-7.75-1.27-10.37-4.08-2.57-2.75-3.85-6.54-6.53-9.18-1.68-1.66-3.8-2.77-5.7-4.17s-3.66-3.26-4.05-5.58c-.21-1.21-.02-2.45-.15-3.67-.28-2.61-1.95-4.85-3.69-6.82,2.04-.56,4.26.49,5.62,2.1s2.03,3.7,2.52,5.75c.09.37.19.76.47,1.01.36.31.88.3,1.35.29,2.75-.02,5.5.91,7.66,2.6.59-3.72-.47-7.68-2.86-10.61-.48-.59-1.03-1.19-1.14-1.94-.09-.62.15-1.24.38-1.82,1.24-3.12,2.49-6.25,3.73-9.37,1.1,5.47,2.19,10.94,3.29,16.42.25,1.26.51,2.54,1.08,3.7,1.06,2.16,3.08,3.66,5.02,5.08.36-3.73.9-7.43,1.63-11.1-2.18-.09-4.2-1.76-4.7-3.88-.27-1.15-.13-2.38-.48-3.51-.35-1.11-1.14-2.01-1.65-3.05-1.57-3.17-.39-6.96.81-10.29,1.38,4.42,2.76,8.84,4.13,13.26.3.97.6,1.94.7,2.95.31,3.31-1.66,6.45-1.73,9.77,2.31.81,4.5,1.96,6.48,3.39,0,1.65-.02,3.3-.03,4.95"/></g></svg>