<?xml version="1.0" encoding="UTF-8"?><svg id="Layer_2" xmlns="http://www.w3.org/2000/svg" viewBox="0 0 68.83 65.45"><defs><style>.cls-1{fill:none;stroke:#b62025;stroke-miterlimit:10;stroke-width:.75px;}</style></defs><g id="graphics"><path class="cls-1" d="M39.49,5.24C37.37,1.9,33.24-.05,29.32.45c-1.84.23-3.6.95-5.45,1.01-2.09.07-4.13-.71-6.22-.77-1.72-.05-3.41.38-5.08.81-.79.2-1.6.42-2.27.87-.87.58-1.44,1.49-1.99,2.37-1.94,3.12-3.88,6.25-5.83,9.37-.82,1.32-1.65,2.67-1.96,4.19-.38,1.88.07,3.82.52,5.69.55,2.28,1.13,4.61,2.42,6.56,1.99,2.99,5.39,4.7,8.72,6.03,3.75,1.49,8.21-.81,12.15.05.82.18,1.65.35,2.36.79,2.15,1.35,1.76,8.12,3.84,9.56,1.33.92,3.15.87,4.5,1.76,1.99,1.3,2.29,4.01,3.13,6.24,1.49,3.94,4.99,6.7,8.34,9.26.41.32.84.64,1.35.77.52.13,1.06.04,1.58-.08,2.39-.56,4.8-2.11,5.33-4.51.67-3.06-1.87-5.78-4.07-8.01-4.54-4.61-8.49-9.81-11.73-15.41-.47-.82-.95-1.66-1.7-2.23-.66-.49-1.46-.73-2.25-.97-7.04-2.11-13.88-4.9-20.39-8.32-.32.32.07.84.43,1.12,2.06,1.58,4.13,3.16,6.19,4.74,1.89,1.45,3.79,2.9,5.81,4.17,1,.62,2.03,1.21,2.91,1.98,1.68,1.49,2.69,3.57,3.95,5.43,3.6,5.31,9.25,8.83,14.84,11.98,1.19.67,2.42,1.36,3.26,2.44s1.2,2.65.5,3.82c-.11.18-.24.35-.43.43-.35.17-.77,0-1.12-.16-3.8-1.82-7.01-4.85-9.06-8.53-1.17-2.11-2.04-4.51-3.93-6-.86-.67-1.88-1.12-2.76-1.76s-1.65-1.6-1.65-2.69"/><path class="cls-1" d="M54.18,57.04l10.43,6.56c.8.5,1.86,1.01,2.63.47.27-.19.45-.48.6-.77,1.13-2.25.57-5.03-.69-7.2s-3.14-3.91-4.85-5.75c-2.88-3.1-5.33-6.6-7.27-10.35-1.1-2.14-2.07-4.4-3.69-6.19-1.13-1.25-2.55-2.22-3.68-3.47-1.74-1.93-2.7-4.41-3.63-6.84-.59-1.54-1.18-3.08-1.49-4.7-.5-2.56-.28-5.2-.61-7.79s-1.36-5.3-3.6-6.64c-.7.67-1.21,1.54-1.46,2.48-.06.22-.1.44-.05.66.07.29.29.52.5.74,3.52,3.66,4.43,9.57,2.18,14.12-3.02-1.78-4.18-5.49-5.11-8.87-3.97,1-8.26.68-12.04-.89,1.49,4.08,5.29,6.78,8.01,10.16,1.64,2.04,2.91,4.36,4.44,6.48s3.43,4.11,5.86,5.08c2.12.85,4.52.88,6.56,1.91,2.34,1.18,3.88,3.54,4.84,5.97s1.47,5.03,2.36,7.5c2.1,5.77,6.45,10.69,11.93,13.48,1.02-.43,1.51-1.66,1.43-2.76s-.61-2.12-1.13-3.1c-.87-1.63-1.75-3.28-2.98-4.65-1.12-1.24-2.5-2.23-3.69-3.4-3.04-3-4.85-7.26-8.46-9.54.76,1.71,1.2,3.57,1.31,5.44"/><path class="cls-1" d="M27.96,21.64c-1.93-1.47-3.8-3.03-5.58-4.68-.86-.79-1.71-1.61-2.41-2.55-.7-.94-1.24-1.99-1.97-2.91s-1.73-1.7-2.9-1.82c-1.02,2.33-1.59,4.85-1.67,7.4-.02.62,0,1.25.24,1.82.24.55.67,1,1.09,1.42,1.36,1.38,2.73,2.76,4.09,4.14,1.28,1.3,2.58,2.61,4.16,3.53,1.21.71,2.55,1.17,3.88,1.62,1.79.61,3.59,1.22,5.38,1.83-1.61.09-3.21.17-4.82.26-.97.05-1.98.1-2.89-.25-.86-.33-1.55-.99-2.25-1.6-2.17-1.89-4.6-3.47-7.22-4.67-1.03-.47-2.12-.9-3.26-.9-.57,0-1.13.1-1.69.04-1.48-.15-2.63-1.35-3.45-2.59-1.15-1.73-1.93-3.7-2.3-5.75,1.35.05,2.84.06,3.9-.78.82-.65,1.23-1.69,1.55-2.69.87-2.74,1.39-5.59,1.52-8.46.01-.3.03-.63.24-.85.14-.15.34-.22.54-.27,1.52-.34,2.97.77,4.01,1.93.41.46.83.96,1.41,1.16.43.15.9.12,1.35.09.84-.06,1.68-.11,2.51-.17,1.63-.11,3.51-.12,4.6,1.09.44.49.69,1.13,1.08,1.66.29.39.66.71,1.02,1.03.56.5,1.13,1,1.69,1.5.75.66,1.56,1.35,2.55,1.47s2.14-.65,2.01-1.64c-.13-.98-1.26-1.41-2.19-1.75-1.47-.55-2.84-1.38-4.01-2.43-.16-.15-.33-.31-.37-.53-.04-.24.09-.47.24-.66.83-1.05,2.45-1.37,3.61-.71.5.28.92.72,1.47.89,1.98.62,3.55-2.48,5.6-2.15-1.66-.42-3.33-.85-4.99-1.27-3.1-.79-6.23-1.59-9.43-1.75-4.6-.24-9.21.84-13.39,2.77-1.21.56-2.49,1.31-2.85,2.59-.2.69-.08,1.44-.25,2.14-.14.58-.45,1.11-.79,1.6-1.22,1.8-2.74,3.42-3.68,5.38-1.45,3-1.4,6.48-1.32,9.82,0,.36.02.72.16,1.05.13.31.37.56.6.8,1.66,1.72,3.32,3.43,4.98,5.15,1.04,1.07,2.09,2.16,3.33,2.99,3.53,2.37,8.17,2.41,12.31,1.47"/></g></svg>