<?xml version="1.0" encoding="UTF-8"?><svg id="Layer_2" xmlns="http://www.w3.org/2000/svg" viewBox="0 0 67.6 66.39"><defs><style>.cls-1{fill:none;stroke:#c82127;stroke-miterlimit:10;stroke-width:.75px;}</style></defs><g id="graphics"><g id="plASTIC_KELLY"><path class="cls-1" d="M50.49,12.82c3.73,3.18,7.24,6.72,9.67,10.98s3.71,9.32,2.76,14.13c-2.1-.55-4.23.56-6.28,1.29s-4.75.9-5.99-.88c-.75-1.08-.67-2.52-.52-3.83-.82.02-1.65.04-2.47.07-.52-1.04-.67-2.26-.42-3.4.08-.35.18-.73,0-1.04-.16-.28-.49-.4-.78-.53-1.16-.52-2.06-1.57-2.38-2.79,3.68.98,7.48,1.51,11.29,1.58-.19.86-.76,1.64-1.52,2.08-.94.54-2.1.57-3.18.48-3.64-.31-7.16-1.85-9.87-4.3-.58,1.15-1.83,1.92-3.11,1.93.34-.03.69-.06,1.03-.09.13-1.97-1.73-3.84-3.7-3.71-.29,1.26-.62,2.59-1.55,3.48-.53.5-1.2.82-1.85,1.14-2.97,1.46-5.8,3.21-8.43,5.22-.84.64-1.74,1.74-1.15,2.61,2.76-2.1,5.52-4.2,8.28-6.31.7-.53,1.44-1.08,2.31-1.2-.13,1.59-1.35,2.89-2.7,3.75s-2.87,1.42-4.17,2.35c-1.06.76-1.94,1.75-2.97,2.55-2.27,1.77-5.14,2.57-7.72,3.85s-5.1,3.39-5.45,6.25c2.3-2.06,4.75-3.96,7.21-5.82,1.88-1.42,4.03-2.89,6.37-2.62-1.54,1.76-3.24,3.39-5.05,4.86,2.05,1.05,4.51-2.35,6.48-1.15-1.58,2.62-3.85,4.82-6.51,6.33-2.4,1.36-5.31,2.35-6.54,4.82-.7,1.42-.69,3.08-1.02,4.63-.53,2.5-1.99,4.8-4.05,6.33-1.33-1.66-2.38-3.55-3.09-5.56-.16-.45-.3-.93-.2-1.39.3-1.32,2.11-1.44,3.21-2.22,2.81-1.97.39-7.52,3.33-9.28.84.43.97,1.57.9,2.51-.2,2.8-1.24,5.54-2.94,7.78-.47.61-.98,1.19-1.33,1.87-.92,1.81-.48,4.02.39,5.85,1.08.09,2.03-.65,2.84-1.37,2.77-2.47,5.23-5.28,7.33-8.34.74-1.09,2.12-2.35,3.14-1.51-1.04,1.4-2.08,2.8-3.12,4.2-.32.43-.66.99-.42,1.48.32.66,1.31.52,1.91.93,1.18.8.26,3.07,1.46,3.84.27.18.61.23.93.27,2.47.31,4.98.26,7.44-.14-1.77-.21-3.65-.45-5.05-1.56-1.35-1.07-2.04-2.77-3.28-3.96s-3.63-1.59-4.45-.08c1.34,1.08,2.44,2.46,3.2,4.01.24.48.46,1,.88,1.33.52.41,1.23.46,1.89.48,2.26.09,4.51.18,6.77.27.42.02.85.03,1.23-.14.73-.32,1.02-1.17,1.37-1.88.95-1.91,2.76-3.22,4.35-4.63s3.13-3.21,3.19-5.34c.08-2.96-2.68-5.32-3.03-8.26,1.8-.88,3.1-3.19,5.07-2.85,1.56.27,2.27,2.06,2.61,3.61-1.38-.76-2.81-1.53-4.38-1.69s-3.32.46-4.03,1.87c.8.75,1.18,1.92.99,3-2.02-.12-4.04-.24-6.06-.36.21,1.72.42,3.5-.03,5.18s-1.74,3.25-3.46,3.5c-.7-.91-.02-2.19.48-3.23s.49-2.71-.65-2.89c-.6,1.71-.54,3.57-.93,5.33s-1.48,3.6-3.25,3.96c1.34-6.12,2.68-12.24,4.01-18.36.31-1.42.63-2.87,1.35-4.13.88-1.56,2.29-2.73,3.52-4.03,2.49-2.62,4.33-5.84,5.32-9.32,0,5.22-.12,10.81-3.16,15.05-1.22,1.7-2.87,3.1-3.87,4.95s-1.12,4.45.51,5.77c-2.17.45-3.98-2.09-3.74-4.3s1.74-4.02,3.08-5.79c3.36-4.44,6-9.43,7.79-14.7,1.29,2.27,1.23,5.08.64,7.63s-1.69,4.94-2.41,7.45c-.17.58-.29,1.28.12,1.72.24.26.61.36.96.45,1.29.32,2.59.64,3.88.96-.93.81.21,2.19.91,3.21.72,1.04.95,2.33,1.5,3.46,1.31,2.71,4.2,4.2,6.64,5.97s4.74,4.6,3.96,7.5c-2.6-.4-4.97,1.68-7.59,1.8-3.28.14-5.82-2.69-7.84-5.27-.36-.46-.73-.96-.75-1.54-.01-.73.54-1.32.96-1.92,1.29-1.8,1.59-4.28.75-6.33-.55-1.36-1.58-2.6-1.58-4.07,0-2.1,2.34-3.67,4.42-3.37s3.74,1.99,4.62,3.9c.58,1.26.92,2.69,1.9,3.68.59.6,1.37.99,1.87,1.66.96,1.29.56,3.12,1.01,4.67.52,1.78,2.2,3.27,1.97,5.11.28-3.31-.43-6.69-2.01-9.61-1.13-2.08-2.69-3.91-3.84-5.99-1.44-2.59-2.2-5.49-3.18-8.29-.2-.58-.42-1.16-.81-1.63-.51-.61-1.24-.96-1.93-1.36-1.17-.68-2.24-1.52-3.16-2.51-.54-.57-1.04-1.23-1.14-2.01-.2-1.61,1.35-2.84,2.72-3.71.75-.48,1.52-.96,2.4-1.08.71-.09,1.43.07,2.12.27,2.57.74,4.98,2.02,7.04,3.72-3.7-3.52-9.55-3.11-14.31-4.95-1.46-.57-2.82-1.35-4.25-1.99-2.58-1.16-5.35-1.83-8.11-2.5,3.45,1.79,6.9,3.58,10.35,5.38.24,1.31-1.52,1.99-2.85,2.08-1.51.1-3.06.1-4.47-.42-3-1.11-4.81-4.36-7.82-5.47,1.36.1,2.75-.73,3.3-1.98-3.94-1.09-7.87-2.17-11.81-3.26-1.22-.34-2.54-.67-3.71-.19-.71-.82-.28-2.15.51-2.9s1.84-1.14,2.7-1.8,1.55-1.8,1.14-2.8c-1.17-.79-3.01-.22-3.52,1.09.6.51,1.2,1.01,1.8,1.52-2.64-2.22-7.14-1.6-9.09,1.24,1.7.44,3.28,1.31,4.56,2.5-.22,1.04-.4,2.26.31,3.05.32.35.76.55,1.19.74,3.73,1.64,8.17,3.26,11.7,1.21-.66.25-1.16.89-1.24,1.59,1.4.28,2.88.12,4.2-.44.1.34.19.69.29,1.03-3.25-.69-6.5-1.38-9.74-2.08-.28-.06-.57-.13-.76-.34-.64-.75.59-2.41-.35-2.69-.78.65-2.07.05-2.48-.88s-.21-2.01,0-3c.14-.68.29-1.39.7-1.95.4-.55,1.01-.9,1.56-1.3,2.73-1.98,4.46-5.5,7.73-6.37,1.1-.3,2.27-.25,3.37-.55,1.77-.5,3.17-1.87,4.87-2.58,1.8-.75,3.81-.72,5.76-.67,2.65.06,5.32.13,7.88.79,2.87.75,5.49,2.22,8.08,3.68,1.42.8,2.88,1.64,3.83,2.95,2.04,2.8,1.39,7.2,4.07,9.4-.33-2.28-.82-4.54-1.47-6.74.39-.71,1.45-.08,1.94.57,1.58,2.08,3.13,4.19,4.65,6.31,2.07,2.88,4.1,5.86,5.25,9.21.63,1.85.99,3.88.47,5.77s-2.05,3.59-4,3.83"/><path class="cls-1" d="M49.15,7.63c-.99-.42-2.13-.3-3.16,0s-2.03.74-3.08.95c2.29.6,4.57,1.23,6.83,1.9-.43.42-1.12.34-1.71.23-2.78-.53-5.53-1.23-8.23-2.09-.36-.11-.75-.27-.9-.61-.07-.18-.07-.38-.19-.54-.16-.22-.49-.22-.76-.21-1.56.1-3.11.19-4.67.29-.32.02-.65.04-.95-.08-.36-.14-.61-.47-.87-.76-.7-.8-1.54-1.48-2.46-1.99-.22-.12-.46-.24-.71-.26-.36-.03-.69.14-1.02.29-1.54.72-3.21,1.18-4.91,1.34-2.16.2-4.61.02-6.19,1.51,1.9.38,3.76.99,5.52,1.81-.27.6-.66,1.14-1.14,1.6-.13.12-.27.25-.45.28-.22.05-.45-.06-.66-.16-1.76-.84-3.61-1.63-5.56-1.65.38-1.3,1.3-2.37,2.2-3.39.27-.3.54-.61.89-.81.64-.37,1.42-.32,2.16-.29,3.46.17,7.23-.23,9.8-2.56.32-.29.64-.62,1.06-.74.34-.09.71-.03,1.05.06.78.21,1.51.59,2.13,1.1.53.44,1.01.98,1.66,1.22s1.55-.01,1.68-.69c.38-.09.71.29.83.66s.13.79.35,1.11c.59.87,1.97.37,2.97.71.56.19,1,.66,1.58.79,1.12.25,2.06-.84,3.15-1.16.79-.23,1.7-.03,2.32.52-.85.25-1.72.4-2.61.44.09.42.06.87-.09,1.28"/><path class="cls-1" d="M55.05,19.53c.81.28,1.42,1.07,1.49,1.93-1.01.03-2,.57-2.57,1.41-.47.69-.72,1.61-1.47,1.98-.61.3-1.34.12-1.98-.12-2.2-.82-4.19-2.21-5.72-3.99-.66-.78-1.26-1.64-2.08-2.24-1.39-1.01-3.24-1.12-4.95-.95s-3.42.56-5.13.41c-1.01-.08-2-.36-2.98-.64-.34-.1-.71-.22-.92-.5-.37-.5-.1-1.2-.04-1.82.12-1.15-.63-2.34-1.73-2.72-.35-.12-.74-.16-1.08-.02-.61.25-.86.98-.92,1.63s-.01,1.34-.3,1.93c-.52,1.05-1.93,1.35-3.06,1.06s-2.09-1.02-3.11-1.59c-1.58-.87-3.38-1.36-5.18-1.41-.5.73.36,1.63,1.14,2.07,3.08,1.76,6.43,3.04,9.9,3.81.17.04.35.07.5-.02.17-.1.21-.33.23-.53.13-1.48-.01-3.3,1.24-4.1.48-.31,1.07-.38,1.64-.44,1.32-.14,2.89-.2,3.72.84.74.93.53,2.27.85,3.41.37,1.29,1.44,2.28,2.64,2.86s2.54.82,3.86,1.05c2.15.37,4.3.75,6.45,1.12,1.86.32,1.88-.13,2.26-.58"/></g></g></svg>