<?xml version="1.0" encoding="UTF-8"?><svg id="Layer_2" xmlns="http://www.w3.org/2000/svg" viewBox="0 0 20.7 19.54"><defs><style>.cls-1{fill:none;stroke:#b62025;stroke-miterlimit:10;stroke-width:.75px;}</style></defs><g id="graphics"><g id="plstic_jel"><path class="cls-1" d="M15.29,6.94c-.38-.27-.91-.14-1.33.05s-.86.43-1.33.37c-.43-.06-.79-.39-1-.77s-.29-.82-.37-1.25c-.25-1.32-.56-2.73-1.55-3.64-.64-.59-1.49-.88-2.31-1.15-.31-.1-.63-.2-.94-.14-.33.06-.61.28-.87.49C3.57,2.49,1.48,4.24.65,6.68c-.3.87-.41,1.84-.06,2.69.22.55.62,1.01.98,1.47.65.84,1.21,1.76,1.67,2.72.31.65.61,1.37,1.23,1.75.81.5,1.87.22,2.8.44.78.19,1.42.71,2.05,1.21.82.63,1.66,1.23,2.54,1.79.32.21.67.41,1.06.42.82,0,1.32-.86,1.99-1.33.68-.48,1.67-.64,2.02-1.4.22-.47.1-1.05-.24-1.44s-.86-.59-1.37-.6c.29.24.37.68.26,1.04s-.37.66-.67.89c-.29.22-.65.4-1.01.33-.4-.09-.66-.46-.89-.8-.62-.96-1.24-1.91-1.86-2.87.19-.13.34-.33.41-.55,1.05.24,1.74,1.23,2.64,1.82.89.57,1.97.75,3.02.81.47.03.95.03,1.4-.1.79-.23,1.44-.92,1.62-1.73s-.09-1.7-.71-2.26c-.4-.36-.91-.58-1.36-.87-1.15-.75-1.87-2-2.82-2.98-.07-.07-.16-.15-.26-.16-.07,0-.14.03-.2.07-.49.32-.64.96-.74,1.54-.1.55-.19,1.1-.29,1.65-.04.24-.08.49.02.71.11.23.35.37.56.52.56.4.95.99,1.41,1.5s1.07.96,1.76.94,1.35-.75,1.08-1.38c-.07-.15-.18-.29-.29-.41-.98-1.11-2.11-2.09-3.36-2.91-.16-.1-.33-.21-.52-.21-.12,0-.24.04-.35.1-.66.36-.68,1.47-.05,1.86"/><path class="cls-1" d="M10.61,4.45c.69.23.87,1.1.93,1.82.07.92.08,1.94-.48,2.67-.32.42-.92.7-1.39.45-.3-.16-.46-.5-.6-.82-.21-.47-.42-.95-.63-1.42-.44-.99-1.07-2.12-2.15-2.18-.3.51-.1,1.18.25,1.67s.82.87,1.15,1.36.47,1.19.12,1.67c-.64.26-1.39-.12-1.78-.68s-.5-1.28-.58-1.96-.16-1.39-.5-1.99c-.04-.07-.09-.15-.17-.18-.07-.02-.15,0-.22.02-.54.2-.92.69-1.14,1.23s-.27,1.11-.33,1.69c-.06.62-.13,1.25-.19,1.87-.02.16-.03.34.04.49.07.15.21.25.35.34,1.32.89,2.64,1.78,3.96,2.68.05.04.11.08.18.07.09,0,.15-.08.2-.16.4-.55.79-1.1,1.19-1.65.22-.31.45-.63.77-.84s.74-.32,1.08-.16c.4.19.59.68.55,1.12s-.28.84-.53,1.2c-.33.48-.71.93-1.12,1.35-.13.13-.26.26-.44.31-.21.07-.44.02-.66.02-.84,0-1.51.64-2.21,1.09s-1.77.68-2.26,0"/></g></g></svg>