<?xml version="1.0" encoding="UTF-8"?><svg id="Layer_2" xmlns="http://www.w3.org/2000/svg" viewBox="0 0 46.64 57.83"><defs><style>.cls-1{fill:none;stroke:#b62025;stroke-miterlimit:10;stroke-width:.75px;}</style></defs><g id="graphics"><path class="cls-1" d="M9.02,1.51C5.71,4.45,2.86,7.9.59,11.7c-.19.32-.35.8-.05,1.02.16.11.37.09.56.06,1.09-.18,2.16-.43,3.21-.76-.31,1.77-2,3.19-1.89,4.98.09,1.54,1.46,2.65,2.2,4,.82,1.49.87,3.32,1.74,4.79,2.11,3.55,7.78,3.34,10.15,6.72,1.98,2.82.75,6.63.52,10.07-.29,4.51,1.32,8.93,3.34,12.96.43.85,1.02,1.8,1.97,1.91.84.1,1.58-.52,2.39-.75.91-.27,1.95-.07,2.75-.58.97-.61,1.13-1.96,1.08-3.11-.28-6.1-3.46-11.73-4.18-17.79-.29-2.43-.19-4.92-.68-7.32-.1-.49-.29-1.04-.77-1.19-.54,8.54-.71,17.09-.51,25.64.04,1.61.36,3.62,1.91,4.1,1.54.48,3.06-1.15,3.18-2.76s-.65-3.13-1.23-4.64c-2.39-6.24-1.65-13.27-3.51-19.69.42,7.68,2.46,15.17,3.95,22.72.24,1.19.37,2.64-.56,3.41-.88.73-2.3.37-3.06-.49s-.98-2.05-1.08-3.19c-.32-3.66.38-7.33,1.09-10.94s1.46-7.26,1.21-10.93-1.6-7.42-4.43-9.77c-1.93-1.61-4.55-2.61-5.63-4.88-.72-1.51-.59-3.27-.66-4.94-.1-2.54-.69-5.06-1.74-7.38,2.18.47,2.86,3.16,4.15,4.98.96,1.35,2.37,2.29,3.5,3.5,1.43,1.53,2.39,3.49,2.73,5.55.23,1.46.17,2.99.7,4.37.24.62.6,1.19.95,1.75,1.91,3.03,3.82,6.07,5.73,9.1.56.89,1.14,1.8,2,2.41,1.82,1.29,4.49.96,6.19,2.4,1.89,1.6,2.11,4.98,4.47,5.71.53.16,1.11.16,1.62.39s.92.84.66,1.33c-.12.23-.36.37-.59.49-.95.5-1.95.9-2.99,1.18-.53.14-1.13.25-1.59-.05-.34-.22-.52-.6-.66-.98-.57-1.53-.75-3.21-1.58-4.62-.52-.89-1.28-1.62-1.86-2.47s-.99-1.92-.7-2.91c1.58.83,2.91,2.04,4.23,3.23,2.01,1.83,4.02,3.65,6.03,5.48.33.3.68.64.72,1.09.04.57-.45,1.03-.92,1.36-2.03,1.45-4.37,2.45-6.82,2.93-.45.09-.93.15-1.34-.05-.37-.18-.6-.54-.81-.89-1.8-3.07-2.82-6.95-5.92-8.69.08.61.43,1.18.93,1.53-.69-.97-1.68-1.73-2.8-2.16-.24-.09-.51-.17-.75-.07-.29.12-.42.45-.51.75-.44,1.46-.39,3.42.99,4.08-.32-.75-.32-1.64.01-2.39,1.22.16,2.46.08,3.65-.24.91-3.26-.11-6.98-2.55-9.32.88-.18,1.6.67,2.03,1.46,1.91,3.49,2.82,7.99,6.35,9.83-1.8-2.47-1.8-5.83-3.23-8.52-1.75-3.29-5.38-5.17-7.4-8.29-2.68-4.12-2.06-9.46-2.48-14.35-.04-.44-.09-.9-.32-1.27-.38-.64-1.16-.91-1.85-1.18-3.33-1.32-6.13-3.93-7.67-7.17.87-.24,1.8.23,2.43.89s1.04,1.48,1.57,2.21c2.27,3.09,6.81,4.6,7.63,8.35.36,1.64-.13,3.34-.17,5.02-.08,3.54,1.87,6.86,4.38,9.35s5.59,4.32,8.48,6.35c.51.36,1.03.73,1.4,1.23.53.71.73,1.6.98,2.45.35,1.14.85,2.29,1.75,3.08.67.59,1.52.94,2.2,1.52s1.16,1.56.76,2.36c-.39.79-1.41,1-2.29,1.02.84-.7,1.68-1.4,2.52-2.1.17-.14.35-.3.41-.51.07-.24,0-.49-.11-.72-.95-2.08-3.4-2.96-5.04-4.56-2.05-1.99-2.78-5.03-4.75-7.1-1.51-1.57-3.65-2.47-4.96-4.21-1.49-1.97-1.63-4.64-1.35-7.09s.92-4.88.78-7.35c-.17-2.83-1.43-5.59-3.51-7.51s-4.97-2.95-7.79-2.71c-.63.05-1.27.17-1.89.05-.74-.15-1.37-.61-2.03-.97-1.32-.72-2.85-1.04-4.35-.92-.32.03-.66.08-.92.27-.23.16-.38.41-.53.65-1.45,2.39-2.91,4.79-4.36,7.18-.11.18-.22.37-.22.58-.01,1.16,2.57.45,2.72,1.6-1.37,1.86-2.78,3.81-3.24,6.08-.14.68-.19,1.37-.14,2.06.2,3.24,2.3,6.01,4.32,8.56,1.56-.25,3.23-.49,4.69.12.63.26,1.18.67,1.71,1.09,1.56,1.23,2.98,2.62,4.26,4.15,1.01,1.2,1.94,2.53,2.36,4.04.33,1.19.33,2.44.32,3.67-.01,5.11-.02,10.22-.04,15.33-1.09-.92-.88-2.61-.63-4.02,1.31-7.41.89-15.12-1.22-22.35-.45-1.54-1.04-3.16-2.34-4.11-1.09-.8-2.53-1-3.68-1.73-1.87-1.17-2.64-3.45-3.91-5.26-.6-.86-1.34-1.64-1.75-2.6-.66-1.56-.28-3.5.92-4.7.36-.36.79-.67,1-1.13.2-.43.16-.93.12-1.41-.13-1.6-.26-3.21-.39-4.81.74,1.11,2.39,1.54,2.74,2.82.25.9-.26,1.8-.53,2.7-.87,2.89.79,5.87,2.31,8.48,4.19,7.22,7.72,14.82,10.53,22.69,1.42-1.6,2.2-3.74,2.16-5.88,1.02.96,2.05,1.92,3.07,2.88.93.87,1.92,2.21,1.21,3.27"/><path class="cls-1" d="M20.97,21.05c-.66-1.33-1.72-2.42-2.54-3.66-.8-1.21-1.36-2.57-1.66-3.99,1.14.58,1.79,1.8,2.36,2.95,1.66,3.32,3.31,6.63,4.97,9.95.8,1.59,1.61,3.21,2.79,4.54.97,1.1,2.38,2.03,3.81,1.74"/></g></svg>