<?xml version="1.0" encoding="UTF-8"?><svg id="Layer_2" xmlns="http://www.w3.org/2000/svg" viewBox="0 0 27.85 38.54"><defs><style>.cls-1{fill:none;stroke:#b62025;stroke-miterlimit:10;stroke-width:.75px;}</style></defs><g id="graphics"><path id="plastic_jell" class="cls-1" d="M9.07,21.23l-.55-3.34c-.05-.29-.1-.58-.26-.83-.18-.27-.47-.45-.75-.6-1.51-.82-3.16-1.37-4.57-2.34S.32,11.62.38,9.91c.02-.56.17-1.1.36-1.62.83-2.27,2.52-4.21,4.65-5.36.47.46.56,1.21.41,1.85s-.5,1.22-.81,1.8c-.72,1.35-1.23,2.8-1.53,4.29.86.34,1.72.67,2.58,1.01,1.03-2.2-.73-5.2.79-7.09.74.09,1.11.96,1.09,1.7s-.27,1.48-.14,2.21c.03.18.09.37.22.5.13.13.31.2.48.24.64.15,1.31.03,1.95-.12.73-.17,1.49-.38,2.06-.87s.9-1.34.58-2.02c-.26-.57-.88-.87-1.44-1.13-1.36-.62-2.71-1.24-4.07-1.86.72-.14,1.48-.08,2.17.17.53.2,1.05.51,1.6.44s1.03-.8.63-1.19c-.77-.55-1.81-.46-2.74-.35-1.39.17-2.78.33-4.17.5,2.19-.51,4.4-1.03,6.47-1.92,1.08-.47,2.33-1.04,3.37-.48,1.15.61,1.31,2.2,2.19,3.15.47.51,1.12.81,1.62,1.3,1.26,1.24,1,3.66-.51,4.6-.45.28-.97.44-1.37.77-.99.82-.93,2.31-1.02,3.6-.08,1.18-.37,2.35-.33,3.54.09,2.75,1.93,5.17,4.13,6.82s4.79,2.69,7.2,4c.33.18.69.43.71.8.01.34-.28.6-.54.82-.74.6-1.48,1.19-2.22,1.79-.23.18-.46.37-.75.45-.44.12-.91-.05-1.34-.22-.88-.35-1.8-.77-2.34-1.55-.74-1.07-.56-2.5-.36-3.78,1.22.39,2.4.9,3.54,1.5.36.19.73.41.98.74s.33.81.11,1.16c-1.18.18-2.53.31-3.43-.48-.89-.78-1.07-2.29-2.16-2.77.33,2.82,3.15,5.15,2.68,7.95-.2,1.22-1.03,2.26-2,3.02-.18.15-.38.29-.61.34-.53.12-1.03-.27-1.43-.64-.46-.41-.95-.86-1.1-1.47-.13-.49-.01-1.01.1-1.5.26-1.13.52-2.26.78-3.39,1.22.6,1.72,2.34.98,3.49-.09.14-.2.27-.36.3-.4.08-.56-.51-.54-.92.06-1.01.13-2.03.19-3.04.02-.31.04-.64-.09-.92-.23-.51-.86-.71-1.42-.76s-1.15.02-1.67-.2c-.57-.25-.95-.79-1.3-1.3-2.85-4.21-5.71-8.46-7.72-13.12,2.65,1.21,4.8,3.48,5.87,6.18.4,1.02.72,2.17,1.62,2.8,1.04.72,2.48.48,3.62,1.02,1.11.53,1.73,1.71,2.27,2.81.08-1.46-.94-2.71-1.91-3.8-1.38-1.55-2.75-3.1-4.13-4.66-.83-.94-1.7-1.96-1.85-3.2-.15-1.24.47-2.47.39-3.72,1.21,3.33,2.85,6.48,4.49,9.63.6,1.15,1.23,2.34,2.25,3.15.62.49,1.35.82,2.09,1.11,1.46.57,2.97,1,4.5,1.29"/></g></svg>