<?xml version="1.0" encoding="UTF-8"?><svg id="Layer_2" xmlns="http://www.w3.org/2000/svg" xmlns:xlink="http://www.w3.org/1999/xlink" viewBox="0 0 141.34 54.13"><defs><style>.cls-1{stroke:url(#linear-gradient-2);}.cls-1,.cls-2,.cls-3,.cls-4,.cls-5,.cls-6,.cls-7{fill:none;stroke-miterlimit:10;}.cls-2{stroke:url(#linear-gradient-3);}.cls-3{stroke:url(#linear-gradient-4);}.cls-4{stroke:url(#linear-gradient-6);}.cls-5{stroke:url(#linear-gradient-7);}.cls-6{stroke:url(#linear-gradient-5);}.cls-7{stroke:url(#linear-gradient);}</style><linearGradient id="linear-gradient" x1="127.35" y1="33.17" x2="127.35" y2="0" gradientUnits="userSpaceOnUse"><stop offset=".23" stop-color="#ed2024"/><stop offset=".25" stop-color="#ed2b2e"/><stop offset=".45" stop-color="#f58487"/><stop offset=".61" stop-color="#fac6c7"/><stop offset=".72" stop-color="#fdefef"/><stop offset=".78" stop-color="#fff"/></linearGradient><linearGradient id="linear-gradient-2" x1="107.47" y1="54.13" x2="107.47" y2="41.21" xlink:href="#linear-gradient"/><linearGradient id="linear-gradient-3" x1="129.85" y1="29.92" x2="129.85" y2="5.49" xlink:href="#linear-gradient"/><linearGradient id="linear-gradient-4" x1="73.29" y1="51.52" x2="73.29" y2="29.21" xlink:href="#linear-gradient"/><linearGradient id="linear-gradient-5" x1="18.36" y1="52.58" x2="18.36" y2="34.89" xlink:href="#linear-gradient"/><linearGradient id="linear-gradient-6" x1="108.01" y1="53.17" x2="108.01" y2="40.17" xlink:href="#linear-gradient"/><linearGradient id="linear-gradient-7" x1="58.22" y1="36.95" x2="58.22" y2="8.02" xlink:href="#linear-gradient"/></defs><g id="graphics"><path class="cls-7" d="M136.28,10.02c-1.2-.55-2.69-.41-3.77.36.69.18,1.43.41,1.85.98.27.37.5.93.95.86-.05-.43-.1-.89.05-1.29s.59-.75,1.01-.64c-.98-.77-2.57-.62-3.39.34.62.22,1.26.47,1.68.98.24.29.38.66.46,1.03.31,1.44-.37,3.03-1.62,3.8-.69.43-1.49.61-2.29.75-.81.15-1.63.26-2.45.34-.59.06-1.21.09-1.77-.12s-1.04-.74-1.02-1.33c.03-.6.74-1.11,1.25-.81.53.3.5,1.1.88,1.57.21.26.53.4.84.5,1.67.55,3.6.23,5-.83.32-.24.65-.53,1.06-.55.54-.02.95.46,1.36.82.78.69,2.04,1.02,2.85.36.18-.15.33-.35.32-.59s-.26-.45-.47-.36c-.05,1.09-.93,2.15-2.02,2.19s-2.09-1.17-1.69-2.19c1.62.67,3.71-.1,4.49-1.68.41-.83.47-1.87,0-2.67s-1.5-1.28-2.37-.97c.18-.35.66-.51,1.02-.32-.23-.67.05.26-.49-.2-.37-.31-.8-.57-1.05-.97-.38-.59-.26-1.46.29-1.9s1.45-.36,1.88.19c.33.42.37,1,.34,1.54-.02.34-.06.7-.27.97-.21.25-.55.37-.87.36-.82-.02-1.52-.88-1.36-1.69s1.16-1.33,1.91-1,1.03,1.44.51,2.08c-.09.11-.19.2-.32.24-.15.04-.31,0-.47-.04-.51-.13-1.07-.3-1.36-.74-.51-.78.29-1.92,1.23-1.97s2.04.83,2.19,1.75c.23,1.37.25.86.07,2.27s-.67,2.76-1.17,4.09c-.62,1.67-1.26,3.34-2.11,4.91-.83,1.52-1.85,2.93-2.87,4.34-.31.43-.63.87-1.06,1.19-1.38,1.04-3.35.55-4.93-.15-1.8-.8-3.52-1.82-4.92-3.2-1.4-1.38-2.48-3.14-2.84-5.07.71-.2,1.41.35,1.89.91.71.82,1.27,1.76,1.81,2.7.9,1.57,1.76,3.17,2.3,4.9.53,1.73.72,3.6.26,5.35-.11.41-.27.85-.64,1.07-.25.16-.57.19-.86.19-2.66.05-5.19-1.43-6.91-3.47s-2.72-4.58-3.45-7.15c-.53-1.87-.94-3.77-1.18-5.7-.19-1.5-.27-3.03.04-4.51.46-2.18,1.74-4.12,3.32-5.7s3.44-2.83,5.3-4.07c.77-.51,1.55-1.03,2.43-1.3.73-.22,1.5-.27,2.26-.27,1.99-.01,3.97.25,5.89.77.82.22,1.63.5,2.38.91,2.01,1.11,3.36,3.15,4.27,5.26.6,1.39.87,2.91.74,4.42"/><path class="cls-1" d="M117.53,41.22c-.02,1.32-.53,2.59-1.27,3.68-.74,1.09-1.69,2.02-2.66,2.9-2.13,1.92-4.47,3.7-7.17,4.64-2.1.73-4.33.94-6.54,1.14-.6.05-1.22.11-1.79-.11-.32-.12-.63-.36-.67-.7s.36-.69.64-.5c.31-.51-.33-1.27.06-1.72.2-.24.59-.24.79-.48.17-.2.14-.49.21-.74.19-.69,1.02-.94,1.72-1.05s1.52-.24,1.87-.86c.09-.16.14-.36.09-.54-.03-.1-.09-.19-.12-.29-.1-.29.03-.62.24-.83s.09-.12.37-.25"/><path class="cls-2" d="M128.66,8.48c.19-.6-.14-1.27-.64-1.67s-1.13-.56-1.74-.73c-.35-.09-.75-.18-1.05.02-.19.12-.3.33-.38.54-.22.53-.33,1.1-.32,1.67,0,.18.02.37.13.52.08.11.2.18.32.25.62.32,1.36.46,2.04.29s1.28-.69,1.48-1.36-.08-1.48-.7-1.82c-.49-.27-1.11-.22-1.59.07s-.81.77-.97,1.3c-.13.42-.14.91.11,1.26.2.28.54.43.87.52.38.11.79.17,1.17.07s.73-.39.81-.78c.03-.15.02-.32.09-.46.06-.12.18-.21.31-.27.5-.25,1.1-.19,1.61.03s.41-1.36.84-1.01c.32.26.21.51.41.87s.25.83.02,1.16c-.21.3-.59.43-.94.53-1.46.4-2.98.64-4.31,1.35-1.33.71-2.48,2.04-2.42,3.55.04.93.52,1.79,1.12,2.51.47.56,1.01,1.06,1.66,1.39,1.05.54,2.29.6,3.44.39s2.25-.69,3.31-1.19c.41-.2.83-.4,1.29-.43s.96.15,1.17.55c.32.62-.16,1.34-.51,1.95-.32.57-.52,1.2-.92,1.72-.63.83-1.7,1.27-2.74,1.24-1.04-.03-2.04-.49-2.83-1.16-.09-.08-.18-.16-.21-.27-.11-.33.28-.6.62-.69.98-.27,2.12-.13,2.88.56,1,.9,1.08,2.43.87,3.75-.29,1.77-.99,3.47-2.04,4.93"/><path class="cls-3" d="M131.06,29.56c-5.2,5.2-10.59,10.53-17.39,13.33-3.69,1.52-7.66,2.24-11.62,2.79-13.39,1.87-26.99,1.97-40.48,1.02-11.06-.78-22.17-2.27-33.19-1.05-4.35.48-9.02,1.59-11.81,4.97,4.25-1.19,8.43-2.66,12.49-4.39"/><path class="cls-6" d="M28.93,46.25c.32.04.65-.17.75-.47-1.51-.13-3.02.28-4.46.76-1.67.55-3.31,1.18-4.91,1.9-1.26.57-2.49,1.19-3.77,1.71-3.33,1.36-6.95,2.02-10.54,1.93-.7-.02-1.56-.2-1.72-.87-.06-.26.01-.54.14-.77.33-.59.99-.93,1.65-1.05s1.34-.08,2.02-.1c2.21-.07,4.36-.87,6.2-2.09,1.23-.81,2.36-1.82,3.73-2.37,1.14-.45,2.4-.56,3.55-1,.36-.13.74-.34.85-.7.15-.51-.35-1.02-.87-1.09s-1.04.16-1.52.39c-2.29,1.08-4.58,2.17-6.87,3.25-1.36.64-2.74,1.29-4.22,1.53-1.07.17-2.17.12-3.23.34-.2.04-.44.13-.48.33-.03.12.03.24.09.35.62,1.07,2.25,1.36,3.2.57-.47-.74-1.15-1.34-1.94-1.72-.66-.32-1.45-.53-1.83-1.16-.33-.54-.24-1.24.03-1.82.5-1.06,1.55-1.78,2.68-2.12s2.32-.34,3.49-.3c4,.15,7.98.81,11.98.93,4,.12,8.15-.36,11.64-2.33-2.33.03-4.56.88-6.8,1.56-4.38,1.33-8.96,2.03-13.54,1.99-2.26-.02-4.52-.22-6.72-.71-1.83-.41-3.68-1.05-5.05-2.34-1.37-1.29-2.14-3.34-1.49-5.1.73.14,1.4.48,2.09.72,1.77.63,3.68.66,5.55.69,2.65.04,5.58-.02,7.52-1.82"/><path class="cls-4" d="M117.46,41.26c.09-.32-.27-.62-.6-.59s-.6.25-.84.48c-2.37,2.27-3.86,5.37-6.4,7.45-2.09,1.71-4.72,2.58-7.3,3.36-1.06.32-2.14.63-3.24.7-.12,0-.25.01-.36-.05-.26-.14-.22-.56,0-.75s.54-.22.83-.24c-.21-.22-.15-.58,0-.84s.35-.51.4-.8c.02-.11.02-.23.08-.33.13-.21.45-.18.68-.09.39.15.75.37,1.15.47s.89.02,1.13-.32c-.47-.19-.92-.25-1.41-.53s1.02-.37,1.57-.37c.55,0,1.89-.32,1.4-.48-.38-.12-.94.04-1.29-.29-.32-.3.42-.55.3-.98-.11-.37-.21-.75-.32-1.12-.04-.13-.08-.29,0-.41.04-.06.09-.11.15-.15.43-.33.88-.64,1.33-.94.42-.27.86-.53,1.34-.67.67-.21,1.39-.19,2.09-.21,3.16-.11,5.68-.92,8.27-2.74"/><path class="cls-5" d="M16.08,35.15c-.82-.51-1.87-.11-2.78.2-2.78.95-5.87.92-8.64-.07-.56-.2-1.21-.61-1.11-1.2.11-.61.91-.76,1.54-.76.31-.98-1.74-1.63-1.31-2.56.23-.49.96-.45,1.4-.78.58-.45.4-1.41-.1-1.94-.5-.53-1.22-.79-1.81-1.22-.17-.12-.35-.28-.38-.49-.05-.35.3-.61.48-.91.49-.81-.29-1.79-1.07-2.32s-1.75-1.1-1.79-2.04c2.07-1.13,4.63-1.05,6.88-.33s4.25,2.03,6.22,3.33c-1.65.49-3.39.69-5.11.59-1.64-.09-3.7-.25-4.48,1.19,1.78.66,3.72.64,5.62.72,2.71.12,5.42.49,8.07,1.09.68.15,1.46.41,1.71,1.06-3.62,1.43-7.49,2.23-11.38,2.34-.82.02-1.86.17-2.09.96,4.58.13,9.17.26,13.75.39-4.51.99-9.05,1.79-13.63,2.42,3.18,2.36,7.64,1.73,11.44.58.86-.26,1.79-.61,2.19-1.41.44-.86.09-1.93-.27-2.78-.46-1.11-1.03-2.18-1.76-3.13-3.17-4.1-7.71-6.27-12.36-7.92,0-.27,0-.53,0-.8l1.07-.02c-1.76.02-3.51.28-5.2.76-.31.09-.69.32-.57.62,1.74.81,3.63-.69,5.52-1.05,1.17-.22,2.39.02,3.54.32,5.97,1.57,11.31,4.88,16.64,8.02,1.01.59,2.03,1.19,3.15,1.51,1.2.35,2.47.38,3.72.29,5.74-.43,10.5-3.74,15.49-6.27,5.29-2.69,10.74-5.05,16.32-7.09,7.64-2.79,15.62-5.34,23.77-5.9,2.34-.16,4.68-.32,7.02-.22,3.27.14,6.51.8,9.78,1.04,2.66.2,5.85,1.11,8.52.65,1.24-.21,2.14-1.45,1.81-2.67-.48-1.75-2.81-.32-3.4.28-.75.76-.84,1.96-.66,3.02s.57,2.07.63,3.14c.12,2.23-1.26,4.26-2.75,5.93-6.77,7.56-16.78,11.33-26.64,13.76-1.12.28-2.32.54-3.4.14.31-.75,1.04-1.31,1.84-1.41-.55-.38-.84-1.1-.69-1.76s.72-1.19,1.38-1.29c-.46-.9.3-1.92,1-2.64.47-.48.96-.97,1.59-1.16.53-.16,1.1-.1,1.63-.24,1.64-.4,2.39-2.38,3.88-3.16.56-.29,1.19-.4,1.76-.67s1.11-.76,1.14-1.39c.01-.31-.1-.62-.02-.91.08-.28.31-.49.54-.67,1.31-1.02,2.9-1.66,4.55-1.83-1.69-.78-5.23-.26-6.5,2.3-.07.14-.14.3-.12.46.04.47.66.6,1.13.56,3.44-.27,5.11-1.92,6.2-4.43.09-.22.19-.45.37-.6.2-.16.46-.19.71-.19,2.83-.09,5.49,2.38,5.62,5.21.02.58-.05,1.19-.39,1.66-.34.47-1,.74-1.52.5s-.7-1.08-.23-1.42c.4-.29,1.02-.06,1.28.36s.25.96.15,1.45c-.53,2.71-3.11,4.48-5.56,5.75-4.75,2.46-10.08,4.23-15.38,3.57-.31-.71-.07-1.61.56-2.07.43-.31.99-.41,1.42-.73s.61-1.08.15-1.34c-1.24.96-2.7,1.63-4.23,1.95,1.2-1.45,2.61-2.73,4.17-3.78-.55-.21-1.19-.15-1.7.14"/></g></svg>