<?xml version="1.0" encoding="UTF-8"?><svg id="Layer_2" xmlns="http://www.w3.org/2000/svg" viewBox="0 0 889.19 295.64"><defs><style>.cls-1{fill:none;stroke:#fff;stroke-linecap:round;stroke-linejoin:round;stroke-width:8px;}</style></defs><g id="graphics"><path class="cls-1" d="M626.26,16.66c10.69,24.12,16.67,50.32,17.52,76.69-27.35-9.29-13.69-67.43-39.4-80.61,5.88,21.2,10.62,50.41,10.94,72.41-6.86-.94-5.66-5.71-12.51-6.64-1.68-11.81-2.2-28.81-6.06-40.09.84,10.41-1.39,30.42-.55,40.83-8.47-2.13-13.85-17.56-12.89-27.87-.25,8.41-2.32,17.83-2.57,26.23-.92-7.54-6.49-15.66-11.71-21.19,3.78,8.09,2.03,17.77-.17,26.42-8.5-7.48-10.29-10.16-12.48-21.26-1.32,10.76-5.2,14.07-3.36,24.75-7.53-7.09-11.66-17.65-10.94-27.96-.62,5.84-1.23,11.67-1.85,17.51-48.3,3.81-57.8,3.06-86.33,4.76-28.07,1.67-48.43,6.25-82.13,11.21,8.49-4.03,6.02-17.2-.21-24.24-6.22-7.04-15.17-12.69-17.06-21.9,21.65,8.3,42.36,19.05,61.61,31.98,3.72,2.5,5.38,8.53,1.23,6.83,3.45,3.43,9.28.71,8.78-4.13-.51-4.84-4.8-8.3-8.87-10.96-15.97-10.45-34.04-17.65-52.82-21.05,8.01,13.38,17.98,25.59,29.48,36.11-83.76,33.57-170.59,59.49-259.05,77.32C102.09,111.55,62.99,56.87,4,45.85c38.64,28.32,63.11,75.08,64.35,122.98,19.77-12.36,43.7-17.93,66.9-15.59,5.93.6,14.24-.06,14.76-6,7.6,3.24,17.28.56,22.13-6.14-1.37,5.05,5.94,8.86,10.61,6.5,4.67-2.36,6.71-7.86,8.03-12.92,5.32,8.68,20.72,7.6,24.78-1.74,2.32,2.65,4.65,5.31,6.97,7.96,2.98-.94,5.96-1.87,8.94-2.81.96-3.78,1.92-7.55,2.88-11.33,7.85,9.39,25.46,6.97,30.49-4.19,4.22,7.64,18.79,2.9,17.72-5.76,3.9,2.5,7.8,4.99,11.7,7.49,10.05-2.47,18.56-10.44,21.69-20.3,2.6,1.63,5.19,3.26,7.79,4.88-50.99,25.18-106.37,41.44-162.88,47.83-7.03.79-14.29,1.5-20.51,4.87-8.67,4.7-13.91,13.73-19.04,22.15-24.61,40.31-56.79,75.98-94.36,104.61,9.07-41.51,48.79-76.85,40.6-118.54,4.87-.92,9.75-1.84,14.62-2.76-1.02,5.6-3.63,10.91-7.47,15.12,11.63,3.63,23.96,4.99,36.1,3.99-20.34,34.6-46.78,65.61-77.74,91.17,10.36-20.39,29.07-35.22,41.74-54.26,12.67-19.04,17.67-47.37.96-62.98,7-.4,11.84-7.95,11.82-14.97-.01-7.01-3.51-13.49-6.91-19.62C63.04,93.71,41.9,59.07,6.86,49.4"/><path class="cls-1" d="M853.68,159.73c6.74,1.26,13.48,2.51,20.23,3.77-13.35,22.35-34.12,40.19-58.23,50.01-2.32,9.02.22,25.3,6.34,15.42,4.9-7.92,24.63-18.22,27.57-27.05,1.96-5.89,3.92-11.77,5.88-17.66-10.64,10.73-18.52,24.17-22.7,38.7,16.8-2.49,33.93-2.73,50.79-.7-7.33-13.38-29.6-9.34-37.69-10.57,6.35,3.83,28.19-3.73,39.32,8.54-45.43,18.51-86.91,39.47-133.88,53.59-27.39,8.23-56.66,14.95-84.34,7.76-5.86-1.52-12.19-4.24-14.4-9.88-1.59-4.04-.62-8.59.45-12.8,9.32-36.56,25.55-71.35,47.58-101.98-2.61,13.72-5.42,27.92-13.49,39.32-8.07,11.4-22.96,19.24-36.19,14.75-11.36-3.86-18.56-15.45-29.63-20.09-9.96-4.17-21.27-2.08-31.95-.49-34.43,5.12-69.75,4.18-103.85-2.77.84,9.16,8.83,16.39,17.59,19.22,8.75,2.83,18.2,2.16,27.38,1.46,38.07-2.91,76.15-5.83,114.22-8.74-7.48-17.61-29.57-22.96-48.62-24.64-31.95-2.82-64.25-1.77-95.95,3.12-9.59,1.48-21.79,6.78-20.24,16.36,1.33,8.25,11.79,10.8,20.12,11.38,52.62,3.66,105.57,2.39,157.95-3.78-11.22-8.59-24.73-14.17-38.74-15.98,19.31-6.1,34.82,19.75,55.01,21.29,6.73.51,13.33-1.79,19.69-4.06,17.58-6.27,35.15-12.54,52.73-18.81,1.96,19.56-28.02,29.02-30.03,48.58-1.37,13.36,12,24.4,25.32,26.12,13.32,1.72,26.5-3.03,39.46-6.55,8.02-2.18,20.24-.85,19.95,7.46-123.69,30.68-254.19,33.55-379.11,8.34-24.97-5.04-52.2-10.91-74.85.73,5.52-6.1,11.04-12.2,16.55-18.3-32.71,2.44-60.19-22.11-87.99-39.51-44.54-27.88-99.03-39.47-151.06-32.13,8.72-4.76,17.97-9.66,27.9-9.41,9.93.25,20.42,7.78,20.11,17.72,3.82-2.48,7.64-4.95,11.46-7.43,3.26,1.82,5.39,5.51,5.32,9.25,6.92-7.4,22.06-1.02,21.59,9.1,5.98-8.63,22.64-3.32,22.53,7.17,7.79-5.69,20.85.06,21.93,9.64,8.22-7.19,23.74.03,23.54,10.95,6.19-2.06,12.83-2.75,19.31-2.01.79,3.82,1.58,7.65,2.37,11.47,5.41-8.14,19.59-5.67,24.2,2.95,4.62,8.62,1.23,19.76-5.41,26.94-6.64,7.17-15.87,11.27-24.83,15.18,5.95,8.63,18.77,9.51,28.58,5.82,9.81-3.7,17.91-10.81,27.14-15.78,22.81-12.28,50.69-10.53,75.79-4.13,25.1,6.41,49.05,17.09,74.49,22,18.41,3.55,37.42,4.01,55.98,1.34,6.63-.95,13.92-2.76,17.56-8.38,4.86-7.49.67-17.57-4.93-24.52-18.82-23.39-50.24-31.67-79.45-38.61-39.14-9.3-78.45-18.62-118.54-21.92-32.91-2.71-66.12-1.35-98.86-5.57-35.45-4.57-69.88-15.64-105.45-19.23,110.71-34.66,228.78-38.36,344.64-32.57,115.86,5.79,231.25,20.78,347.25,22.4-69.66-37.31-145.32-63.39-223.18-76.93-35.75-6.22-72.69-9.77-108.17-2.15-12.13,2.61-29.54,3.4-32-8.76,13.62,3.12,33.05,2.76,35.62-10.97"/><path class="cls-1" d="M786.74,185.28c-.62,11.19,7.11,15.88,9.46,16.39,5.72,1.24,11.62-.97,16.77-3.76,2.53-1.38,5-2.93,7.08-4.93,2.08-2,3.75-4.49,4.44-7.3.33-1.34.43-2.73.4-4.11-.08-4.99-1.81-10.05-5.3-13.61-3.49-3.56-8.84-5.4-13.67-4.15-4.05,1.05-7.29,4.03-10.14,7.09-3.34,3.59-6.43,7.49-8.61,11.88-2.18,4.4-3.42,9.35-2.95,14.23.07.72.18,1.45.48,2.1.32.69.85,1.26,1.4,1.78,3.32,3.1,7.99,4.54,12.53,4.36,4.54-.18,8.93-1.89,12.71-4.4,2.13-1.41,4.12-3.1,5.53-5.23,1.61-2.42,2.4-5.29,2.81-8.17.2-1.43.31-2.9-.06-4.29-.4-1.51-1.34-2.82-2.27-4.08-1.26-1.7-2.56-3.38-3.95-4.97-.77-.88-1.6-1.76-2.67-2.23-.8-.34-1.68-.44-2.55-.39-2.25.12-4.38,1.16-6.11,2.6-1.73,1.44-3.1,3.26-4.34,5.15-1.21,1.84-2.32,3.84-2.54,6.03-.1.94,0,1.94.49,2.74.37.6.95,1.05,1.55,1.42,3.71,2.34,8.78,2.32,12.47-.06s5.81-6.99,5.21-11.33c-.12-.86-.34-1.72-.77-2.48-.91-1.59-2.66-2.53-4.42-3.06-1.72-.51-3.82-.62-5.08.66"/><path class="cls-1" d="M627.13,18.66c-3.93-6.16-9.5-11.27-15.98-14.66-.31,1.91-.46,3.84-.45,5.77,0,1.86.14,3.8-.63,5.49s-2.82,2.98-4.5,2.18c-.81,3.44-2.4,6.7-4.6,9.46-1.24,1.55-3.03,3.07-4.98,2.71-1.6-.3-2.69-1.75-3.62-3.09.86,1.34,1.36,2.9,1.43,4.49.16,3.56-1.78,6.86-3.95,9.68-1.33,1.73-2.89,3.45-4.99,4.03-2.8.76-6.03-1.06-6.83-3.85.81,2.64,1.43,5.98-.69,7.75-.72.6-1.64.89-2.54,1.16-1.01.31-2.02.62-3.03.93-.51.16-1.06.31-1.56.14-.44-.15-.76-.52-1.06-.87-1.13-1.38-2.15-2.85-3.04-4.4-.57,2.64-.75,5.36-.54,8.05-2.87,1.17-5.94,1.85-9.03,2.02-.75-.94-1.5-1.88-2.26-2.82-.2,1.75-.41,3.53-1.15,5.14-.74,1.6-2.1,3.02-3.83,3.36-2,.39-4.39-.61-5.94.71-.86-1.17-1.71-2.35-2.57-3.52-.39,1.57-.79,3.17-1.67,4.52s-2.34,2.44-3.95,2.42c-1.37-.01-2.6-.78-3.68-1.63-.26-.2-.54-.45-.55-.78s.43-.64.65-.39"/></g></svg>