<?xml version="1.0" encoding="UTF-8"?><svg id="Layer_2" xmlns="http://www.w3.org/2000/svg" xmlns:xlink="http://www.w3.org/1999/xlink" viewBox="0 0 183.79 116.12"><defs><style>.cls-1{stroke:url(#linear-gradient-2);}.cls-1,.cls-2,.cls-3,.cls-4,.cls-5,.cls-6,.cls-7,.cls-8{fill:none;stroke-miterlimit:10;}.cls-2{stroke:url(#linear-gradient-3);}.cls-3{stroke:url(#linear-gradient-4);}.cls-4{stroke:url(#linear-gradient-6);}.cls-5{stroke:url(#linear-gradient-7);}.cls-6{stroke:url(#linear-gradient-5);}.cls-7{stroke:url(#linear-gradient);}.cls-8{stroke:url(#linear-gradient-8);}</style><linearGradient id="linear-gradient" x1="286.77" y1="81.52" x2="356.79" y2="81.52" gradientTransform="translate(432.91) rotate(-180) scale(1 -1)" gradientUnits="userSpaceOnUse"><stop offset=".23" stop-color="#ed2024"/><stop offset=".25" stop-color="#ed2b2e"/><stop offset=".45" stop-color="#f58487"/><stop offset=".61" stop-color="#fac6c7"/><stop offset=".72" stop-color="#fdefef"/><stop offset=".78" stop-color="#fff"/></linearGradient><linearGradient id="linear-gradient-2" x1="392.33" y1="55.22" x2="432.91" y2="55.22" xlink:href="#linear-gradient"/><linearGradient id="linear-gradient-3" x1="290.14" y1="33.69" x2="419.65" y2="33.69" xlink:href="#linear-gradient"/><linearGradient id="linear-gradient-4" x1="289.96" y1="68.06" x2="422.02" y2="68.06" xlink:href="#linear-gradient"/><linearGradient id="linear-gradient-5" x1="280.9" y1="26.92" x2="376.97" y2="26.92" xlink:href="#linear-gradient"/><linearGradient id="linear-gradient-6" x1="272.41" y1="34.53" x2="375.73" y2="34.53" xlink:href="#linear-gradient"/><linearGradient id="linear-gradient-7" x1="249.12" y1="65.33" x2="334.66" y2="65.33" xlink:href="#linear-gradient"/><linearGradient id="linear-gradient-8" x1="387.74" y1="16.32" x2="422.05" y2="16.32" xlink:href="#linear-gradient"/></defs><g id="graphics"><path class="cls-7" d="M88.33,53.22c-.83.68-.67,2.46-.67,2.46.02.2.17.27.33.16l4.38-3.1c.16-.12.13-.25-.07-.29l-.71-.15c-.19-.04-.2-.02-.02.05,0,0,1.81.68,2.88,1.09.6.22,1.25.5,1.51,1.07s-.54,1.04-.54,1.04c-.17.1-.16.13.03.07l2.52-.62c.2-.03.38.1.42.3l.61,3.3c.04.19.21.43.39.52,0,0,1.78.9,2.03,2.01.25,1.11-.2,3.02-.2,3.02-.05.19.08.33.27.3,0,0,3.03-.45,4.1.74,1.07,1.2.21,4.05.21,4.05-.06.19.04.42.22.51,0,0,2.55,1.29,2.94,2.76.12.46.17.97.49,1.33.59.65,1.84.54,2.25,1.31.39.72-.23,1.82.42,2.34.38.31.96.17,1.43.32.77.26,1.03,1.21.94,2-.08.79-.38,1.58-.24,2.36.3,1.63,2.23,2.32,3.79,2.99,1.56.66,2.33,3.37,2.33,3.37.05.19.25.41.43.48,0,0,1.98.79,2.45,1.94s.76,2.49,1.79,3.23c.85.61,2.01.63,2.94,1.12,2.7,1.41,2.14,5.61,4.38,7.64,1.04.93,2.64,1.38,3.16,2.66.62,1.54-.45,3.92,1.11,4.57.4.17.85.12,1.28.16,1.47.11,2.96,2.32,2.96,2.32.11.16.36.33.55.38l4.1,2.43c.13.15.08.23-.11.18,0,0-12.82-3.55-15.39-9.49-.63-1.46-1.08-3.06-2.2-4.23-1.01-1.06-2.44-1.61-3.76-2.27-3.88-1.94-7.07-4.97-10.08-8.01-3.21-3.25-6.25-6.66-9.21-10.14-2.51-2.95-6.2-9.44-6.2-9.44-.1-.17-.03-.37.16-.43l3.61-1.81c.16-.11.14-.2-.06-.21,0,0-2.84-.05-3.9-1.15s-.95-3.85-.95-3.85c0-.2-.13-.28-.3-.18l-1.06.42c-.19.05-.43-.06-.53-.23l-2.52-2.67c-.16-.11-.19-.33-.07-.48l.26-.32c.13-.15.07-.29-.13-.3,0,0-1.68-.1-2.09-1.04s-.44-2.06-1.12-2.83c-.68-.78-1.81-1-2.74-1.48s-1.11-2.12-1.11-2.12c-.02-.2-.2-.33-.39-.28,0,0-1.57.32-2.06,1.14s-.59,1.79-.69,2.73c-.04.4-.08.81.08,1.18.45,1.1,2.03,1.01,3.22,1.28,2.98.68,3.99,4.18,4.87,7.04.86,2.81,2.1,5.51,3.67,8.02.55.88-.06,2.01-1.11,2.06-1.89.1-3.79.05-5.68-.15-1.41-.14-2.38-1.44-2.13-2.79s.44-2.83.58-4.25c.1-1.12-.87-2.05-2.02-1.91-.58.07-1.33.33-1.33.33-.19.06-.37-.04-.4-.24,0,0-1.43-9.17-.87-14.08.05-.44.08-.94-.21-1.28-.27-.32-.73-.42-1.15-.48-1.32-.2-3.63-.39-3.63-.39-.2-.02-.27-.16-.15-.33,0,0,3.13-4.51,6.26-3.33,2.03.76,8.01,4.29,8.01,4.29.17.1.15.22-.04.26,0,0-1.75.39-2.58,1.06Z"/><path class="cls-1" d="M40.58,44.25c-4.59.06-9.18.19-13.77.4-3.79.17-7.72.43-11.03,2.25-2.87,1.57-4.98,4.16-7.01,6.69-1.77,2.2-3.57,4.44-4.56,7.06-1.33,3.49-1.08,7.51.65,10.83.44.84,1.04,1.7,1.97,2,.67.22,1.4.11,2.1,0,1.27-.2,2.55-.39,3.83-.57.85-.12,1.71-.23,2.56-.12.58.08,1.15.26,1.74.27,1.71.03,3.04-1.35,4.24-2.53,1.34-1.33,2.79-2.55,4.34-3.64.57-.4,1.19-.85,1.34-1.52.22-1.04-.85-2-.75-3.06.12-1.29,1.76-1.84,2.44-2.95.63-1.02.33-2.33.5-3.51.23-1.61,1.33-2.99,1.64-4.58.42-2.11-.26-6.05-.26-6.05-.03-.2-.22-.37-.42-.38,0,0-4.67-.38-7.19-.72-5.12-.67-10.78.52-14.26,4.24-.71.76-1.32,1.61-1.92,2.46-.76,1.06-1.51,2.12-2.27,3.18-1.41,1.98-2.85,4.01-3.52,6.32-.92,3.15-.34,6.56.92,9.59.3.71.8,1.52,1.59,1.5.54-.02.99-.46,1.17-.96s.15-1.04.12-1.57c-.07-1.22-.15-2.43-.22-3.65-.14-2.39-.18-5.08,1.53-6.8.72-.73,1.68-1.18,2.62-1.63,1.54-.73,3.09-1.46,4.66-2.13,2.17-.92,4.59-1.74,6.85-1.08.75.22,1.47.6,2.25.7s1.71-.66,1.71-.66c.15-.13.2-.09.1.09,0,0-.36.64-.91.64s-1.04-.31-1.48-.63c-1.46-1.06-2.74-2.41-3.48-4.03s-.29-4.82-.29-4.82c.03-.2.07-.2.1,0,0,0,.37,2.86,1.56,3.93,1.19,1.07,4.15,1.2,4.15,1.2.2,0,.37.18.38.38l.54,3.54c.05.19.24.29.43.23,0,0,1.04-.38,1.41-.98s.51-1.32.6-2.03c.16-1.24.18-2.49.08-3.74-.03-.37-.08-.75-.25-1.08-.2-.37-.54-.65-.89-.9-1.93-1.35-4.37-2.01-6.74-1.81-1.69.14-3.33.69-5.02.77-.21.01-.44,0-.6-.11-.43-.32-.04-.98.36-1.34,1.23-1.12,3.43-3.12,3.43-3.12.15-.13.33-.09.42.08l3.36,3.21c.18.08.29-.02.24-.21,0,0-.84-3.11-.71-4.89.02-.29.06-.59.26-.8s.61-.25.76,0c.09.15.06.35.03.52-.11.96.39,1.88.89,2.72.69,1.17,1.44,2.37,2.62,3.08,1.18.71,2.91.74,3.79-.29.1-.11.18-.24.2-.38.03-.23-.11-.45-.24-.65-1.04-1.64-.65-5.2-.65-5.2.02-.2.12-.22.21-.04,0,0,.74,1.31.98,2.23s1.43,1.86,1.43,1.86c.15.12.32.07.37-.12,0,0,.37-1.39.14-2.26-.18-.69-.67-1.41-1.4-1.46-.31-.02-.61.09-.9.18-1.12.34-2.31.44-3.47.29-1-.12-1.99-.43-2.99-.29-1.11.15-2.05.83-2.95,1.49-3.13,2.3-6.26,4.6-9.38,6.9-.93.68-1.87,1.38-2.56,2.28-.64.84-1.04,1.83-1.27,2.84"/><path class="cls-2" d="M13.91,9.85c-.31-2.79-.34-6.19,2.08-7.72,1.09-.69,2.45-.81,3.75-.91,1.2-.09,2.4-.18,3.6-.27,7.07-.54,14.41-1.04,21.02,1.44,1.94.73,3.78,1.7,5.45,2.89,2.74,1.94,5.05,4.45,6.64,7.36.58,1.06,1.69,2.79,1.69,2.79.11.17.23.46.27.65l-.66,15.08c.03.2.06.19.07,0l-.82-12.31c-.03-.2-.08-.2-.11,0,0,0-1.62,9.52-5.36,12.6-2.46,2.02-5.75,2.8-8.95,3.1-3.9.37-11.34-.65-11.34-.65-.2-.03-.2,0-.01.06,0,0,8.52,2.63,13.07,1.83,4.55-.79,8.83-2.64,13.05-4.47.69-.3,1.41-.62,1.82-1.24.25-.38.35-.83.45-1.27.8-3.82,1.12-11.26,1.12-11.26,0-.2.04-.2.07,0l-1.85,18.02c-.05.19.04.24.18.11,0,0,4.03-3.61,4.82-6.33.79-2.72.79-8.05.79-8.05,0-.2.03-.2.06,0,0,0,1.38,8.16-.08,12.21-1.45,4.05-6.16,10.94-6.16,10.94-.11.16-.09.18.06.05l11.7-12.94c.12-.16.21-.12.19.08l-3.93,12.36c-.1.17-.05.21.11.1,0,0,6.34-4.69,10.29-5.87,1.97-.59,5.46.59,5.46.59.19.06.18.14-.01.18l-17.16,5.3c-.18.08-.26,0-.19-.18,0,0,2.33-5.45,4.39-7.83,2.06-2.37,5.08-4.16,8.26-3.99,2.17.11,4.17,1.09,6.1,2.05,1.97.98,3.95,1.97,5.73,3.26,5.2,3.79,10.16,15.46,10.16,15.46.08.18.04.2-.08.04,0,0-4.76-6.31-7.84-9.11-1.53-1.39-3.22-2.83-5.3-3.12s-4.19,2.92-4.19,2.92c-.11.17-.04.34.15.39,0,0,8.2,2.09,11.64,4.67,1.21.91,2.14,2.13,3.04,3.34,2.62,3.49,7.66,10.17,7.66,10.17.12.16.38.3.58.31l3.7,1.35c.16.12.14.29-.04.37l-1.96,2.21c-.06.19.05.32.25.3,0,0,24.14-2.9,35.22-8.06"/><path class="cls-3" d="M11.06,20.5l6.66,2.33c.19.07.18.12-.02.12l-3.53-.16c-.2-.02-.26.09-.14.25,0,0,2.33,3.14,4.45,3.56s4.33.16,6.48.37c3.16.31,6.12,1.61,9.18,2.42,3.07.81,8.88-.51,8.88-.51.19-.04.21,0,.03.09,0,0-5.78,2.98-9.07,2.49-2.25-.33-4.21-1.6-6.29-2.49-2.08-.89-6.18-.2-6.18-.2-.2.03-.23.16-.08.29,0,0,7.03,6.05,10.49,9.49,3.07,3.05,6.9,5.38,11.07,6.72,1.27.41,2.61.73,3.92.53,2.86-.43,4.76-3.12,5.78-5.76,1.03-2.63,3.23-7.41,3.23-7.41.08-.18.12-.17.07.02,0,0-1.24,5.63-3.1,8.06-.42.55-.93,1.1-1.62,1.23-.64.12-1.28-.16-1.87-.43-2.62-1.21-7.52-3.49-7.52-3.49-.18-.08-.17-.18.03-.21,0,0,6.59-1.04,9.53-2.87,2.26-1.4,6.86-2.98,6.86-2.98.19-.06.32.04.29.24l-6.68,22.45c-.09.18,0,.3.2.28,0,0,4.38-.58,6.01-2.26,1.62-1.68,3.4-5.63,3.4-5.63.08-.18.15-.17.15.03,0,0,0,6.69-3.03,7.54-2.54.71-4.91-1.54-6.25-3.77-.98-1.63-1.83-3.44-3.41-4.55s-4.78.45-4.78.45c-.18.09-.2.26-.05.39l18.45,9.64c.19.05.38-.06.43-.26,0,0,1.89-8.58,5.71-10.99,3.82-2.41,12.64-.58,12.64-.58.19.04.2.13.01.2l-9.34,1.29c-.2-.01-.24.08-.09.21l3.53,3.08c.15.13.12.17-.06.1,0,0-2.06-.85-3.26-1.35-1.57-.65-3.27-1.31-4.94-.94s-2.11,3.37-2.11,3.37c-.03.2.11.35.31.34l4.21.11c.2.02.2.06,0,.09,0,0-2.13.36-3.55.23-2.88-.27-2.52,5.77-2.52,5.77.01.2.18.33.38.3l3.22-.56c.2-.03.22.03.06.15,0,0-2.71,1.96-2.93,3.67-.22,1.71,1.48,3.61,3.16,3.05,1.89-.63,4.34-3.09,4.34-3.09.14-.14.14-.14,0,0l-2.22,3.54c-.07.19.03.35.23.38l5.41.59c.2.02.21.1.02.17,0,0-5.89,2.4-7.02,5.38-.43,1.15-.51,2.65.5,3.4,1.41,1.04,3.34-.34,4.44-1.7,1.1-1.35,3.97-2.22,3.97-2.22.19-.06.23.01.1.16,0,0-1.73,1.84-3.29,2.4-1.77.64-3.05,2.39-3.1,4.23-.04,1.84,2.62,4.13,2.62,4.13.15.13.38.11.51-.03l1.9-2.13c.13-.15.24-.11.24.09,0,0,.02,1.65-.56,2.5s-1.32,1.6-1.69,2.54-.18,2.22.75,2.68c.93.46,1.52-1.17,1.52-1.17.07-.19.11-.18.09.02,0,0-.4,4.81.76,7.09.43.84,1.23,1.45,2.01,2,4.49,3.2,9.35,5.93,14.45,8.11,1.91.82,4.64,3.32,4.64,3.32.15.13.42.19.61.13,0,0,3.82-1.23,3.82.73,0,.5-.19,1-.12,1.5.14,1.04,1.27,1.62,2.25,2.03,2.35.99,4.76,1.99,7.32,2.14,2.56.15,6.47-2.56,6.47-2.56.16-.11.34-.05.39.14,0,0,.52,1.83,1.53,2.3.72.33,1.54.36,2.34.38,3.49.08,6.98.16,10.47.25,1.12.03,2.14-1.26,2.14-1.26.12-.16.36-.19.52-.08l6.38,2.34c.2.02.28.18.19.36,0,0-.43.79-1.17.75-13.83-.79-27.86-2.03-40.8-6.85-12.94-4.82-24.86-13.67-30.37-26.06-2.23-5.02-3.34-10.43-5.01-15.66-1.03-3.25-2.29-6.5-2.43-9.9-.13-3.4,1.1-7.09,4.04-8.92"/><path class="cls-6" d="M56.11,11.8c6.81-2.36,13.84-4.14,20.97-5.3,2.02-.33,5.33,1.09,5.33,1.09.18.08.3-.02.27-.21l-.31-1.92c-.03-.2.1-.36.3-.36,0,0,6.2-.06,8.48,1.97.95.85,2.13,2.7,2.13,2.7.11.17.26.16.34-.03l.35-.81c.08-.18.3-.31.5-.29l24.16,6.84c.18.08.49.17.68.18l3.71,1.75c.14.14.39.33.57.42,0,0,17.46,8.7,22.38,16.97,1.25,2.1,2.35,4.4,4.35,5.86.4.29.86.57,1.07,1.01.33.68-.03,1.48-.44,2.12-1.24,1.9-3.04,3.45-5.14,4.4-.75.34-1.66.6-2.38.2-.59-.33-.86-1-1.09-1.63-2.71-7.16-6.26-14.01-10.57-20.38-1.93-2.85-4.13-5.71-7.28-7.22-2.16-1.04-4.6-1.36-7-1.61-3.38-.36-9.8-.77-9.8-.77-.2-.01-.28.12-.17.29,0,0,7.76,13,10.1,20.33.65,2.03,1.27,4.18,2.82,5.67.69.66,1.52,1.14,2.36,1.59,5.33,2.82,11.43,4.24,17.49,4.06,1.02-.03,2.36-.43,2.31-1.42"/><path class="cls-4" d="M73.66,11.89c2.28-1.38,4.7-2.53,7.22-3.43,1.01-.36,2.07-.69,3.15-.63,1.1.06,2.13.52,3.13.97,6.08,2.73,17.91,8.05,17.91,8.05.18.08.35-.01.38-.21,0,0,.26-1.68,1.24-2.04s2.06-.16,3.08.04c2.75.53,7.9,1.53,7.9,1.53.19.04.19.06,0,.05,0,0-4.34-.18-6.69-.27-1.65-.07-3.84.29-4.03,1.88-.08.68.28,1.32.62,1.92,4.18,7.29,9.94,22.66,9.94,22.66.07.19-.02.27-.2.19,0,0-9.83-4.5-14.18-8-3.53-2.84-7.06-5.69-10.26-8.87-2.44-2.43-4.82-5.14-8.1-6.31-2.57-.92-5.59-.86-7.72-2.54-1-.79-1.68-1.88-2.59-2.77-1.45-1.41-3.4-2.21-5.3-2.98-2.14-.87-4.39-1.75-6.7-1.56-2.31.2-4.67,1.85-4.77,4.11-.01.33.02.67.19.96.31.54.98.76,1.58.97,4.47,1.56,8.23,4.98,10.13,9.22.58,1.3,1.04,2.73,2.16,3.64.91.74,2.11,1,3.22,1.39,3.38,1.2,9.66,3.59,9.66,3.59.19.07.44,0,.56-.16l7.83-6.27c.18-.08.2-.06.04.06,0,0-2.47,1.84-3.93,2.77-1.47.93-2.24,3.85-2.24,3.85-.05.19.04.44.21.55l12.35,12.14c.11.16.29.16.4,0l6.21-7.18c.15-.13.18-.1.05.05,0,0-3.93,5.08-4.64,8.33-.08.35-.13.76.13,1.02.2.2.51.24.8.27,6.57.65,12.64,3.56,18.55,6.42.38.18.8.42.87.83.04.21-.04.43-.13.62-.84,1.74-3.19,2.36-5.11,1.9-1.92-.46-3.5-1.74-5.01-2.97-2.16-1.77-5.92-5.35-5.92-5.35-.14-.14-.1-.21.09-.16l16.45,3.97c.19.04.3-.07.23-.26,0,0-1.43-3.88-1.15-6.08.09-.7.4-1.54,1.13-1.64.48-.07.91.23,1.31.5,2.88,2,9.41,3.68,9.41,3.68.19.05.39.25.44.44l3.47,9.47c.08.18,0,.31-.21.28l-15.53-2.96c-.19-.05-.37.07-.39.27,0,0-.15,1.34.53,1.86.68.52,1.58.64,2.44.75,3.16.37,6.33.62,9.51.73,1.45.05,3.06.03,4.14-.91.49-.42.83-1,1.36-1.38,1.85-1.33,4.41.52,6.7.34,1.83-.15,3.19-3.3,3.19-3.3.08-.18,0-.41-.17-.51l-7.72-6.65c-.12-.15-.06-.28.14-.28,0,0,4.43.02,6.82.03.62,0,1.27,0,1.83.27.82.37,1.31,1.18,1.83,1.9,1.33,1.83,4.98,3.99,4.98,3.99.17.1.17.26,0,.36,0,0-2.95,1.61-4.58,2.5-.44.24-.94.49-1.43.37-.41-.1-.71-.43-.98-.75-1.36-1.58-2.72-3.16-4.08-4.73-.41-.48-.85-1.03-.81-1.65.04-.6.5-1.08.95-1.5,2.14-1.96,6.9-4.71,6.9-4.71.17-.1.43-.07.58.06l4.92,3.43c.18.09.28.33.24.52,0,0-1.05,4.45-3.23,4.47-.85,0-1.62-.44-2.33-.89-1.37-.86-2.84-2.07-2.78-3.65.03-.62.29-1.21.56-1.78.83-1.77,2.33-4.99,2.33-4.99.08-.18.31-.29.5-.24,0,0,4.63,1.12,5.32,3.31.21.66.29,1.67.29,1.67.02.2.09.21.17.03,0,0,.99-2.27,1.04-3.67s-.54-2.9-1.8-3.57c-1.31-.69-3.02-.34-4.27-1.13-.97-.61-1.48-1.8-2.52-2.29-1.83-.86-4.65.71-5.76-.95"/><path class="cls-5" d="M158.21,57.63c.09.31-2.59-1.38-2.4-1.63s2.62,1.27,2.93,1.4c7.08,2.98,15.09,3.82,22.66,2.38.3-.06.63-.11.88.06.25.17.31.49.36.78.24,1.52.66,4.19.66,4.19.03.2-.08.45-.24.55,0,0-7.19,4.77-10.56,7.76s-7.56,5.76-12.1,5.34c-3.18-.29-6.02-2.15-8.17-4.45-2.15-2.3-3.71-5.05-5.36-7.71-.64-1.03-1.33-2.08-2.34-2.78-.96-.66-2.13-.94-3.29-1.13-7.66-1.23-15.41,1.26-23.17,1.55-.8.03-1.64.03-2.37-.29-1.16-.51-1.92-1.79-3.18-1.99-.9-.14-1.76.32-2.65.53s-2.06.03-2.32-.82c-.31-1.02.91-1.79,1.86-2.33s1.8-1.92.89-2.52c-.21-.14-.47-.19-.72-.23-1.54-.26-4.26-.71-4.26-.71-.2-.03-.38.1-.41.3,0,0-.12.78-.71.78s-1.06-.42-1.48-.81c-1.37-1.28-2.74-2.55-4.11-3.83"/><path class="cls-8" d="M18.48,7.7c.89.84.27,2.36.8,3.44.4.81,1.34,1.2,2.24,1.37,2.52.46,5.36-.52,6.68-2.66.71-1.14.98-2.55,1.89-3.54.98-1.06,2.51-1.45,3.97-1.58,3.44-.29,6.97.64,9.79,2.59.32.22.65.48.76.84.1.34,0,.7-.1,1.03-.51,1.71-1.01,3.41-1.52,5.12-.47,1.57-1.08,3.33-2.6,4.03-.86.4-1.86.38-2.8.23-2.58-.41-4.99-1.78-6.64-3.76-.28-.33-.55-.73-.52-1.16.02-.33.21-.62.41-.88,1.74-2.24,4.76-3.05,7.56-3.73,1.1-.27,2.43-.48,3.24.29.92.87.54,2.4-.14,3.46-1.21,1.87-3.32,3.29-5.58,3.23-3.08-.09-8.37-2.7-8.37-2.7-.18-.09-.37,0-.43.18,0,0-.53,1.66-.53,2.7,0,.37.04.79.33,1.04.37.33.94.23,1.45.21,2.67-.12,4.57,2.44,5.79,4.75,1.22,2.32,4.98,5.29,4.98,5.29.16.12.12.25-.07.29,0,0-1.52.3-2.45.05-4.15-1.11-8.38-2.26-11.94-4.62-2.08-1.38-3.89-3.16-6.13-4.29s-6.81-.13-6.81-.13c-.19.04-.35-.08-.36-.28,0,0-.04-3.22.06-3.66.31-1.31.94-2.59,1.65-3.74.76-1.25,3.53-5.2,5.41-3.43Z"/></g></svg>